<svg width="99" height="39" viewBox="0 0 99 39" fill="none" xmlns="http://www.w3.org/2000/svg">
<path fill-rule="evenodd" clip-rule="evenodd" d="M15.735 15.4106L9.43359 27.2648L23.1722 38.9998L27.6972 21.5072L15.735 15.4106Z" fill="#11182F"/>
<path fill-rule="evenodd" clip-rule="evenodd" d="M10.8784 0L0 19.2095L8.34225 26.3339L15.3028 14.0403L28.0582 20.1182L30.8067 9.49675L10.8784 0Z" fill="#11182F"/>
<path fill-rule="evenodd" clip-rule="evenodd" d="M39.5176 2.51376C39.5331 2.00817 39.9393 1.60193 40.4449 1.58643H43.2716C43.7772 1.60193 44.1834 2.00817 44.1989 2.51376V23.6077L51.8 16.7887C52.122 16.4531 52.5546 16.2454 53.0179 16.204H56.4292C56.7446 16.1884 57.0355 16.3734 57.1552 16.6655C57.2749 16.9577 57.1974 17.2935 56.9618 17.5037L48.8728 24.874L58.4217 34.4228C58.6589 34.6279 58.7367 34.9625 58.6145 35.2512C58.4922 35.5399 58.1977 35.7167 57.8854 35.6891H53.8931C53.5633 35.6866 53.2483 35.5525 53.0179 35.3167L44.1952 26.2407V34.7655C44.1797 35.2711 43.7735 35.6773 43.2679 35.6928H40.4449C39.9393 35.6773 39.5331 35.2711 39.5176 34.7655V2.51376Z" fill="#11182F"/>
<path d="M59.3492 17.1314C59.3647 16.6258 59.7709 16.2196 60.2765 16.2041H63.0547C63.5574 16.2234 63.9593 16.6286 63.9746 17.1314V34.7656C63.9591 35.2712 63.5529 35.6774 63.0473 35.6929H60.269C59.7634 35.6774 59.3572 35.2712 59.3417 34.7656V17.1314H59.3492ZM58.8129 9.13926C58.7918 8.38724 59.0746 7.65845 59.5974 7.11745C60.1202 6.57646 60.8388 6.26887 61.5911 6.26416C63.1656 6.26416 64.442 7.54055 64.442 9.11505C64.442 10.6896 63.1656 11.9659 61.5911 11.9659C60.8465 11.964 60.1335 11.664 59.6115 11.1329C59.0895 10.6018 58.8019 9.88386 58.8129 9.13926Z" fill="#11182F"/>
<path fill-rule="evenodd" clip-rule="evenodd" d="M68.6521 20.2485H66.6075C66.3613 20.2495 66.1248 20.1522 65.9507 19.978C65.7766 19.8039 65.6792 19.5675 65.6802 19.3212V17.1314C65.6718 16.883 65.7668 16.6422 65.9426 16.4664C66.1183 16.2907 66.3591 16.1957 66.6075 16.204H68.6521V10.8002C68.6676 10.2946 69.0739 9.88839 69.5795 9.87288L72.3577 9.82446C72.852 9.84654 73.2394 10.2571 73.2329 10.7518V16.204H78.2085C78.4556 16.1978 78.6944 16.2937 78.8685 16.4692C79.0426 16.6447 79.1366 16.8843 79.1283 17.1314V19.3249C79.1284 19.8336 78.7171 20.2465 78.2085 20.2485H73.2329V29.8943C73.2329 31.5515 73.866 31.842 74.7934 31.842C75.8175 31.842 77.1806 31.2573 77.7727 30.9668C78.3649 30.6764 78.7001 30.9668 78.89 31.4063L79.7652 33.5514C79.8848 33.7606 79.9049 34.0123 79.8199 34.2377C79.7349 34.4632 79.5537 34.639 79.3257 34.7171C78.8379 35.0113 75.9739 36.177 73.624 36.177C69.7731 36.177 68.6559 33.8382 68.6559 30.3784V20.2485H68.6521Z" fill="#11182F"/>
<path d="M94.0849 23.8051C93.9431 21.4205 92.0036 19.5392 89.6158 19.4701C87.0951 19.4326 84.9521 21.3025 84.6477 23.8051H94.0849ZM89.6531 15.7161C94.718 15.7161 98.6173 19.5148 98.6173 24.7287C98.6093 25.1683 98.577 25.6072 98.5204 26.0433C98.4842 26.5027 98.106 26.86 97.6453 26.8701H84.3908C84.6135 29.7964 87.0424 32.0634 89.9771 32.084C91.5254 32.0267 93.0269 31.5378 94.3121 30.6725C94.8968 30.3299 95.2394 30.1362 95.6267 30.6241L96.9898 32.4862C97.3324 32.8586 97.4777 33.2646 96.893 33.7524C95.4815 34.9703 92.9453 36.1881 89.6829 36.1881C83.7874 36.1881 79.8882 31.5589 79.8882 25.9577C79.8882 20.4533 83.7874 15.7272 89.6307 15.7272L89.6531 15.7161Z" fill="#11182F"/>
</svg>
