<svg width="25" height="26" viewBox="0 0 25 26" fill="none" xmlns="http://www.w3.org/2000/svg">
<rect width="25" height="25" rx="2" fill="white"/>
<path fill-rule="evenodd" clip-rule="evenodd" d="M14.0565 8.77167C14.0319 9.67902 14.019 11.781 14.019 11.781C14.019 11.781 16.3778 11.781 17.4072 11.781H18.2222C18.032 13.2308 17.8482 14.6257 17.6644 16.0264H14.0501L14.0565 25.0236C13 25.0236 12.1885 25.0236 11 25.0236C10.6694 25.0236 10.7252 25.0236 9.78996 25.0236L9.62074 16.0141H6V11.781H9.64541V11.464C9.64541 10.6109 9.6272 9.76427 9.64541 8.9118C9.66361 8.36996 9.68768 7.8217 9.78046 7.28511C10.0065 5.99415 10.6073 4.90346 11.6912 4.12397C12.6414 3.44725 13.7253 3.17341 14.8769 3.14889C15.6308 3.13079 16.3778 3.16699 17.1312 3.19794C17.5416 3.22246 17.9527 3.27676 18.3385 3.31355V7.10235H18.0384C17.3032 7.10235 16.5739 7.08425 15.8387 7.10878C14.834 7.14498 14.0929 7.52275 14.0565 8.77167Z" fill="#24273F"/>
</svg>
