<svg width="24" height="23" viewBox="0 0 24 23" fill="none" xmlns="http://www.w3.org/2000/svg">
<path fill-rule="evenodd" clip-rule="evenodd" d="M3.77972 0C5.4361 0 6.77783 1.24098 6.77783 2.76646C6.77783 4.29543 5.4361 5.53815 3.77972 5.53815C2.11956 5.53815 0.777832 4.29543 0.777832 2.76646C0.777832 1.24098 2.11956 0 3.77972 0ZM1.1898 23H6.36775V7.63525H1.1898V23Z" fill="#FFFFFE"/>
<path fill-rule="evenodd" clip-rule="evenodd" d="M8.77783 7.38665H13.3917V9.52211H13.4541C14.0975 8.29298 15.6674 7 18.0099 7C22.8804 7 23.7778 10.2316 23.7778 14.4369V23H18.9706V15.4088C18.9706 13.5971 18.9355 11.2683 16.4708 11.2683C13.9665 11.2683 13.5842 13.2406 13.5842 15.2767V23H8.77783V7.38665Z" fill="#FFFFFE"/>
</svg>
