<svg width="26" height="21" viewBox="0 0 26 21" fill="none" xmlns="http://www.w3.org/2000/svg">
<path fill-rule="evenodd" clip-rule="evenodd" d="M7.64894 16.2617C4.95602 16.1665 3.27208 14.2099 2.82671 12.6204C3.57589 12.7646 4.31386 12.7358 5.04837 12.5531L5.1226 12.5182C3.66393 12.1748 2.53843 11.3848 1.75731 10.1107C1.23771 9.26398 0.989132 8.3377 0.997763 7.32054C1.72537 7.71465 2.48664 7.93486 3.30315 7.9567C2.20613 7.15626 1.47161 6.11114 1.17039 4.77416C0.871748 3.43892 1.06509 2.17009 1.72623 0.973799C4.53223 4.31976 8.08482 6.15396 12.4151 6.45631C12.3849 6.24833 12.3529 6.0657 12.3314 5.88219C12.1872 4.64745 12.4315 3.49572 13.09 2.45147C13.9134 1.14158 15.0916 0.328901 16.6046 0.0798546C18.3464 -0.210262 19.8689 0.293073 21.1412 1.5418C21.2266 1.62569 21.2974 1.65278 21.4174 1.62569C22.4816 1.3915 23.4863 1.00264 24.4314 0.452113L24.4996 0.415412L24.5341 0.41279C24.125 1.63355 23.3775 2.57381 22.3159 3.26852C23.3188 3.15754 24.2769 2.88752 25.2013 2.48206L25.222 2.50565C25.0243 2.76868 24.8327 3.03695 24.6273 3.29211C24.0766 3.97896 23.4448 4.58191 22.7423 5.10534L22.6568 5.2705C22.6862 6.04822 22.656 6.82682 22.5601 7.60017C22.3616 9.2299 21.9119 10.7853 21.2249 12.2718C20.5146 13.8045 19.5893 15.1913 18.4232 16.4077C16.4501 18.4734 14.0705 19.8069 11.3017 20.4256C10.3522 20.6371 9.38726 20.7454 8.41453 20.7734C5.42642 20.8625 2.66358 20.1102 0.121699 18.5198L0 18.4394C1.80909 18.6369 3.52842 18.4027 5.18388 17.7158C6.0634 17.3514 6.87732 16.8734 7.64894 16.2617Z" fill="#FFFFFE"/>
</svg>
