<svg width="705" height="314" viewBox="0 0 705 314" xmlns="http://www.w3.org/2000/svg"><g clip-path="url(#a)"><path d="M122.9 131.4l-41.6 78.3 90.7 77.5 29.9-115.5-79-40.3z"/><path d="M90.8 29.6L19 156.5l55.1 47.1 46-81.2 84.2 40.1 18.2-70.1L90.8 29.6zM280 46.2c0-3.2 2.9-6.1 6.1-6.1h18.7c3.2 0 6.1 2.9 6.1 6.1v139.4l50.2-45.1c2.2-1.9 4.8-3.9 8-3.9h22.6c5.4 0 6.4 6.2 3.5 8.7l-53.4 48.6 63.1 63.1c2.8 2.9 1.9 8.4-3.6 8.4h-26.4c-2.2 0-4.8-1.3-5.8-2.6l-58.2-59.9v56.3c0 3.3-2.9 6.2-6.1 6.2h-18.7c-3.2 0-6.1-2.9-6.1-6.2v-213zm131 96.6c0-3.3 2.9-6.2 6.1-6.2h18.3c3.2 0 6.1 2.9 6.1 6.2v116.4c0 3.3-2.9 6.2-6.1 6.2h-18.3c-3.2 0-6.1-2.9-6.1-6.2V142.8zM407.4 90c0-10.6 8.1-19 18.4-19 10.6 0 18.9 8.4 18.9 19 0 10.3-8.3 18.6-18.9 18.6-10.3 0-18.4-8.3-18.4-18.6zm65 73.3h-13.5c-3.5 0-6.1-2.8-6.1-6.1v-14.4c0-3.6 2.6-6.2 6.1-6.2h13.5v-35.7c0-3.2 2.9-6.1 6.1-6.1l18.4-.3c3.2 0 5.8 2.9 5.8 6.1v36h32.8c3.5 0 6.1 2.6 6.1 6.2v14.4c0 3.3-2.6 6.1-6.1 6.1h-32.8v63.8c0 10.9 4.1 12.8 10.3 12.8 6.7 0 15.7-3.8 19.6-5.8 4.2-1.9 6.1 0 7.4 2.9l5.8 14.2c1.6 3.5.3 6.1-2.9 7.7-3.2 1.9-22.2 9.7-37.7 9.7-25.4 0-32.8-15.5-32.8-38.3v-67zm168 23.5c-1-15.4-13.9-28.6-29.6-28.6-17.4 0-30.9 12.6-32.8 28.6h62.4zm-29.3-53.4c33.5 0 59.2 25.1 59.2 59.6 0 2.2-.3 6.4-.6 8.6-.4 3.3-2.9 5.5-5.8 5.5h-87.5c.9 17.4 16 34.4 37 34.4 11.5 0 22.2-5.1 28.6-9.3 3.9-2.2 6.1-3.5 8.7-.3l9 12.2c2.2 2.6 3.2 5.2-.7 8.4-9.3 8-26 16.1-47.6 16.1-38.9 0-64.7-30.6-64.7-67.6 0-36.4 25.8-67.6 64.4-67.6z"/></g><defs><clipPath id="a"><path fill="#fff" d="M0 0h705v314H0z"/></clipPath></defs></svg>