<svg width="17" height="17" viewBox="0 0 17 17" xmlns="http://www.w3.org/2000/svg"><g transform="translate(1 1)" fill="none"><mask id="a" maskUnits="userSpaceOnUse" x="-1" y="-1" width="17" height="17" fill="#000"><path fill="#fff" d="M-1-1h17v17H-1z"/><path d="M12 6a5.985 5.985 0 0 1-2 4.472A6 6 0 1 1 12 6z"/></mask><g mask="url(#a)"><path d="M9.646 10.826l5 5 .708-.707-5-5-.708.707zm.354-.354l-.667-.745.667.745zM6 11a5 5 0 0 1-5-5h-2a7 7 0 0 0 7 7v-2zM1 6a5 5 0 0 1 5-5v-2a7 7 0 0 0-7 7h2zm5-5a5 5 0 0 1 5 5h2a7 7 0 0 0-7-7v2zm5 5c0 1.48-.642 2.81-1.667 3.727l1.334 1.49A6.985 6.985 0 0 0 13 6h-2zM9.333 9.727A4.978 4.978 0 0 1 6 11v2c1.792 0 3.43-.675 4.667-1.783l-1.334-1.49z" fill="#F50"/></g></g></svg>