<svg width="16" height="15" viewBox="0 0 16 15" xmlns="http://www.w3.org/2000/svg"><g clip-path="url(#a)" fill="none"><g transform="translate(1 1)"><mask id="b" fill="#fff"><path fill-rule="evenodd" clip-rule="evenodd" d="M14 5l-4.9-.64L7 0 4.9 4.36 0 5l3.6 3.26L2.67 13 7 10.67 11.33 13l-.93-4.74L14 5z"/></mask><g mask="url(#b)"><path d="M14 5l.671.741 1.604-1.452-2.145-.28L14 5zm-4.9-.64l-.9.434.234.487.536.07.13-.991zM7 0l.9-.434-.9-1.87-.9 1.87L7 0zM4.9 4.36l.13.992.536-.07.235-.488L4.9 4.36zM0 5l-.13-.992-2.145.28 1.604 1.453L0 5zm3.6 3.26l.981.193.11-.555-.42-.38-.671.742zM2.67 13l-.981-.193-.407 2.076 1.862-1.002L2.67 13zM7 10.67l.474-.88L7 9.533l-.474.255.474.881zM11.33 13l-.474.88 1.863 1.003-.408-2.075-.981.192zm-.93-4.74l-.671-.741-.42.379.11.555.981-.193zm3.73-4.252l-4.9-.64-.26 1.984 4.9.64.26-1.984zM10 3.926L7.9-.434 6.1.434l2.1 4.36 1.8-.868zM6.1-.434L4 3.926l1.8.868L7.9.434 6.1-.434zM4.77 3.368l-4.9.64.26 1.984 4.9-.64-.26-1.984zM-.67 5.741l3.6 3.26L4.27 7.52.67 4.26-.67 5.74zm3.29 2.326l-.93 4.74 1.962.386.93-4.74-1.962-.386zm.525 5.814l4.33-2.33-.948-1.762-4.33 2.33.948 1.762zm3.382-2.33l4.33 2.33.948-1.762-4.33-2.33-.948 1.762zm5.785 1.256l-.93-4.74-1.962.386.93 4.74 1.962-.386zm-1.24-3.806l3.6-3.26L13.33 4.26l-3.6 3.26L11.07 9z" fill="#000"/></g></g></g><defs><clipPath id="a"><path fill="#fff" d="M0 0h16v15H0z"/></clipPath></defs></svg>