<svg width="24" height="24" viewBox="0 0 24 24" fill="none" xmlns="http://www.w3.org/2000/svg"><path fill-rule="evenodd" clip-rule="evenodd" d="M1.771 0h20.451C23.2 0 24 .774 24 1.729v20.542c0 .956-.8 1.729-1.778 1.729H1.771C.792 24 0 23.227 0 22.271V1.729C0 .774.792 0 1.771 0zm2.106 6.828A2.064 2.064 0 1 0 6.8 3.91a2.064 2.064 0 0 0-2.922 2.92zm13.016 13.624h3.555v-6.286c0-3.085-.666-5.455-4.267-5.455-1.733 0-2.893.95-3.37 1.85h-.046V9H9.351v11.452h3.554v-5.667c0-1.494.283-2.939 2.136-2.939 1.825 0 1.852 1.709 1.852 3.037v5.569zm-13.338 0V9h3.564v11.452H3.555z" fill="#24273F"/></svg>