<svg width="22" height="18" viewBox="0 0 22 18" fill="none" xmlns="http://www.w3.org/2000/svg"><path fill-rule="evenodd" clip-rule="evenodd" d="M17.11 2.592h.14C19.337 2.59 22 2.587 22 5.568v5.25c0 2.04-1.584 2.979-3.415 2.979V17.2c0 .851-1.147 1.108-1.513.351l-2.151-3.753H6.329c-1.865 0-2.956-1.496-2.956-3.272l-.279.002C1.738 10.538 0 10.55 0 8.636V1.89A1.89 1.89 0 0 1 1.876 0h13.357c1.61 0 1.876 1.329 1.876 2.592zm.11 4.346c.663 0 1.201.542 1.201 1.21 0 .67-.538 1.212-1.202 1.212a1.207 1.207 0 0 1-1.202-1.211c0-.669.538-1.211 1.202-1.211zm-3.331 1.21c0-.668-.538-1.21-1.202-1.21-.664 0-1.202.542-1.202 1.21 0 .67.538 1.212 1.202 1.212.664 0 1.202-.542 1.202-1.211zm-5.735-1.21c.664 0 1.202.542 1.202 1.21 0 .67-.538 1.212-1.202 1.212a1.207 1.207 0 0 1-1.202-1.211c0-.669.538-1.211 1.202-1.211zM6.33 4.198h12.716c.75 0 1.361.615 1.361 1.371v5.25c0 .757-.61 1.373-1.361 1.373-1.104 0-1.617-.008-1.854.243-.235.25-.2.754-.2 1.774a10.855 10.855 0 0 1-.216-.413c-.34-.67-.812-1.6-1.397-1.604h-9.05c-.75 0-1.361-.616-1.361-1.372V5.57A1.37 1.37 0 0 1 6.33 4.197z" fill="#fff"/></svg>