<svg xmlns="http://www.w3.org/2000/svg" viewBox="0 0 27.857 27.857" width="512" height="512"><g fill="#8f8f8f"><path d="M2.203 5.331l10.034 7.948c.455.36 1.082.52 1.691.49.608.03 1.235-.129 1.69-.49l10.034-7.948c.804-.633.622-1.152-.398-1.152H2.604c-1.021 0-1.203.519-.401 1.152z"/><path d="M26.377 7.428l-10.965 8.325c-.41.308-.947.458-1.482.451-.536.007-1.073-.144-1.483-.451L1.48 7.428C.666 6.811 0 7.142 0 8.163v13.659c0 1.021.836 1.857 1.857 1.857H26a1.863 1.863 0 0 0 1.857-1.857V8.163c0-1.021-.666-1.352-1.48-.735z"/></g></svg>