<svg width="24" height="18" viewBox="0 0 24 18" fill="none" xmlns="http://www.w3.org/2000/svg"><path fill-rule="evenodd" clip-rule="evenodd" d="M21.407 1.117a3.007 3.007 0 0 1 2.088 2.088c.347 1.915.515 3.859.5 5.805a31.253 31.253 0 0 1-.5 5.783 3.007 3.007 0 0 1-2.088 2.088c-1.89.502-9.396.502-9.396.502s-7.528 0-9.396-.502a3.007 3.007 0 0 1-2.088-2.088A31.247 31.247 0 0 1 .005 9.01c-.007-1.947.168-3.89.522-5.805a3.007 3.007 0 0 1 2.088-2.088c1.89-.511 9.396-.501 9.396-.501s7.526 0 9.396.501zM9.61 5.408v7.193l6.264-3.591L9.61 5.408z" fill="#24273F"/></svg>