<svg width="44" height="50" viewBox="0 0 44 50" fill="none" xmlns="http://www.w3.org/2000/svg"><path fill-rule="evenodd" clip-rule="evenodd" d="M43.543 40.115c0 .035-.022.049-.052.068a.29.29 0 0 0-.062.047c-.142.142-.371.24-.593.336-.136.058-.27.115-.379.181-2.514 1.322-5.029 2.644-7.6 3.908-2.971 1.494-5.943 2.931-8.971 4.196-1.943.804-3.714.862-5.657-.058-1.886-.92-3.6-2.011-5.143-3.39-.8-.748-1.486-1.552-1.257-2.932-2.172 1.265-4.343 1.495-6.629 1.15-1.771-.23-3.428-.805-4.743-2.07-.571-.574-1.028-1.206-1.485-1.896-.915-1.494-.743-2.93.342-4.31.915-1.15 2.229-1.264 3.315-.977 2.114.632 3.543-.23 4.743-1.724.8-.977 1.6-2.012 2.171-3.161 1.543-2.931 2.629-6.092 2.971-9.425.115-.977.286-2.012 1.086-2.76.18-.18.219-.54.255-.882.01-.092.019-.182.03-.267.063-.291.103-.583.141-.87.069-.503.135-.989.317-1.428.286-.805.971-1.265 1.886-1.207.742.057 1.485.747 1.6 1.724.057.632.114 1.322-.115 1.896-.4 1.092-.057 1.954.686 2.931.045-.27.09-.504.13-.721h.001c.064-.337.12-.63.155-.945.114-1.782.686-3.391 1.943-4.655 2.057-2.127 2.171-4.77 2-7.472-.012-.203-.027-.404-.04-.603v-.001c-.055-.758-.108-1.496-.017-2.27.057-.517.457-1.149.857-1.436.628-.46 1.428-.805 2.171-.862 3.143-.287 4.057.345 3.943 3.85a48.41 48.41 0 0 0 .171 5.748c.058.517.4 1.091.743 1.551.275.415.66.792 1.037 1.162l.278.275c2.457 2.414 3.257 5.402 2.914 8.793-.163 1.52-.18 3.038-.198 4.557-.007.607-.014 1.215-.03 1.822 0 .345.17.748.342 1.035 1.257 1.782 2.514 3.563 3.6 5.402.457.767.864 1.533 1.27 2.3.203.382.406.765.616 1.149.343.574.685 1.149 1.085 1.666.172.345.23.46.172.575zm-23.04-5.067c-.036.04-.07.081-.103.124.006.007.042-.038.104-.124zm-.103.124a1.25 1.25 0 0 0-.13.236c.091-.143.138-.227.13-.236zm-.13.236c-.35.55-1.347 1.976-2.337 3.392-.527.755-1.052 1.505-1.476 2.12.507-.079 1.015-.09 1.492-.101.922-.021 1.733-.04 2.223-.532.353-.355.228-1.258.091-2.237-.132-.954-.275-1.98.007-2.642zm.234-.36c.519-.73 2.841-4.48 4.067-6.485.23-.323.47-.647.714-.978.364-.492.74-1 1.115-1.55.208.07.436.16.686.259.162.064.334.132.514.2-.05.288-.081.55-.11.806-.072.612-.139 1.182-.461 1.953-.32.142-.66.235-1 .328-.759.207-1.516.413-2.029 1.166-.743 1.092-.343 3.506-.343 3.506s-2.222-.213-3.153.795zM15.6 31.092c-1.143 2.873-4.857 5.69-7.486 5.115.226-.181.447-.35.662-.515.604-.462 1.16-.888 1.624-1.44 3.257-3.39 4.914-7.528 5.6-12.126.048-.31.083-.624.118-.938.134-1.192.268-2.383 1.082-3.43.256-.342.32-.846.385-1.342.022-.168.043-.336.072-.497.037-.13.05-.367.064-.625.03-.542.065-1.177.336-1.099.915.518.629 1.38.4 1.954-.571 1.322-.343 2.53.057 3.851 1.143 3.62 1.6 7.356.915 11.092-.286 1.667-.8 3.333-1.829 4.713a88.762 88.762 0 0 1-2.8 3.678c-2 2.414-4.629 2.529-7.428 2.011-2.058-.402-3.829-1.264-4.972-3.16-.457-.69-.914-1.495-.171-2.3 2.571 1.322 5.2 2.012 8 1.437 2.457-.517 4.171-2.069 5.543-4.023 1.828-2.586 2.285-6.207 1.942-9.31a.44.44 0 0 0-.114-.287c-.514-.633-.629.747-.629.92-.033.407-.127.794-.221 1.186-.066.27-.132.543-.178.825-.073.366-.139.737-.204 1.108-.192 1.084-.385 2.175-.768 3.202zM22.4 19.7l-.057 1.335c-.024.615-.017 1.23-.01 1.847.009.82.018 1.642-.047 2.463-.071.82-.208 1.639-.356 2.527-.09.544-.186 1.114-.273 1.726.638-.69 1.237-1.33 1.81-1.941.81-.867 1.567-1.676 2.305-2.485.914-.92.971-.977 2.114-.344 1.143.632 2.457.574 3.543.23l.271-.084h.001c1.037-.32 2.004-.618 3.213-.089-.245-1.165-.186-2.32-.128-3.464.091-1.791.181-3.553-.9-5.272-1.543 1.322-3.257 1.725-5.086 1.61a107.75 107.75 0 0 1-3.394-.366c-.924-.11-1.88-.222-2.892-.324-.038.843-.076 1.737-.114 2.63zm9.397 16.18l.005-.007c1.11-1.875 2.219-3.75 3.341-5.643a155.89 155.89 0 0 1 2.743 5.23c-.05.125-.122.251-.197.381a2.988 2.988 0 0 0-.26.538c-.229.633.114 1.38.742 1.265 1.07-.205 1.46.458 1.855 1.134l.145.245c.172.23.286.46.514.919-1.542.46-5.142 2.127-5.942 2.53a317.375 317.375 0 0 0-3.829 1.925c-1.271.646-2.543 1.293-3.828 1.925-.438.22-.908.44-1.49.711l-.567.266a6035.6 6035.6 0 0 0 6.768-11.418zM22.4 47.875l1.212-2.02c3.403-5.673 6.73-11.217 10.102-16.716-.462-.166-.81-.275-1.188-.392a42.901 42.901 0 0 1-.926-.298c-1.029 1.437-3.2 4.885-3.6 5.575-.804 1.397-2.21 3.682-3.591 5.925-1.857 3.015-3.665 5.953-3.895 6.546.296.208.576.416.887.648h.001c.292.217.612.454.998.732zm8.572-35h-6.229c1.398-1.594 1.276-3.302 1.152-5.032-.028-.39-.056-.783-.066-1.175h4.057c.021.431.019.863.016 1.289-.005.707-.009 1.398.098 2.044.108.652.352 1.258.59 1.847.139.346.276.686.381 1.027zm-8.8 27.528c.933-1.496 1.821-2.914 2.694-4.308l.001-.001.002-.003.002-.002.002-.005c1.104-1.761 2.183-3.484 3.299-5.278l-.46.06c-.631.08-1.133.144-1.598.284-.8.173-1.143.69-1.143 1.495 0 .239.055.506.108.762.024.113.046.224.064.33.171 1.264-.229 1.896-1.543 2.126-.286.057-.514.057-.8.057-1.2.116-1.486.46-1.257 1.667.08.4.171.788.27 1.203.114.48.236.997.359 1.613zm10.685-25.345c-2.971 1.322-6.571.978-9.714.518.286-1.092.686-1.494 1.657-1.437.857.054 1.977.007 3.107-.04 1.284-.055 2.58-.11 3.522-.018.633.053.974.45 1.337.872l.091.105zM21.486 41.61c-.413.49-1.366.51-2.344.531-.513.011-1.032.022-1.485.101.34.895.615 1.664.922 2.517l.335.932c.283-.445.698-1.077 1.116-1.715v-.001c.935-1.424 1.89-2.88 1.456-2.365zm11.06-15.416c.294-.09.603-.184.94-.274l.137.503c.16.586.347 1.273.434 1.624-.732 0-1.56-.337-2.134-.57l-.002-.002a34.019 34.019 0 0 0-.15-.06c-.97-.402-1.37.115-1.828.747l-.13.17c-.36.47-.738.966-1.299 1.324.043-.191.077-.39.112-.595.06-.347.123-.71.231-1.072.343-1.149.629-1.264 1.829-1.379.63-.04 1.207-.216 1.86-.416zM15.2 43.103c.229.115.414.316.6.518.186.2.372.402.6.517-.4-1.166-.38-1.854-.371-2.162.004-.132.006-.194-.029-.194-.167.252-.335.535-.547.894-.077.132-.161.273-.253.427zM29.51 3.738c.058-.185.255-.326.604-.577a56.033 56.033 0 0 1-.137 1.499l-.034.34c-.354-.712-.509-1.023-.433-1.262zm-1.167-.29c-.262.22-.424.355-.501.529-.127.28-.032.66.215 1.655A60 60 0 0 0 28.2 4.54c.043-.345.086-.69.143-1.092zm2.628 39.196a1.1 1.1 0 0 1-.4-.805c0-.46.23-.92.686-.862.514 0 .743.517.743.977 0 .23-.057.402-.171.575-.172.23-.572.287-.858.115zm4.115-2.931a.53.53 0 0 0 .4.632c.286.115.857-.058.8-.46l-.018-.092c-.043-.234-.071-.387-.325-.54-.057-.058-.171-.058-.286-.058-.285 0-.514.23-.571.518zm-.857-4.77c.057-.058.285.057.457.574.171.517-.286.862-.743.862-.343-.115-.514-.69-.457-.862.114-.23.457-.46.743-.575z" fill="#5DD8E4"/></svg>