<svg width="46" height="40" viewBox="0 0 46 40" fill="none" xmlns="http://www.w3.org/2000/svg"><path fill-rule="evenodd" clip-rule="evenodd" d="M23 33.571c.473 0 .913-.24 1.165-.635C25.17 31.356 34 17.337 34 11.857 34 5.871 29.065 1 23 1S12 5.87 12 11.857c0 5.48 8.829 19.5 9.835 21.08A1.38 1.38 0 0 0 23 33.57zm0-29.857c4.55 0 8.25 3.652 8.25 8.143 0 3.481-5.193 12.741-8.25 17.761-3.056-5.02-8.25-14.28-8.25-17.76 0-4.492 3.7-8.144 8.25-8.144zm0 2.715c3.033 0 5.5 2.434 5.5 5.428 0 2.994-2.467 5.429-5.5 5.429s-5.5-2.435-5.5-5.429S19.967 6.43 23 6.43zm-2.75 5.428c0-1.497 1.233-2.714 2.75-2.714s2.75 1.217 2.75 2.714c0 1.497-1.233 2.714-2.75 2.714s-2.75-1.217-2.75-2.714zM43.625 39c.499 0 .96-.267 1.203-.7a1.34 1.34 0 0 0-.037-1.376l-6.875-10.858a1.38 1.38 0 0 0-1.166-.637h-5.5c-.76 0-1.375.606-1.375 1.357 0 .75.615 1.357 1.375 1.357h4.737l5.156 8.143H4.856l5.156-8.143h4.738c.76 0 1.375-.607 1.375-1.357s-.616-1.357-1.375-1.357h-5.5c-.474 0-.914.241-1.167.636L1.208 36.922c-.264.42-.278.948-.036 1.378.244.433.703.7 1.203.7h41.25z" fill="#5DD8E4"/><path d="M24.165 32.936l-.211-.134.21.134zm-2.33 0l-.21.135.21-.135zM23 29.618l-.213.13.213.35.214-.35-.214-.13zM44.828 38.3l-.218-.123.218.123zm-.037-1.376l-.211.133.21-.133zm-6.875-10.858l.211-.133-.211.133zm-1.93 2.077l.212-.134-.074-.116h-.137v.25zm5.157 8.143v.25h.454l-.243-.384-.211.134zm-36.287 0l-.211-.134-.243.384h.454v-.25zm5.156-8.143v-.25h-.138l-.073.116.211.134zm-1.929-2.078l-.21-.135-.001.001.211.134zM1.208 36.922l-.211-.133.211.133zM1.172 38.3l.218-.123-.218.123zm22.782-5.498a1.13 1.13 0 0 1-.954.52v.5a1.63 1.63 0 0 0 1.375-.751l-.421-.269zm9.796-20.945c0 1.319-.535 3.184-1.377 5.29-.84 2.099-1.97 4.405-3.134 6.595a145.242 145.242 0 0 1-5.285 9.06l.421.269c.505-.792 2.968-4.698 5.305-9.094 1.17-2.198 2.309-4.522 3.157-6.644.844-2.112 1.413-4.054 1.413-5.476h-.5zM23 1.25c5.93 0 10.75 4.762 10.75 10.607h.5C34.25 5.73 29.2.75 23 .75v.5zM12.25 11.857C12.25 6.012 17.07 1.25 23 1.25v-.5c-6.2 0-11.25 4.98-11.25 11.107h.5zm9.796 20.945a145.26 145.26 0 0 1-5.285-9.06c-1.164-2.19-2.295-4.496-3.133-6.594-.843-2.107-1.378-3.972-1.378-5.29h-.5c0 1.42.569 3.363 1.413 5.475.848 2.122 1.988 4.446 3.157 6.644 2.337 4.395 4.8 8.302 5.305 9.094l.421-.269zm.954.52a1.13 1.13 0 0 1-.954-.52l-.421.269c.298.467.818.75 1.375.75v-.5zm8.5-21.465c0-4.632-3.815-8.393-8.5-8.393v.5c4.415 0 8 3.544 8 7.893h.5zm-8.286 17.891c1.53-2.513 3.596-6.09 5.281-9.476.842-1.693 1.591-3.342 2.13-4.79.536-1.44.875-2.707.875-3.625H31c0 .823-.31 2.018-.844 3.45-.53 1.425-1.27 3.057-2.109 4.742-1.676 3.37-3.734 6.933-5.26 9.44l.427.26zM14.5 11.858c0 .917.34 2.184.875 3.624.539 1.448 1.288 3.097 2.13 4.79 1.685 3.386 3.751 6.963 5.282 9.476l.427-.26c-1.527-2.506-3.585-6.07-5.261-9.439-.838-1.685-1.579-3.317-2.11-4.741-.533-1.433-.843-2.628-.843-3.45h-.5zM23 3.463c-4.685 0-8.5 3.761-8.5 8.393h.5c0-4.35 3.585-7.893 8-7.893v-.5zm5.75 8.393c0-3.135-2.582-5.678-5.75-5.678v.5c2.898 0 5.25 2.325 5.25 5.178h.5zM23 17.536c3.168 0 5.75-2.544 5.75-5.679h-.5c0 2.853-2.352 5.179-5.25 5.179v.5zm-5.75-5.679c0 3.135 2.582 5.679 5.75 5.679v-.5c-2.898 0-5.25-2.326-5.25-5.179h-.5zM23 6.18c-3.168 0-5.75 2.543-5.75 5.678h.5c0-2.853 2.352-5.178 5.25-5.178v-.5zm0 2.714c-1.651 0-3 1.326-3 2.964h.5c0-1.356 1.119-2.464 2.5-2.464v-.5zm3 2.964c0-1.638-1.348-2.964-3-2.964v.5c1.382 0 2.5 1.108 2.5 2.464h.5zm-3 2.964c1.652 0 3-1.326 3-2.964h-.5c0 1.356-1.118 2.464-2.5 2.464v.5zm-3-2.964c0 1.638 1.349 2.964 3 2.964v-.5c-1.381 0-2.5-1.108-2.5-2.464H20zm24.61 26.32a1.129 1.129 0 0 1-.985.573v.5c.588 0 1.133-.315 1.42-.828l-.435-.245zm-.03-1.12c.216.34.227.77.03 1.12l.436.245a1.59 1.59 0 0 0-.044-1.632l-.422.268zM37.705 26.2l6.875 10.857.422-.267-6.875-10.857-.422.267zm-.955-.521c.39 0 .75.198.955.521l.422-.268a1.63 1.63 0 0 0-1.377-.753v.5zm-5.5 0h5.5v-.5h-5.5v.5zm-1.125 1.107c0-.61.5-1.107 1.125-1.107v-.5c-.895 0-1.625.715-1.625 1.607h.5zm1.125 1.107a1.115 1.115 0 0 1-1.125-1.107h-.5c0 .891.73 1.607 1.625 1.607v-.5zm4.737 0H31.25v.5h4.737v-.5zm5.367 8.259l-5.156-8.143-.422.268 5.156 8.142.422-.267zm-36.498.384h36.287v-.5H4.856v.5zM9.8 28.009l-5.156 8.143.422.267 5.156-8.142-.422-.268zm4.95-.116h-4.739v.5h4.738v-.5zm1.124-1.107c0 .609-.5 1.107-1.125 1.107v.5c.894 0 1.625-.716 1.625-1.607h-.5zm-1.125-1.107c.624 0 1.125.498 1.125 1.107h.5c0-.892-.731-1.607-1.625-1.607v.5zm-5.5 0h5.5v-.5h-5.5v.5zm-.957.52c.207-.322.568-.52.957-.52v-.5c-.56 0-1.078.284-1.378.751l.421.27zM1.42 37.057L8.295 26.2l-.422-.268L.997 36.788l.422.268zm-.029 1.121c-.197-.35-.186-.78.03-1.122l-.423-.266a1.596 1.596 0 0 0-.043 1.633l.436-.245zm.985.573c-.41 0-.786-.22-.985-.573l-.436.245c.288.513.831.828 1.421.828v-.5zm41.25 0H2.375v.5h41.25v-.5z" fill="#fff"/></svg>