<svg width="47" height="54" viewBox="0 0 47 54" fill="none" xmlns="http://www.w3.org/2000/svg"><path fill-rule="evenodd" clip-rule="evenodd" d="M11.907 54c4.512 0 8.428-2.562 10.377-6.298.435.018.866.031 1.284.031.209 0 .412 0 .635-.005.22-.006.438-.011.652-.026a7.01 7.01 0 0 0 .36-.012l.638-.046c.159-.01.309-.023.495-.04l.029-.002c5.69-.533 9.44-2.518 9.64-5.075l.002-.009c.023-.124.224-1.25.224-2.437 0-.972-.134-1.914-.2-2.303.163-1.018.2-1.806.2-2.29 0-.476-.036-1.252-.199-2.283.162-1.016.2-1.803.2-2.285 0-.988-.138-1.921-.196-2.277.063-.38.194-1.296.194-2.259 0-.985-.138-1.918-.198-2.283.06-.363.198-1.297.198-2.283 0-1.048-.156-2.041-.21-2.348-.051-3.494-6.445-5.378-12.464-5.378-6.037 0-12.451 1.895-12.466 5.408a14.808 14.808 0 0 0-.203 2.312c0 .987.138 1.92.198 2.283a14.82 14.82 0 0 0-.198 2.283c0 .978.136 1.905.197 2.275-.059.347-.184 1.2-.197 2.112C4.924 31.277.216 36.276.216 42.357.215 48.777 5.46 54 11.907 54zm19.464-22.006a.906.906 0 0 0-1.122-.609c-1.93.567-4.24.867-6.68.867-3.913 0-7.544-.798-9.477-2.082-.002 0-.004-.003-.006-.004-.516-.345-1.124-.882-1.17-1.504l-.002-.014v-.016c0-.02-.002-.04-.005-.06a.718.718 0 0 1-.004-.029l-.001-.019-.003-.028-.002-.01-.002-.017a13.889 13.889 0 0 1-.18-1.636l.071.054c.08.062.16.124.25.186a.904.904 0 0 0 1.255-.242.898.898 0 0 0-.241-1.25c-.415-.279-1.106-.838-1.136-1.463v-.011l-.001-.007v-.005a.614.614 0 0 0-.005-.07l-.003-.027a.447.447 0 0 1-.002-.026.267.267 0 0 0-.004-.043c-.002-.009-.14-.767-.183-1.644 2.288 1.733 6.659 2.647 10.849 2.647 4.193 0 8.567-.915 10.854-2.652a13.729 13.729 0 0 1-.186 1.672v.016a2.173 2.173 0 0 0-.01.082l-.002.048c-.011.476-.426 1.009-1.174 1.505-1.927 1.288-5.56 2.089-9.481 2.089-2.725 0-5.338-.385-7.358-1.083a.9.9 0 1 0-.593 1.7c2.205.763 5.03 1.183 7.95 1.183 4.326 0 8.248-.895 10.486-2.392.119-.079.222-.158.325-.238l.044-.033c-.034.74-.137 1.394-.173 1.599l-.01.056-.002.014v.009l-.002.01a.813.813 0 0 0-.011.117v.006l.001.003v.007l-.001.005c-.007.472-.425 1.009-1.178 1.511a6.283 6.283 0 0 1-.454.275.898.898 0 0 0-.348 1.225.904.904 0 0 0 1.23.348 8.392 8.392 0 0 0 .615-.38c.107-.072.202-.145.297-.217l.035-.027c-.02.41-.066.946-.176 1.622v.001a.9.9 0 0 0-.021.19l.001.009c-.01.467-.408.99-1.125 1.478-.02.011-.038.023-.057.035-1.921 1.285-5.552 2.083-9.476 2.083-.491 0-.957-.015-1.406-.038a11.709 11.709 0 0 0-2.334-2.953c1.19.152 2.446.234 3.74.234 2.61 0 5.098-.325 7.192-.94.48-.14.753-.64.612-1.117zm-5.64 13.854c.159-.01.297-.022.44-.036 5.006-.468 8.017-2.132 8.057-3.472 0-.005 0-.01.002-.014l.001-.01.001-.019a.683.683 0 0 1 .009-.098l.001-.008c.015-.085.147-.834.184-1.684l-.064.049a4.994 4.994 0 0 1-.374.271c-1.395.914-3.445 1.61-5.919 2.003a.903.903 0 0 1-1.035-.746.9.9 0 0 1 .75-1.03c2.191-.35 4.045-.966 5.221-1.737a.55.55 0 0 1 .047-.033c.43-.286 1.155-.862 1.174-1.506v-.01a.96.96 0 0 1 .02-.191 14.3 14.3 0 0 0 .177-1.627l-.05.038c-.094.073-.19.146-.297.218l-.031.022c-.016.01-.033.022-.05.031-2.246 1.473-6.135 2.351-10.427 2.351-.142 0-.28-.003-.417-.006l-.187-.004c.303.882.505 1.808.587 2.77.444.001.89-.005 1.323-.025a.904.904 0 0 1 .944.858.902.902 0 0 1-.862.94c-.456.02-.918.031-1.388.031h-.009a11.538 11.538 0 0 1-.525 2.75l.125.002c.146.003.293.006.43.007.186 0 .367 0 .553-.005l.047-.001c.2-.005.387-.01.569-.022.053-.004.103-.005.153-.006l.125-.004h.004l.07-.003.621-.044zm-2.163-29.956c6.584 0 10.632 2.095 10.657 3.606l-.001.037c-.039 1.51-4.084 3.598-10.656 3.598-6.553 0-10.591-2.075-10.654-3.584v-.067c.053-1.51 4.094-3.59 10.654-3.59zm-1.776 26.465c0-5.428-4.434-9.843-9.885-9.843-5.45 0-9.884 4.415-9.884 9.843S6.457 52.2 11.907 52.2c5.451 0 9.885-4.415 9.885-9.843z" fill="#5DD8E4"/><path d="M11.8 43.25h.107c.429 0 .838.207 1.094.554.248.339.318.774.192 1.19a1.353 1.353 0 0 1-.966.891 1.187 1.187 0 0 1-.314.034c-.583 0-1.1-.37-1.287-.918a.872.872 0 0 0-.84-.586.903.903 0 0 0-.73.372c-.172.24-.35.517-.267.766.284.88 1.179 1.654 1.89 2l.038.02v1.001c0 .471.665.89 1.19.89.523 0 1.188-.42 1.188-.89v-1.002l.041-.019c.626-.28 1.458-.951 1.808-1.762.381-.9.259-2.059-.33-3.102-.485-.84-1.536-1.406-2.613-1.406h-.094c-.525 0-.904-.173-1.128-.514a1.237 1.237 0 0 1-.107-1.223 1.3 1.3 0 0 1 .943-.748c.095-.02.188-.02.278-.02a1.36 1.36 0 0 1 1.293.924.883.883 0 0 0 .834.598.912.912 0 0 0 .737-.374c.143-.204.36-.512.273-.77-.321-.954-1.31-1.708-1.895-1.982l-.04-.019v-1.021c0-.468-.665-.883-1.189-.883s-1.19.415-1.19.883v1.022l-.04.018c-.637.28-1.477.96-1.82 1.798-.383.945-.229 2.038.435 3.076.479.752 1.416 1.202 2.509 1.202zM1.257 24.017h6.25a.902.902 0 0 0 .903-.9c0-.497-.405-.9-.904-.9h-6.25a.902.902 0 0 0-.903.9c0 .498.405.9.904.9zm37.471-.9c0 .498.405.9.904.9h6.25a.902.902 0 0 0 .903-.9c0-.497-.405-.9-.904-.9h-6.25a.902.902 0 0 0-.903.9zM7.153 6.771a.897.897 0 0 0 0 1.273l4.419 4.4a.903.903 0 0 0 .639.263.903.903 0 0 0 .64-.264.897.897 0 0 0 0-1.272l-4.42-4.4a.907.907 0 0 0-1.278 0zM22.666.9v6.223c0 .497.404.9.903.9a.902.902 0 0 0 .904-.9V.9c0-.497-.405-.9-.904-.9a.902.902 0 0 0-.903.9zm17.319 5.871a.906.906 0 0 0-1.278 0l-4.419 4.4a.897.897 0 0 0 0 1.272.903.903 0 0 0 .64.264.903.903 0 0 0 .639-.264l4.419-4.4a.897.897 0 0 0-.001-1.272z" fill="#5DD8E4"/></svg>