<svg width="45" height="40" viewBox="0 0 45 40" fill="none" xmlns="http://www.w3.org/2000/svg"><path d="M.028 14.539c.034.566.525.998 1.096.964a1.03 1.03 0 0 0 .972-1.088 11.788 11.788 0 0 1 3.326-8.984 11.267 11.267 0 0 1 8.09-3.38c2.302 0 5.08 1.503 8.022 4.344.451.44 1.174.44 1.625 0a13.015 13.015 0 0 1 9.01-3.862h.078a9.693 9.693 0 0 1 6.998 2.898 11.85 11.85 0 0 1 0 16.482L22.62 37.81a.463.463 0 0 1-.647 0l-11.38-10.897a1.042 1.042 0 0 0-1.463.026 1.02 1.02 0 0 0 .026 1.45l11.38 10.898a2.54 2.54 0 0 0 3.522 0l16.686-15.923a13.883 13.883 0 0 0 0-19.37A11.73 11.73 0 0 0 32.283.478a14.937 14.937 0 0 0-9.942 3.846C19.191 1.446 16.222 0 13.512 0a13.329 13.329 0 0 0-9.569 4.005A13.83 13.83 0 0 0 .028 14.54z" fill="#5DD8E4"/><path d="M7.005 22.764c.364-.006.698-.2.88-.513l1.686-2.713 2.291 3.621a1.037 1.037 0 0 0 1.841-.174l3.01-7.693L19.492 26.2c.105.414.457.72.885.77h.119c.384 0 .737-.212.915-.55l3.45-6.553 1.32 2.333c.185.319.528.514.9.513h4.804a1.03 1.03 0 0 0 1.035-1.026 1.03 1.03 0 0 0-1.035-1.026h-4.19l-1.96-3.466a1.036 1.036 0 0 0-.9-.513 1.035 1.035 0 0 0-.941.595l-3.103 5.851-2.86-11.415a1.032 1.032 0 0 0-.94-.769 1.035 1.035 0 0 0-1.026.65l-3.45 8.77-2.07-3.287a1.037 1.037 0 0 0-.873-.482c-.364.006-.698.2-.88.513l-2.26 3.63H2.764a1.03 1.03 0 0 0-1.035 1.026 1.03 1.03 0 0 0 1.035 1.026l4.241-.026z" fill="#5DD8E4"/></svg>