<svg width="46" height="46" viewBox="0 0 46 46" fill="none" xmlns="http://www.w3.org/2000/svg"><path d="M28.75 16.92c-.105 0-.21 0-.314-.053-1.881-.635-4.286-1.005-6.743-1.005-2.457 0-4.861.37-6.743 1.005-.523.211-1.15-.106-1.307-.635-.209-.528.105-1.163.627-1.322 2.091-.74 4.653-1.11 7.37-1.11 2.719 0 5.28.37 7.371 1.11.523.212.837.793.628 1.322-.053.423-.47.688-.89.688zM5.854 18.453c-.104 0-.156 0-.26-.053-1.726-.476-3.503-1.428-5.071-2.75-.419-.37-.523-1.057-.157-1.48a1.012 1.012 0 0 1 1.463-.159c1.36 1.11 2.875 1.957 4.287 2.38.575.158.888.74.732 1.269-.105.476-.575.793-.994.793z" fill="#5DD8E4"/><path d="M34.5 46h-6.796c-.418 0-.836-.264-.993-.687l-.68-1.851a23.666 23.666 0 0 1-4.338.423c-2.3 0-4.548-.317-6.69-1.005l-.942 2.433a1.023 1.023 0 0 1-.993.687H6.273c-.523 0-.994-.423-1.046-.952l-.94-9.781c-1.778-2.644-2.719-5.658-2.719-8.777 0-7.297 5.332-13.906 13.277-16.338.575-.159 1.15.158 1.307.687.157.582-.157 1.163-.68 1.322C8.417 14.38 3.66 20.145 3.66 26.49c0 2.749.889 5.446 2.51 7.772.104.159.156.317.208.529l.837 9.094h5.122l1.046-2.697c.209-.528.784-.793 1.307-.581 2.195.793 4.547 1.163 6.952 1.163 1.62 0 3.24-.159 4.757-.529.522-.105 1.045.159 1.202.635l.732 2.009h5.175l.836-6.186c.052-.264.157-.476.366-.635 2.143-1.903 3.66-4.23 4.443-6.767.105-.37.418-.635.784-.74l3.45-.794v-4.97H40.25a1.01 1.01 0 0 1-.993-.793c-.732-2.697-2.352-5.182-4.652-7.19-.366-.318-.471-.847-.262-1.323l2.196-4.124c-1.464-.158-3.973-.053-5.855 2.062-.314.317-.784.423-1.15.265a20.866 20.866 0 0 0-5.75-1.428c-.575-.053-.993-.582-.94-1.163a1.058 1.058 0 0 1 1.15-.952c1.933.212 3.867.635 5.645 1.322 3.71-3.543 8.625-1.956 8.834-1.85a.948.948 0 0 1 .627.634c.105.317.105.634-.052.899l-2.457 4.653c2.09 1.956 3.607 4.335 4.443 6.873h3.398c.575 0 1.045.476 1.045 1.058v6.873c0 .476-.366.899-.836 1.058l-3.66.846c-.888 2.537-2.456 4.917-4.547 6.873l-.889 6.715c-.104.529-.522.899-1.045.899z" fill="#5DD8E4"/><path fill-rule="evenodd" clip-rule="evenodd" d="M29.273 23.264c0 1.745 1.411 3.173 3.136 3.173s3.136-1.428 3.136-3.173c0-1.744-1.41-3.172-3.136-3.172-1.725 0-3.136 1.428-3.136 3.172zm2.09 0c0-.581.471-1.057 1.046-1.057.575 0 1.046.476 1.046 1.057 0 .582-.47 1.058-1.046 1.058a1.055 1.055 0 0 1-1.045-1.058z" fill="#5DD8E4"/><path d="M17.25 16.232c-.21 0-.366-.053-.575-.159a5.56 5.56 0 0 1-2.614-4.705c.053-3.067 2.51-5.552 5.541-5.552 3.032 0 5.489 2.485 5.489 5.552 0 1.48-.575 2.855-1.62 3.912a1.003 1.003 0 0 1-1.464 0 1.03 1.03 0 0 1 0-1.48A3.507 3.507 0 0 0 23 11.368c0-1.904-1.516-3.437-3.398-3.437-1.882 0-3.398 1.533-3.398 3.437 0 1.216.628 2.273 1.62 2.908.471.317.628.951.315 1.48-.21.317-.523.476-.89.476z" fill="#5DD8E4"/><path d="M23.836 11.05c-.522 0-.94-.37-1.045-.898-.052-.582.314-1.11.889-1.163 1.672-.212 2.98-1.692 2.98-3.384 0-1.904-1.517-3.437-3.399-3.437-1.881 0-3.397 1.48-3.397 3.384 0 .37.052.687.156 1.057.157.582-.104 1.163-.68 1.322-.522.159-1.15-.106-1.306-.687a6.022 6.022 0 0 1-.261-1.692C17.773 2.485 20.23 0 23.26 0c3.032 0 5.489 2.485 5.489 5.552 0 2.802-2.039 5.129-4.757 5.499h-.157z" fill="#5DD8E4"/></svg>