<svg width="55" height="45" viewBox="0 0 55 45" fill="none" xmlns="http://www.w3.org/2000/svg"><path fill-rule="evenodd" clip-rule="evenodd" d="M28.043 12.573C30.932 5.358 39.058 1.871 46.2 4.785c6.881 2.787 10.404 10.527 8.02 17.622l-1.309 3.263v.053a.833.833 0 0 1-1.087.47.848.848 0 0 1-.465-1.099v-.04c.645-1.766-.223-3.73-1.955-4.423-1.731-.694-3.694.136-4.422 1.869a.837.837 0 0 1-.457.477.823.823 0 0 1-.656-.007.836.836 0 0 1-.47-.466.848.848 0 0 1 .012-.666 3.489 3.489 0 0 0-1.244-4.123l-4.872 9.172a.831.831 0 0 1-.262.292V44.1c0 .442-.355.8-.792.8H5.376a.797.797 0 0 1-.793-.8V22.97a.797.797 0 0 1 .76-.774h9.92v-3.31c0-.441.354-.8.792-.8h9.48a.796.796 0 0 1 .786.774v3.31h9.92c.438 0 .792.358.792.8v.854l3.562-6.684a3.38 3.38 0 0 0-3.581 2.124.837.837 0 0 1-.447.464.824.824 0 0 1-.64.006.85.85 0 0 1-.465-1.099 3.498 3.498 0 0 0-.434-3.488 3.413 3.413 0 0 0-3.227-1.312 3.44 3.44 0 0 0-2.703 2.213.83.83 0 0 1-1.012.533.841.841 0 0 1-.586-.99l.497-2.845a.793.793 0 0 1 .046-.173zm-3.3 7.108h-7.896v2.124h7.896v-2.124zm3.484 4.083v6.545h-.177a5.419 5.419 0 0 0-.858.073v-6.618h1.035zM24.12 35.8c0 2.193 1.76 3.971 3.929 3.971 2.17 0 3.928-1.778 3.928-3.97 0-2.194-1.758-3.971-3.928-3.971s-3.929 1.777-3.929 3.97zm1.493-12.037v7.12a5.532 5.532 0 0 0-3.064 4.964 5.532 5.532 0 0 0 3.064 4.963v2.515h-9.638V23.764h9.638zm-13.828 0h-5.65v19.535h5.65V23.764zm1.551 19.535V23.764h1.068v19.535h-1.068zm13.835-1.985v1.985l1.035.027v-1.94h-.177a5.407 5.407 0 0 1-.858-.072zm8.257 1.985h-5.624v-2.223c2.224-.76 3.721-2.869 3.721-5.242 0-2.372-1.497-4.481-3.721-5.24v-6.83h5.644l-.02 19.535zM49.42 18.804a5.1 5.1 0 0 1 3.313 2.709l.027-.02c1.905-6.292-1.377-12.993-7.483-15.276-6.105-2.284-12.913.643-15.52 6.673a5.053 5.053 0 0 1 4.171-.435 5.122 5.122 0 0 1 3.085 2.87c.138.335.24.683.307 1.04a5.036 5.036 0 0 1 4.824-.56 5.123 5.123 0 0 1 3.086 3.789 5.044 5.044 0 0 1 4.19-.79zm-35.827-9.38c0 2.408-1.932 4.36-4.315 4.36-2.382-.003-4.311-1.954-4.315-4.36 0-2.409 1.932-4.361 4.315-4.361 2.383 0 4.315 1.952 4.315 4.36zm-1.696-.027c0-1.462-1.172-2.647-2.619-2.647-1.446 0-2.619 1.185-2.619 2.647 0 1.462 1.173 2.647 2.619 2.647 1.447 0 2.62-1.185 2.62-2.647z" fill="#5DD8E4"/><path d="M9.278 4.566c.46 0 .832-.376.832-.84V.946a.84.84 0 0 0-.835-.843.84.84 0 0 0-.835.843v2.78a.84.84 0 0 0 .838.84zM8.44 15.121v2.78a.84.84 0 0 0 .835.843.84.84 0 0 0 .835-.843v-2.78a.84.84 0 0 0-.835-.843.84.84 0 0 0-.835.843zM4.472 9.424a.836.836 0 0 0-.838-.821H.884a.84.84 0 0 0-.835.844.84.84 0 0 0 .835.843h2.75a.827.827 0 0 0 .602-.253.845.845 0 0 0 .236-.613zm9.612-.001c0 .465.372.84.832.84h2.763a.838.838 0 0 0 .704-.83.838.838 0 0 0-.704-.83h-2.75a.836.836 0 0 0-.845.82zm-.818-3.189c.22 0 .432-.088.589-.245l1.964-1.985a.848.848 0 0 0 .216-.814.838.838 0 0 0-.59-.595.827.827 0 0 0-.804.218l-1.965 1.985a.854.854 0 0 0-.178.919.838.838 0 0 0 .768.523v-.006zm-7.373 6.624a.827.827 0 0 0-1.179 0L2.75 14.843a.845.845 0 0 0 .346 1.473.827.827 0 0 0 .833-.301l1.964-1.986a.847.847 0 0 0 0-1.17zM4.701 5.956a.827.827 0 0 0 1.179 0 .849.849 0 0 0 0-1.191L3.916 2.779a.827.827 0 0 0-1.179 0 .849.849 0 0 0 0 1.192l1.964 1.985zm7.975 6.902a.845.845 0 0 0 0 1.191l1.964 1.986a.827.827 0 0 0 1.18 0 .848.848 0 0 0 0-1.192l-1.965-1.985a.827.827 0 0 0-1.179 0z" fill="#5DD8E4"/><path fill-rule="evenodd" clip-rule="evenodd" d="M39.495 31.176h8.787a.831.831 0 0 1 .764.476.848.848 0 0 1-.11.9l-4.13 5.083v4.936c1.99.093 3.49.331 3.49.755 0 .423-1.965.767-4.414.767s-4.413-.39-4.413-.767 1.591-.695 3.673-.755v-4.93l-4.302-5.076a.847.847 0 0 1-.121-.91.83.83 0 0 1 .776-.48zm1.82 1.687l2.672 3.157 2.566-3.157h-5.237z" fill="#5DD8E4"/></svg>