<svg xmlns="http://www.w3.org/2000/svg" viewBox="0 0 122.78 94.11"><defs><style>.cls-1{fill:#fff}</style></defs><title>invite_icon_checkwhite</title><g id="Layer_2" data-name="Layer 2"><path class="cls-1" d="M122.78 18.38a7.33 7.33 0 0 1-2.22 5.39L63.21 81.11 52.44 91.89a7.65 7.65 0 0 1-10.77 0L30.89 81.11 2.22 52.44a7.65 7.65 0 0 1 0-10.77L13 30.89a7.33 7.33 0 0 1 5.39-2.22 7.33 7.33 0 0 1 5.39 2.22l23.27 23.37 52-52a7.65 7.65 0 0 1 10.77 0L120.56 13a7.33 7.33 0 0 1 2.22 5.38z" id="Layer_1-2" data-name="Layer 1"/></g></svg>