<svg width="456" height="256" viewBox="0 0 456 256" fill="none" xmlns="http://www.w3.org/2000/svg"><path d="M238 185h12.666L257 172h-12.666L238 185z" fill="#616D7D"/><path d="M239 185h12.667L258 172h-12.667L239 185z" fill="#7590A2"/><path d="M235.894 184h23.212c.493 0 .894.448.894 1 0 .553-.401 1-.894 1h-23.212c-.493 0-.894-.447-.894-1 0-.552.401-1 .894-1z" fill="#758798"/><path d="M265.587 176c2.166 0 3.68-1.768 3.374-3.942l-5.091-36.116c-.306-2.174-2.318-3.942-4.485-3.942h-27.972c-2.166 0-3.68 1.768-3.374 3.942l5.091 36.116c.306 2.174 2.318 3.942 4.484 3.942h27.973z" fill="#616D7D"/><path d="M266.587 176c2.167 0 3.68-1.768 3.374-3.942l-5.09-36.116c-.307-2.174-2.319-3.942-4.485-3.942h-27.973c-2.166 0-3.68 1.768-3.374 3.942l5.091 36.116c.306 2.174 2.318 3.942 4.484 3.942h27.973z" fill="#758798"/><path d="M266.987 176c1.28 0 2.171-1.07 1.99-2.39l-4.827-35.22c-.181-1.32-1.366-2.39-2.646-2.39h-28.491c-1.28 0-2.171 1.07-1.99 2.39l4.827 35.22c.181 1.32 1.366 2.39 2.646 2.39h28.491z" fill="#F7F6F0"/><path d="M261.388 143h-28.182c-.387 0-.745-.291-.799-.65l-.4-2.7c-.054-.359.218-.65.605-.65h28.182c.387 0 .745.291.798.65l.401 2.7c.054.359-.218.65-.605.65zm4.957 30h-27.404c-.415 0-.798-.31-.855-.693l-4.079-26.614c-.057-.383.234-.693.649-.693h27.403c.415 0 .798.31.855.693l4.079 26.614c.057.383-.234.693-.648.693z" fill="#11182F"/><path d="M127 185h-12.666L108 172h12.666L127 185z" fill="#616D7D"/><path d="M126 185h-12.667L107 172h12.667L126 185z" fill="#7590A2"/><path d="M126.106 184h-23.212c-.493 0-.894.448-.894 1 0 .553.401 1 .894 1h23.212c.493 0 .894-.447.894-1 0-.552-.401-1-.894-1z" fill="#758798"/><path d="M91.394 176c-2.154 0-3.66-1.768-3.355-3.942l5.063-36.116c.304-2.174 2.305-3.942 4.46-3.942h46.044c2.154 0 3.659 1.768 3.355 3.942l-5.063 36.116c-.304 2.174-2.305 3.942-4.459 3.942H91.394z" fill="#616D7D"/><path d="M89.394 176c-2.154 0-3.66-1.768-3.355-3.942l5.062-36.116c.305-2.174 2.306-3.942 4.46-3.942h46.045c2.154 0 3.659 1.768 3.355 3.942l-5.063 36.116c-.304 2.174-2.305 3.942-4.46 3.942H89.394z" fill="#758798"/><path d="M89.99 176c-1.265 0-2.146-1.07-1.967-2.39l4.77-35.22c.18-1.32 1.35-2.39 2.615-2.39h46.603c1.264 0 2.145 1.07 1.966 2.39l-4.771 35.22c-.178 1.32-1.349 2.39-2.614 2.39H89.989z" fill="#F7F6F0"/><path d="M140.705 143H93.739c-.471 0-.798-.394-.73-.882l.311-2.236c.068-.487.505-.882.975-.882h46.966c.471 0 .798.395.73.882l-.311 2.236c-.068.488-.505.882-.975.882zm-50.907 30c-.509 0-.862-.42-.788-.939l3.839-26.122c.073-.519.544-.939 1.053-.939h46.3c.509 0 .862.42.788.939l-3.838 26.122c-.074.519-.545.939-1.054.939h-46.3z" fill="#11182F"/><path fill-rule="evenodd" clip-rule="evenodd" d="M95.29 164H91l.71-5H96l-.71 5z" fill="#66BCD5"/><path d="M91.104 165L91 166h5.896l.104-1h-5.896z" fill="#F7F6F0"/><path d="M192 185h-10.743L181 172h10.743l.257 13z" fill="#616D7D"/><path d="M192 185h-10.743L181 172h10.743l.257 13z" fill="#7590A2"/><path d="M199.105 184h-23.211c-.494 0-.894.448-.894 1 0 .553.4 1 .894 1h23.211c.494 0 .895-.447.895-1 0-.552-.401-1-.895-1z" fill="#758798"/><path d="M159.922 175c-2.166 0-3.926-1.728-3.922-3.852l.066-35.296c.004-2.124 1.77-3.852 3.937-3.852h56.075c2.166 0 3.926 1.728 3.922 3.852l-.066 35.296c-.004 2.124-1.77 3.852-3.936 3.852h-56.076z" fill="#616D7D"/><path d="M158.922 175c-2.166 0-3.926-1.728-3.922-3.852l.066-35.296c.004-2.124 1.77-3.852 3.937-3.852h56.075c2.166 0 3.926 1.728 3.922 3.852l-.066 35.296c-.004 2.124-1.77 3.852-3.936 3.852h-56.076z" fill="#758798"/><path d="M159.283 175c-1.263 0-2.285-1.043-2.283-2.331l.062-34.338c.002-1.288 1.028-2.331 2.291-2.331h56.364c1.263 0 2.285 1.043 2.283 2.331l-.061 34.338c-.003 1.288-1.029 2.331-2.292 2.331h-56.364z" fill="#F7F6F0"/><path d="M215.085 144h-54.171c-.505 0-.914-.424-.914-.946v-2.108c0-.522.409-.946.914-.946h54.171c.506 0 .915.424.915.946v2.108c0 .522-.409.946-.915.946zm-.929 29h-53.312c-.467 0-.844-.451-.844-1.008v-24.984c0-.557.377-1.008.844-1.008h53.312c.467 0 .844.451.844 1.008v24.984c0 .557-.377 1.008-.844 1.008z" fill="#11182F"/><path d="M77 155.608c1.129 5.651 2.804 11.147 4.992 16.333.593 1.405 1.444 2.966 2.754 3.055 1.514.103 2.773-1.741 3.027-3.534.696-4.912-.33-12.789-1.45-19.462L77 155.608z" fill="#F4A086"/><path fill-rule="evenodd" clip-rule="evenodd" d="M87.54 150.606c-.776-3.971-1.984-14.134-6.927-14.584-5.783-.528-5.892 8.627-5.459 12.605A77.46 77.46 0 0 0 76.539 157L88 153.009c-.15-.804-.305-1.606-.46-2.403z" fill="#D97B6B"/><path d="M103.141 149.816c.922-.563 2.072-1.137 3.012-.605 1.386.785.829 2.928.04 4.329a60.173 60.173 0 0 1-16.559 18.77c-3.725 2.76-5.482 2.182-7.448-2.047-2.166-4.658 15.21-16.934 20.955-20.447z" fill="#F7B690"/><path d="M104.534 146.62c2.294-1.688 5.496-1.678 8.423-1.589.16.342-.155.729-.521.885-.366.156-.785.175-1.152.327-.965.401-1.244 1.546-1.231 2.526.011.979.172 2.03-.357 2.879-.538.864-1.671 1.272-2.746 1.344-1.307.086-4.566-.502-4.912-2.004-.318-1.384 1.425-3.579 2.496-4.368z" fill="#F7B690"/><path d="M107.007 154a4.903 4.903 0 0 1-2.853-.928c-.149-.108-.198-.342-.11-.523.089-.181.281-.24.431-.134 1.322.949 3.022 1.088 4.438.365.236-.121.479-.334.455-.515-.031-.235-.485-.33-.729-.382-1.501-.317-2.816-1.64-3.348-3.369-.061-.198.022-.417.185-.491.162-.071.344.027.405.225.456 1.48 1.58 2.612 2.866 2.884.399.084 1.142.24 1.243 1.014.071.533-.24 1.034-.832 1.336a4.73 4.73 0 0 1-2.151.518z" fill="#F4A086"/><path d="M69.828 167.172c-1.388-3.224-16.043.663-18.52 6.051-1.62 1.078-2.967 2.768-3.612 4.476-1.072 2.843-.693 5.673-.265 8.355a299.891 299.891 0 0 0 5.93 28.348c.178.684.37 1.387.858 1.876 1.243 1.25 3.305.726 5.1-.427.123.058.248.11.38.149 1.16.348 4.929-1.854 5.754-2.738.825-.883 5.492-43.496 4.375-46.09z" fill="#A0B5BF"/><path d="M54 252.877c1.692.255 3.51.112 5.273-.415l.7-6.082c.03-.256.057-.524-.044-.741-.148-.318-.53-.442-.893-.507-1.374-.248-3.517-.325-3.868 1.434-.42 2.102-.777 4.208-1.168 6.311z" fill="#F4A086"/><path d="M65.96 206.594c-1.074-3.543-5.359-5.972-9.15.175-5.783 9.375-.573 26.91-2.218 38.231h5.398c.454-1.096 6.565-36.44 5.97-38.406zm-26.897-27.915c1.404 1.146 3.26 1.321 5.001 1.321 14.334 0 22.628-4.83 20.645-11.651-2.036-7.008-14.863-5.877-21.563-3.619-1.444.487-3.549.959-4.535 2.356-1.43 2.025-2.959 8.809.452 11.593z" fill="#A0B5BF"/><path d="M36.717 173.212c2.104-9.732 19.855-7.325 21.908 2.335 1.057 4.974-.282 10.129-1.986 14.928a98.84 98.84 0 0 1-4.933 11.521c-1.695 3.356-3.675 7.75-5.742 10.897-.23.349-9.024-.118-9.346-1.966a107.854 107.854 0 0 1-1.494-13.924c-.33-7.802-.068-16.114 1.593-23.791zm33.278 81.85c.077-.944-.743-1.727-1.588-1.948-.844-.22-1.727-.052-2.596-.064-2.476-.031-4.882-1.654-6.017-4.059-.156-.331-.308-.696-.605-.878-.395-.243-.907-.063-1.258.252-.35.315-.597.744-.918 1.095a2.954 2.954 0 0 1-2.203.964c-.68-.011-1.44-.578-2.093-.203-.575.33-.73 1.202-.877 1.824-.25 1.071-.479 2.149-.719 3.223A4.882 4.882 0 0 0 51 256h4.718c.22-.338.4-1.321.493-1.728.016.418.166 1.407.409 1.728h12.968c.222-.263.378-.582.407-.938z" fill="#A0B5BF"/><path d="M20 250.487c1.7.856 3.63 1.378 5.6 1.513l2.246-5.563c.095-.235.19-.481.14-.725-.074-.358-.442-.614-.804-.808-1.37-.735-3.585-1.586-4.39-.03-.962 1.859-1.86 3.744-2.792 5.613z" fill="#F4A086"/><path d="M46 211.76c.068-3.86-3.97-8.584-9.339-3.626-8.643 7.984-11.856 23.883-15.661 35.627L26.475 246c.819-.87 19.486-32.095 19.524-34.24zm-21.24 43.528c.345-.771.285-1.555.028-1.876-.259-.319-.247-1.85-.159-4.059.04-1.011-1.609-1.984-3.09-.831-.481.374-.872.584-1.185.441-.263-.12-.372-.715-.753-.51-.336.181-.688.88-.953 1.372-.456.848-.904 1.705-1.357 2.558a8.26 8.26 0 0 0-.291.587l7.288 3.03c.174-.182.342-.422.472-.712z" fill="#A0B5BF"/><path fill-rule="evenodd" clip-rule="evenodd" d="M70.204 175.349c-.252-12.23 4.816-20.693 10.998-26.887 2.414-2.421 5.342-5.254 4.711-8.605-.536-2.846-3.434-4.544-6.091-5.73-4.593-2.051-9.347-3.637-14.207-4.932-2.91-.775-10.383-4.885-13.409-4.095-8.15 2.126-6.916 17.057-9.168 23.841-1.808 5.451-6.092 22.547-6.037 22.947L69.225 182c1.782-1.217 1.036-3.885.979-6.651z" fill="#EB8674"/><path d="M74.851 125.05c-1.364-3.738-4.936-5.367-6.892-4.999-.71 6.239-.828 6.615-3.895 9.397-.905 3.331 8.04 6.559 9.445 5.256.014-.51 2.048-7.722 1.342-9.654z" fill="#F4A086"/><path fill-rule="evenodd" clip-rule="evenodd" d="M80.954 116.323c.558.601 1.094 1.309 1.043 2.093-.039.6-.418 1.133-.786 1.636L79.786 122c-.463-.898-.51-1.917-.626-2.902-.115-.985-.334-2.017-1.053-2.766-.446-.463-1.106-.875-1.107-1.489-.002-.882 1.08-1.066 1.691-.579.805.64 1.573 1.315 2.263 2.059z" fill="#222B56"/><path d="M71.667 115.715c2.392-2.723 7.125-2.141 8.771 1.306 1.508 3.156-.345 9.732-1.73 11.082-2.422 2.362-7.401-.484-8.068-2.3-.975-2.659-.986-7.799 1.027-10.088z" fill="#F7B690"/><path fill-rule="evenodd" clip-rule="evenodd" d="M72.99 117.175c.153.487-1.414 6.901-1.631 6.824-.776-.273-1.728-2.095-3.206-2.049-.472.014-1.128.252-1.128-.512-.003-4.837-.244-4.594.833-5.022 2.373-.941 4.857-.11 5.131.759z" fill="#222B56"/><path d="M67.023 121.63c-.11.924.174 1.885.773 2.617 1.712 2.094 3.527-.662 3.155-2.405-.444-2.079-3.629-2.723-3.928-.212z" fill="#F7B690"/><path fill-rule="evenodd" clip-rule="evenodd" d="M77.514 118.923c-.116.479-.361 1.007-.79 1.076-.446.073-4.521-3.851-4.78-3.887-.26-.035.037 2.004-.25 2.224-.246.187-.572.045-.846-.084-1.201-.571-2.523-.519-3.821-.454-.082-.436.034-1.215.23-1.6.197-.383.478-.7.769-.994 1.29-1.301 2.93-2.269 4.644-2.201 1.021.041 2.023.378 2.963.838 3.621 1.769 2.057 4.352 1.88 5.082z" fill="#222B56"/><path d="M56 146l-11 1.054c-.007 5.019.368 10.04 1.063 14.946l9.187-.946c.086-4.993.346-9.956.75-15.054z" fill="#F7B690"/><path fill-rule="evenodd" clip-rule="evenodd" d="M56.518 138.353c.444-4.331 3.592-10.701-.917-12.765-4.159-1.904-8.025 1.07-8.867 5.273-1.18 5.894-1.726 12.014-1.734 18.139l11.623-.512c.24-3.131-.44-6.861-.105-10.135z" fill="#EB8674"/><path d="M55.905 158L46 160.915c.533.999 10.205 15.565 15.075 20.727.813.861 2.139 1.782 3.178 1.148.859-.524.907-1.727.498-2.582-3.637-7.593-6.52-15.067-8.846-22.208z" fill="#F7B690"/><path fill-rule="evenodd" clip-rule="evenodd" d="M67.026 117.724c-.444.042-.854.375-1.012.824-.103-1.145.38-2.332 1.233-3.027-.538.077-.948-.627-.832-1.198.116-.571.569-.987 1.024-1.304 1.497-1.045 3.337-1.506 5.108-1.281l.1-.738a5.456 5.456 0 0 1 2.829 1.736l.098-.65 2.335 1.527c-.136-.128-.044-.42.136-.433 1.661 1.403 2.755 3.558 2.955 5.82a9.297 9.297 0 0 0-3.457-2.699c-1.986-.885-4.239-1.012-6.123-2.127.26 1.143-.808 2.382-1.887 2.188l.554-.606-3.06 1.968z" fill="#222B56"/><path d="M65.957 180.055c.803.19 1.424.829 1.998 1.439l2.494 2.654c.334.356.695.847.493 1.296-.182.405-.745.482-1.126.272-.381-.209-.621-.608-.845-.991-.081.719-.76 1.31-1.46 1.273-.323-.364-.648-.729-.971-1.095-.621.794-1.78.771-2.764.677-1.602-.153-3.585-.684-2.432-2.598.84-1.393 2.883-3.334 4.613-2.927z" fill="#F7B690"/><path d="M69.84 256l-1.84-.171L74.16 189l1.84.171L69.84 256zm186.32 0L250 189.171l1.84-.171 6.16 66.829-1.84.171z" fill="#D0D9DF"/><path d="M17.682 165l.003.032c.123-.019.248-.032.376-.032 1.294 0 2.376.991 2.498 2.289l4.255 45.03a1.776 1.776 0 0 0 1.77 1.625H53.49a2.52 2.52 0 0 1 2.51 2.528A2.52 2.52 0 0 1 53.49 219H26.584a6.764 6.764 0 0 1-5.16-2.4c-1.48.111-7.213.606-7.213.606l-5.874-1.883L3 165h14.682z" fill="#6370C7"/><path d="M10.91 213.944a1.763 1.763 0 0 1-1.75-1.625l-4.207-45.03C4.832 165.991 3.762 165 2.482 165c-1.463 0-2.61 1.283-2.47 2.767l4.205 45.024C4.54 216.31 7.44 219 10.91 219h26.607c1.37 0 2.482-1.132 2.482-2.528 0-1.396-1.111-2.528-2.482-2.528H10.91z" fill="#828FEB"/><path d="M25 218h4v38h-4v-38z" fill="#9797C2"/><path d="M13 255c0-2.21 1.759-4 3.928-4h20.144c2.17 0 3.928 1.79 3.928 4H13zm16.743-33h-3.486c-1.19 0-2.298-.662-2.941-1.759L22 218h12l-1.316 2.241c-.643 1.097-1.751 1.759-2.941 1.759z" fill="#4B4B6D"/><path d="M63.354 182.357c-1.941-.945-13.068-2.554-15.035-3.44-2.71-1.223-4.764-4.517-6.096-7.248-.735-1.509-1.321-3.089-1.907-4.669L32 171.546a50.827 50.827 0 0 0 3.757 5.73c2.114 2.79 4.564 5.391 7.585 7.062 3.15 1.74 16.186 1.951 19.713 1.375 2.842-.61 2.24-2.408.299-3.356z" fill="#F4A086"/><path d="M32.602 158.652c-2.093-1.182-6.384-.931-6.592 2.214-.122 1.851.896 3.873 1.571 5.537a49.85 49.85 0 0 0 2.582 5.411c.035.063.072.124.107.186l8.73-3.8c-1.918-2.523-3.715-8.031-6.398-9.548z" fill="#858BED"/><path d="M68.85 182.017c.644.811 1.13 1.906 1.15 3.081.019 1.175-.706 3.532-1.365 2.744-.545-.65-.682-1.737-1.415-1.708-.734.03-1.39.566-2.073.924-2.013 1.059-8.108-.377-5.515-4.596 1.987-3.231 7.05-3.179 9.219-.445zm17.798 68.52c.474.701 1.108 1.482 1.96 1.463 1.474-.035 1.581-2.102 1.213-3.495L88.627 244 84 245.33c.505 1.888 1.75 3.883 2.648 5.207z" fill="#F4A086"/><path fill-rule="evenodd" clip-rule="evenodd" d="M75.43 206.47c-3.696-4.154-26.796-9.317-37.66-12.699-8.113-2.525-16.46-3.945-17.697 7.205-.532 4.809 1.873 9.75 5.922 12.28 4.41 2.756 9.954 2.498 15.118 2.15l25.728-1.734c.942 13.112 11.892 17.806 16.794 32.328L91 244.473c-4.466-6.838-13.735-35.609-15.57-38.003z" fill="#0A3C5F"/><path d="M35.562 242.695c-.42.834-.829 1.861-.339 2.653.846 1.368 2.912.327 4.061-.79L43 240.947 37.993 238c-.825 1.557-1.64 3.12-2.431 4.695z" fill="#F7B690"/><path fill-rule="evenodd" clip-rule="evenodd" d="M17.015 213.601c4.425 2.801 9.987 2.539 15.169 2.185l30.687-2.094c1.633-.112 3.465-.325 4.484-1.645 1.189-1.543.613-3.952-.74-5.342-1.355-1.39-3.26-2.013-5.088-2.589-10.899-3.439-21.798-6.879-32.698-10.316-8.14-2.567-16.516-4.009-17.755 7.321-.535 4.888 1.879 9.909 5.941 12.48z" fill="#0A3C5F"/><path fill-rule="evenodd" clip-rule="evenodd" d="M67.956 207.908c-2.221-6.85-16.072 6.671-18.49 10.31A217.78 217.78 0 0 0 38 237.59l5.408 4.41c3.546-7.12 10.62-13.129 16.405-18.815 1.902-1.868 3.842-3.79 5.004-6.216 1.16-2.427 3.535-7.839 3.139-9.061z" fill="#0A3C5F"/><path d="M17.372 165.886c.523 4.118 2.023 8.111 1.96 12.265-.064 4.16-1.784 8.264-4.66 11.113-1.77 1.756-4.204 3.75-3.569 6.225.571 2.227 3.211 2.886 5.385 3.147 4.739.568 10.147.919 13.633-2.514 2.135-2.101 3.06-5.21 3.738-8.205a87.29 87.29 0 0 0 2.103-16.191c.166-4.643-.128-9.593-2.66-13.397-2.522-3.789-5.352-6.303-9.48-4.966-4.692 4.854-6.97 8.439-6.45 12.523z" fill="#979DFE"/><path fill-rule="evenodd" clip-rule="evenodd" d="M84.597 247c.285.468 1.598.688 2.14.708.427.017 2.387-.823 2.81-.685.306.099 1.442 3.945 2.854 4.76 1.412.816 2.978 1.265 4.479 1.872.524.212 1.054.452 1.477.829.421.376.718.92.626 1.396-.009.046-.03.08-.043.12h-9.235a12.66 12.66 0 0 1-.746-.934l-2.533-3.411c-.266 1.242-.496 2.698-.751 4.345h-1.032c-.33-1.324-1.24-7.625-.046-9z" fill="#222B54"/><path fill-rule="evenodd" clip-rule="evenodd" d="M32.178 247.36c.291-.898.59-1.812 1.153-2.579.55-.75 1.202-1.477 2.096-1.781.005.485.219 1.222.676 1.418.36.154 2.477.1 2.771.354.198.171-.647 3.303-.108 4.65 0 0 1.928 1.419 2.923 2.102.406.279.808.584 1.066.996.258.413.345.957.1 1.378-.023.04-.052.068-.08.102l-7.35-1.31-1.002-.383a9.195 9.195 0 0 1-.165-1.025l-.44-3.678a14.09 14.09 0 0 0-1.93 3.733l-.888-.34 1.178-3.637z" fill="#0A3C5F"/><path d="M56.354 182.124c-1.94-.965-13.068-2.083-15.035-2.985-2.71-1.245-4.764-4.601-6.095-7.383-.737-1.537-1.323-3.146-1.909-4.756L25 171.631a51.996 51.996 0 0 0 3.757 5.837c2.114 2.842 4.563 5.492 7.585 7.193 3.15 1.773 16.185 1.468 19.713.88 2.842-.621 2.24-2.453.3-3.417z" fill="#F7B690"/><path d="M32.763 163.978c-.935-2.118-2.197-4.215-4.161-5.326-2.093-1.182-6.384-.931-6.592 2.214-.122 1.851.896 3.873 1.571 5.537a49.871 49.871 0 0 0 2.582 5.411c.035.063.072.124.108.186L35 168.2c-.452-1.229-1.71-3.028-2.237-4.222z" fill="#979DFE"/><path d="M63.917 178.484c.828.439 1.58 1.19 1.905 2.205.325 1.016.246 3.368-.591 2.957-.692-.34-1.107-1.231-1.802-.9-.696.33-1.185 1.07-1.745 1.666-1.653 1.758-7.869 3.04-6.484-1.711 1.06-3.639 5.926-5.697 8.717-4.217z" fill="#F7B690"/><path d="M25.975 145.13c.431-.645 5.153 1.29 5.433 1.754.28.462.578 5.704 1.588 8.977.218.706-8.59-1.456-7.964-2.312 1.014-1.386 2.05-6.673.943-8.419z" fill="#F4A086"/><path d="M37.673 138.643c-1.432-5.962-9.56-4.705-11.49-4.11-1.93.594-1.98 3.334-2.165 5.351-.115 1.246.334 2.484 1.073 3.472.71.95 3.8 2.381 3.975 2.419 1.148 1.984 3.012 4.253 4.909 4.225.854-.013 1.63-.563 2.131-1.256.502-.694.777-1.523 1.044-2.337.83-2.527 1.145-5.177.523-7.764z" fill="#F7B690"/><path fill-rule="evenodd" clip-rule="evenodd" d="M23.44 142.822c-.71-.902-1.265-1.973-1.405-3.135-.165-1.374.27-2.778 1.005-3.927 1.314-2.052 4.707-4.701 7.448-4.759 2.928-.062 7.958 3.002 7.48 6.81-.142 1.139-.737 1.147-1.775 1.511-1.366.48-3.2.811-4.333 1.745-1.355 1.118-.752 3.815-3.527 4.691-.897.283-1.819 1.948-2.414 3.242-.708-.845-1.792-5.307-2.48-6.178z" fill="#222B56"/><path fill-rule="evenodd" clip-rule="evenodd" d="M18.658 150.595c-.262 1.147.134 2.345.07 3.523-.147 2.737-2.644 4.717-3.477 7.321-.321 1.002-.375 2.139.08 3.086.454.946 1.495 1.632 2.508 1.444 1.117-.207 1.84-1.324 2.26-2.407.419-1.081.696-2.274 1.479-3.117 1.208-1.302 3.3-1.422 4.465-2.766 1.122-1.295 1.957-4.893 1.957-7.548 0-5.12-1.6-9.791-3.996-9.054-1.43.439-1.842 3.108-2.223 4.281-.645 1.992-2.661 3.214-3.123 5.237z" fill="#222B56"/><path d="M25.434 143.246c-.193.15-.293.366-.354.58-.19.672-.04 1.407.407 1.99.447.582 1.184 1.005 1.996 1.146.322.056.679.065.96-.078.968-.491.476-2.199.011-2.862-.483-.687-2.196-1.414-3.02-.776z" fill="#F7B690"/><path d="M72.73 182.004l-16.647 1.446c-.612.052-1.083.607-1.083 1.273 0 .706.527 1.277 1.177 1.277h16.646c.65 0 1.177-.571 1.177-1.277v-1.445c0-.746-.586-1.333-1.27-1.274z" fill="#A2D1EB"/><path d="M267.096 189H57.904c-1.051 0-1.904-.895-1.904-1.999 0-1.105.853-2.001 1.904-2.001h209.192c1.051 0 1.904.896 1.904 2.001 0 1.104-.853 1.999-1.904 1.999z" fill="#62C1C5"/><path d="M285.318 165l-.003.032a2.445 2.445 0 0 0-.376-.032c-1.294 0-2.376.99-2.498 2.288l-4.254 45.031a1.777 1.777 0 0 1-1.771 1.625H249.51a2.52 2.52 0 0 0-2.51 2.528 2.52 2.52 0 0 0 2.51 2.528h26.906a6.766 6.766 0 0 0 5.161-2.4c1.479.111 7.212.606 7.212.606l5.874-1.883L300 165h-14.682z" fill="#4C8C7D"/><path d="M291.09 213.944c.913 0 1.666-.699 1.751-1.625l4.206-45.031c.121-1.298 1.191-2.288 2.471-2.288 1.463 0 2.61 1.283 2.471 2.767l-4.206 45.023c-.323 3.519-3.223 6.21-6.693 6.21h-26.608c-1.371 0-2.482-1.132-2.482-2.528 0-1.396 1.111-2.528 2.482-2.528h26.608z" fill="#72B2A2"/><path d="M273 218h4v38h-4v-38z" fill="#9797C2"/><path d="M288 255c0-2.209-1.759-4-3.928-4h-20.144c-2.169 0-3.928 1.791-3.928 4h28zm-15.743-33h3.485c1.19 0 2.299-.663 2.942-1.759L280 218h-12l1.316 2.241c.643 1.096 1.751 1.759 2.941 1.759z" fill="#4B4B6D"/><path d="M125.853 226h-19.706c-3.377 0-6.198-2.689-6.513-6.21l-3.605-40.304c-.36-4.017 2.66-7.486 6.512-7.486h26.918c3.853 0 6.871 3.469 6.512 7.486l-3.605 40.304c-.315 3.521-3.136 6.21-6.513 6.21z" fill="#F0AD82"/><path d="M114 224h4v32h-4v-32z" fill="#4B4B6D"/><path d="M102 255c0-2.209 1.759-4 3.928-4h20.144c2.169 0 3.928 1.791 3.928 4h-28zm17.652-27h-7.304L110 224h12l-2.348 4z" fill="#4B4B6D"/><path d="M172.853 226h-19.706c-3.376 0-6.198-2.689-6.512-6.21l-3.606-40.304c-.359-4.017 2.66-7.486 6.512-7.486h26.918c3.852 0 6.871 3.469 6.512 7.486l-3.606 40.304c-.314 3.521-3.136 6.21-6.512 6.21z" fill="#72B2A2"/><path d="M161 224h4v32h-4v-32z" fill="#4B4B6D"/><path d="M149 255c0-2.209 1.759-4 3.929-4h20.142c2.17 0 3.929 1.791 3.929 4h-28zm17.652-27h-7.304L157 224h12l-2.348 4z" fill="#4B4B6D"/><path d="M218.853 226h-19.706c-3.377 0-6.198-2.689-6.513-6.21l-3.605-40.304c-.359-4.017 2.659-7.486 6.512-7.486h26.918c3.853 0 6.871 3.469 6.512 7.486l-3.605 40.304c-.315 3.521-3.136 6.21-6.513 6.21z" fill="#828FEB"/><path d="M207 224h4v32h-4v-32z" fill="#4B4B6D"/><path d="M195 255c0-2.209 1.759-4 3.928-4h20.144c2.169 0 3.928 1.791 3.928 4h-28zm17.652-27h-7.304L203 224h12l-2.348 4z" fill="#4B4B6D"/><path d="M384.108 212.883c-.153 1.476-.238 3.046.416 4.366.655 1.319 2.315 2.213 3.569 1.497.707-.404 1.112-1.193 1.48-1.937 2.06-4.184 4.12-8.369 6.181-12.552 1.699-3.45 3.443-7.11 3.228-10.976-.1-1.786-.641-3.568-1.683-4.995-.91-1.246-2.888-3.23-4.248-1.773-1.355 1.451-2.286 3.983-3.143 5.779a63.056 63.056 0 0 0-5.8 20.591z" fill="#F7B690"/><path fill-rule="evenodd" clip-rule="evenodd" d="M397.98 194.136c-.107-1.968-.693-3.93-1.819-5.502-.984-1.373-1.56-4.822-3.031-3.217-1.465 1.598-4.034 5.651-4.962 7.63a69.76 69.76 0 0 0-3.168 8.038l9.6 4.915c1.802-3.734 3.609-7.689 3.38-11.864z" fill="#FDD247"/><path d="M384.671 212.423c.986-1.149 2.684-1.552 4.229-1.388 1.544.164 2.982.81 4.385 1.448 2.574 1.169 5.145 2.343 7.715 3.516l7.963 3.636c.414.189.868.423 1.002.841.143.449-.169.94-.595 1.174-.424.235-.934.273-1.424.297a43.604 43.604 0 0 1-11.872-1.052 43.767 43.767 0 0 1-5.755-1.742c-1.608-.612-3.89-1.287-5.189-2.417-1.242-1.08-1.556-3.036-.459-4.313z" fill="#F7B690"/><path fill-rule="evenodd" clip-rule="evenodd" d="M401.886 222.343c2.851-.457 16.377-.457 19.228 0 3.544.568 3.01 5.401 2.564 8.293-.487 3.156-1.084 6.544-3.201 8.749-2.067 2.153-15.887 2.153-17.955 0-2.116-2.205-2.713-5.593-3.2-8.749-.446-2.892-.98-7.725 2.564-8.293z" fill="#222B54"/><path fill-rule="evenodd" clip-rule="evenodd" d="M454.125 234.652c1.576 1.871 2.605 4.938 1.238 6.881-1.157 1.647-33.511-1.592-38.295-1.592-3.4-4.663-3.265-11.742 5.447-16.515 1.864-1.02 3.91.053 5.935.511 5.862 1.327 21.76 6.069 25.675 10.715zm-69.355-31.624c-2.37-.204-4.987.708-6.142 2.769-.943 1.685-.741 3.814.054 5.573.795 1.758 2.113 3.224 3.411 4.66 18.759 20.751 19.063 21.691 22.199 22.524 5.345 1.42 11.798-.021 7.06-12.175-.764-1.959-20.694-22.844-26.582-23.351z" fill="#222B54"/><path d="M401.257 245.918c-1.368-.715-4.081-3.872-7.257-8.031l5.977-1.887c1.955 6.21 2.715 10.668 1.28 9.918z" fill="#F7B690"/><path fill-rule="evenodd" clip-rule="evenodd" d="M380.084 202.86c3.433-1.601 6.817-1.184 9.558 3.111 3.696 5.791 8.655 19.926 11.358 29.2L394.544 238c-4.088-9.018-12.146-20.714-15.267-26.027-1.749-2.979-1.901-7.85.807-9.113z" fill="#0A3C5F"/><path d="M416.601 241l2.399 5.782c-3.584.306-6.468.357-7.684-.292-1.222-.653 1.219-2.957 5.285-5.49z" fill="#F7B690"/><path fill-rule="evenodd" clip-rule="evenodd" d="M448.554 234c4.985 0 7.446 2.299 7.446 3.919 0 2.755-1.895 5.7-6.615 5.7-6.003 0-21.043-.184-30.266.381L417 239.051c6.806-2.95 24.263-5.051 31.554-5.051zM410 244.634c.181-.104 1.557-1.966 2.455-2.295.521-.192 1.225-.495 1.783-.244.633.285.662 1.092 1.037 1.577.283.366.669.665 1.108.864l.873-1.077c3.093 1.31.636 4.609 3.738 5.966.749.328 1.566.558 2.208 1.04.642.482 1.049 1.362.622 2.014-.161.246-.417.417-.708.521l-9.991-4.449s-.06-1.854.225-2.063c-.34.126-1.134.465-1.497.47L410 244.634zm-15.998 3.412c-.033-.962.313-1.76.668-1.984.356-.223.911-1.837 1.647-4.197.337-1.08 2.214-1.383 3.151.477.304.603.586.995.927.981.287-.01.607-.589.882-.207.242.337.307 1.225.369 1.858.106 1.09.202 2.188.303 3.281.022.243.044.495.051.745h-7.827a3.251 3.251 0 0 1-.171-.954z" fill="#0A3C5F"/><path d="M438.891 212.883c.154 1.476.239 3.046-.416 4.366-.654 1.319-2.314 2.213-3.568 1.497-.707-.404-1.113-1.193-1.48-1.937l-6.182-12.552c-1.698-3.45-3.443-7.11-3.227-10.976.099-1.786.64-3.568 1.682-4.995.911-1.246 2.888-3.23 4.249-1.773 1.355 1.451 2.285 3.983 3.143 5.779a63.056 63.056 0 0 1 5.799 20.591z" fill="#F7B690"/><path fill-rule="evenodd" clip-rule="evenodd" d="M424.02 194.136c.107-1.968.692-3.93 1.819-5.502.984-1.373 1.56-4.822 3.031-3.217 1.465 1.598 4.034 5.651 4.961 7.63a69.947 69.947 0 0 1 3.169 8.038L427.4 206c-1.802-3.734-3.609-7.689-3.38-11.864z" fill="#FDD247"/><path d="M439.329 214.423c-.986-1.149-2.685-1.552-4.229-1.388-1.545.164-2.982.81-4.385 1.448a3575.35 3575.35 0 0 0-7.716 3.517l-7.963 3.635c-.413.189-.868.421-1.001.84-.143.449.169.94.594 1.174.425.235.935.273 1.425.299a43.634 43.634 0 0 0 11.871-1.054 43.736 43.736 0 0 0 5.756-1.742c1.608-.612 3.89-1.286 5.189-2.417 1.242-1.079 1.556-3.035.459-4.312z" fill="#F7B690"/><path fill-rule="evenodd" clip-rule="evenodd" d="M394.246 186.8c.98-1.159 2.455-1.791 3.901-2.308 4.246-1.521 13.986-5.5 14.353-5.492.368-.008 10.108 3.971 14.354 5.492 1.444.517 2.92 1.149 3.9 2.308 1.307 1.546 1.478 3.767 1.008 5.719-.471 1.952-1.495 3.723-2.39 5.528a44.967 44.967 0 0 0-2.767 6.992 45.55 45.55 0 0 0-1.95 13.372c.006 1.386.759 3.729.323 5.036-.547 1.642-3.445 2.013-4.91 2.197-2.507.316-5.042.42-7.568.318a45.802 45.802 0 0 1-7.569-.318c-1.463-.184-4.362-.555-4.909-2.197-.436-1.307.318-3.65.324-5.036a45.552 45.552 0 0 0-4.717-20.364c-.895-1.805-1.92-3.576-2.39-5.528-.471-1.952-.301-4.173 1.007-5.719z" fill="#FDD247"/><path d="M408.626 176.738c.431-1.235.662-3.546 1.518-4.368.514-.493 3.197-.493 3.711 0 .857.822 1.088 3.133 1.518 4.368.483 1.385.903 3.044.399 4.413-.352.959-1.099 1.534-1.855 1.728-.631.161-3.203.161-3.834 0-.756-.194-1.502-.769-1.855-1.728-.504-1.369-.083-3.028.398-4.413z" fill="#F4A086"/><path d="M407.543 166.708c.753-2.277 9.161-2.277 9.914 0 .6 1.812.685 3.857.344 5.765-.322 1.801-1.024 3.434-2.007 4.786-.672.923-1.545 2.282-2.521 2.741h-1.545c-.977-.459-1.85-1.818-2.521-2.741-.984-1.352-1.686-2.985-2.008-4.786-.341-1.908-.255-3.953.344-5.765z" fill="#F7B690"/><path fill-rule="evenodd" clip-rule="evenodd" d="M407.599 172.962c-.109-.51-.35-.989-.456-1.5-.107-.51-.302-1.097.096-1.462.362 1.565 1.071 3.109 1.621 4.626.119.328.25.666.511.913.318.303.785.423 1.233.497.493.081 1.793-.436 1.944-.428.151-.008 1.451.509 1.944.428.448-.074.914-.194 1.233-.497.261-.247.391-.585.51-.913a40.058 40.058 0 0 0 1.371-4.626c.397.365.453.952.347 1.462-.106.511-.347.99-.457 1.5-.008.04-.016.081-.022.121-.054.334-.041.693.107 1.006.068.143.159.236.164.394.005.146-.062.326-.092.471-.145.692-.36 1.371-.638 2.028a11.864 11.864 0 0 1-1.65 2.767c-.095.118-.538.79-.686.79l-1.728.461h-.806l-1.728-.461c-.148 0-.591-.672-.686-.79a11.785 11.785 0 0 1-1.65-2.767 10.993 10.993 0 0 1-.638-2.028c-.031-.145-.098-.325-.093-.471.006-.158.096-.251.164-.394.149-.313.162-.672.108-1.006a1.716 1.716 0 0 0-.023-.121z" fill="#0A3C5F"/><path fill-rule="evenodd" clip-rule="evenodd" d="M402.905 163.486c1.14-1.333 3.241-1.855 4.926-1.211.709.27 1.346.723 2.096.862.877.161 1.768-.13 2.604-.427.835-.296 1.713-.608 2.598-.489.883.118 1.746.841 1.631 1.674 1.192-.414 2.639-.068 3.475.833.836.901 1.008 2.296.411 3.352-.36.638-.963 1.148-1.226 1.827-.301.775.045 2.638-1.004 2.994-.811.275-1.262-5.401-3.535-5.544-1.207 1.136-3.216 1.426-4.729.682-.567-.278-1.169-.698-1.779-.517-.408.121-.909.294-1.172.613-.634.772-.449 4.285-1.324 4.865a9.05 9.05 0 0 1-.549-3.887 3.253 3.253 0 0 1-1.164-.18c-1.074-.388-1.876.042-2.097-1.02-.222-1.062.117-3.584.838-4.427z" fill="#0A3C5F"/><path d="M418.678 173.171c.201-.403.367-.86.311-1.322-.056-.46-.407-.898-.806-.845-.246.033-.454.24-.581.487-.127.246-.185.531-.242.81l-.296 1.461c-.084.411-.133.931.166 1.169.549.436 1.23-1.322 1.448-1.76zm-13.356 0c-.201-.403-.367-.86-.311-1.322.056-.46.408-.898.807-.845.245.033.453.24.581.487.126.246.184.531.241.81l.296 1.461c.084.411.133.931-.166 1.169-.549.436-1.229-1.322-1.448-1.76z" fill="#F7B690"/><path d="M398.758 224h26.485c1.238 0 2.27-.988 2.374-2.273l1.375-17.039c.116-1.446-.98-2.688-2.375-2.688h-29.234c-1.395 0-2.491 1.242-2.374 2.688l1.374 17.039c.104 1.285 1.136 2.273 2.375 2.273z" fill="#A2D1EB"/><path d="M428.932 206c-.251-1.264-1.185-2.218-2.315-2.218h-29.234c-1.13 0-2.063.954-2.316 2.218l-.058-.854c-.117-1.693.979-3.146 2.374-3.146h29.234c1.395 0 2.491 1.453 2.375 3.146l-.06.854z" fill="#3C79A6"/><path fill-rule="evenodd" clip-rule="evenodd" d="M347.097 193.656c-.611 1.79-1.506 3.807-3.172 4.307-1.156.348-4.885-1.852-5.698-2.735-.814-.883-5.169-43.465-4.042-46.056 1.513-3.478 18.344 1.324 18.705 7.357.461 7.712-.576 15.917-2.124 23.565a108.883 108.883 0 0 1-3.669 13.562z" fill="#222B54"/><path d="M375 228.72a12.426 12.426 0 0 1-5.155 1.28l-1.736-5.697c-.073-.239-.147-.492-.088-.735.088-.357.434-.599.773-.779 1.282-.68 3.333-1.44 3.979.16.771 1.912 1.483 3.849 2.227 5.771zm-31 5.157a15.525 15.525 0 0 1-6-.415l.276-6.081c.012-.257.028-.525.183-.742.226-.318.688-.442 1.118-.507 1.628-.248 4.109-.325 4.201 1.434.108 2.102.146 4.208.222 6.311z" fill="#F4A086"/><path fill-rule="evenodd" clip-rule="evenodd" d="M337.339 188.594c1.599-3.543 6.297-5.972 9.256.175 4.515 9.374-3.3 26.91-3.264 38.231h-5.476c-.302-1.096-1.403-36.44-.516-38.406z" fill="#222B54"/><path fill-rule="evenodd" clip-rule="evenodd" d="M358.99 160.687c-1.368 1.139-3.177 1.313-4.874 1.313C340.15 162 334 158.487 334 150.417c0-7.276 14.483-5.843 21.011-3.598 1.407.485 3.458.953 4.42 2.342 1.393 2.014 2.882 8.758-.441 11.526z" fill="#0A3C5F"/><path d="M337.901 113.112c-.423 6.845-1.596 13.856-4.96 19.536-.726 1.224-1.779 2.494-3.064 2.339-.751-.09-1.404-.682-1.809-1.411-.406-.73-.596-1.586-.735-2.436-1.09-6.688.694-13.503 2.47-19.996.732-2.674 1.705-7.408 4.083-8.85 2.477-1.502 3.725 3.138 3.952 5.029.229 1.917.182 3.865.063 5.789z" fill="#F4A086"/><path fill-rule="evenodd" clip-rule="evenodd" d="M338.604 103.075c-.119-1.112-.393-2.422-1.346-2.906-1.005-.513-2.084.235-2.865.994-4.738 4.605-6.533 11.103-7.393 18.078l11.362.759a70.452 70.452 0 0 0 .242-16.925z" fill="#66BCD5"/><path fill-rule="evenodd" clip-rule="evenodd" d="M357.065 193.708c-.486 1.775-1.233 3.777-2.805 4.273-1.09.345-3.43-4.134-4.26-5.01-.83-.876-8.862-34.021-7.924-36.593 1.259-3.45 4.416-5.684 7.663-6.198 4.718-.748 10.147.71 10.827 6.695.871 7.651.331 15.791-.731 23.378a106.88 106.88 0 0 1-2.77 13.455z" fill="#0A3C5F"/><path d="M322.123 131.029c-.316.807.012 1.793.58 2.394.568.6 4.52 2.723 8.399.765 1.953-.986 2.249-3.132 1.564-5.17-.953-2.836-10.168 1.055-10.543 2.011z" fill="#F7B690"/><path fill-rule="evenodd" clip-rule="evenodd" d="M349 190.419c.13-3.793 4.52-8.23 9.773-3.095 8.458 8.265 10.93 24.032 14.227 35.75L367.264 225c-.795-.895-18.336-32.473-18.264-34.581z" fill="#0A3C5F"/><path fill-rule="evenodd" clip-rule="evenodd" d="M362.417 127.318c1.977-6.267 4.405-14.008 3.31-20.56C363.042 103.519 357.55 96 346.661 96c-7.639 0-13.358 7.619-14.683 9.554-1.476 2.157-.941 5.232-.573 7.727.785 5.318 3.115 26.215 1.091 40.719h30.842c-.059-6.917-2.913-20.367-.921-26.682z" fill="#66BCD5"/><path d="M368.017 120.563c-1.489-5.892-4.666-11.314-9.024-15.395-.784-.734-1.847-1.471-2.819-1.04-.53.234-.885.781-1.041 1.356-.157.576-.142 1.186-.119 1.783.268 6.971 1.488 13.86 2.705 20.721.375 2.108.757 4.244 1.634 6.184.877 1.94 2.32 3.697 4.252 4.457 1.011.397 2.665.631 3.596-.124.749-.607.874-2.154 1.063-3.035.673-3.123.886-6.351.633-9.54a32.407 32.407 0 0 0-.88-5.367z" fill="#F4A086"/><path fill-rule="evenodd" clip-rule="evenodd" d="M370 121a.857.857 0 0 1 .027.21c-.007-.071-.019-.14-.027-.21z" fill="#18898D"/><path fill-rule="evenodd" clip-rule="evenodd" d="M355.087 103.054c.058-1.114.271-2.425 1.267-2.91 1.051-.513 3.003.453 3.893 1.214 5.391 4.609 8.391 10.899 9.753 17.882l-13.593.76a66.17 66.17 0 0 1-1.32-16.946z" fill="#66BCD5"/><path d="M343.26 87.338c.643-3.088 2.792-3.811 4.041-3.07.8 5.78 1.616 8.348 3.699 11.5-2.59 1.806-7.011 1.47-7.967 0-.039-.463-.106-6.834.227-8.43z" fill="#F4A086"/><path d="M342.508 80.851c-2.814-2.025-6.866-.267-7.45 3.48-.536 3.43 2.778 9.316 4.35 10.271 2.749 1.67 6.444-2.338 6.574-4.26.189-2.818-1.107-7.787-3.474-9.49z" fill="#F7B690"/><path fill-rule="evenodd" clip-rule="evenodd" d="M345.924 81.1c.236-.136.556-.121.818-.025.261.097.476.264.684.428.712.558 1.429 1.12 1.99 1.79.563.67.965 1.463.967 2.285.001.533-.162 1.087.054 1.587.193.45.683.862.536 1.324-.109.342-.569.545-.985.506-.415-.038-.776-.268-1.04-.543-.263-.276-.447-.599-.66-.903-.707-1.014-1.737-1.84-2.472-2.84-.736-1-1.146-2.31-.481-3.344l.589-.266z" fill="#222B56"/><path fill-rule="evenodd" clip-rule="evenodd" d="M331 81.996l1.945-.733c-.298.343-.604.701-.721 1.13-.117.427.011.947.42 1.17.318.173.731.128 1.059-.03.327-.156.588-.41.842-.658-.133.23-.27.473-.272.734-.001.263.182.545.461.574.222.023.423-.114.599-.242l2.639-1.939c-.052.257-.105.52-.06.779.045.258.206.514.467.61.459.169.93-.213 1.209-.59.279-.38.569-.835 1.057-.904.548-.076.995.381 1.33.793l.18.22 1.851 2.27c.189.231.382.467.64.631.258.164.595.247.887.143.497-.178 5.871-7.568-1.005-9.825-.995-.327-2.4.035-3.407.33-1.007.296-1.959.764-2.998.938-.823.138-1.668.086-2.501.162-2.328.216-4.561 2.205-4.622 4.437z" fill="#222B56"/><path d="M349.735 84.206c.361.86.353 1.854-.023 2.707-1.075 2.442-3.585.252-3.707-1.515-.145-2.107 2.749-3.529 3.73-1.192z" fill="#F7B690"/><path fill-rule="evenodd" clip-rule="evenodd" d="M327.005 238.062c-.077-.944.743-1.727 1.588-1.948.845-.22 1.727-.052 2.595-.064 2.477-.031 4.882-1.654 6.018-4.059.156-.331.308-.696.604-.878.396-.243.908-.063 1.259.252.35.315.597.744.918 1.095a2.953 2.953 0 0 0 2.203.964c.679-.011 1.439-.578 2.092-.203.576.33.731 1.202.877 1.824.252 1.071.48 2.149.72 3.223.053.238.104.487.121.732h-4.719c-.219-.338-.398-1.321-.492-1.728-.016.418-.166 1.407-.409 1.728h-12.968a1.668 1.668 0 0 1-.407-.938zm42.183-3.804c-.305-.796-.206-1.584.065-1.893.271-.309.335-1.853.357-4.085.01-1.021 1.694-1.916 3.106-.677.459.401.837.634 1.155.506.266-.106.404-.701.771-.475.325.2.64.922.878 1.432.41.879.813 1.767 1.219 2.65.09.195.183.4.261.607L369.621 235a2.53 2.53 0 0 1-.433-.742z" fill="#66BCD5"/><path d="M347.485 139h-18.646c-1.104 0-2.248-.886-2.557-1.98l-8.205-29.04c-.308-1.093.335-1.98 1.439-1.98h18.646c1.103 0 2.248.887 2.556 1.98l8.204 29.04c.31 1.094-.334 1.98-1.437 1.98z" fill="#A2D1EB"/><path d="M347.927 137.02l-7.675-29.04c-.289-1.093-1.36-1.98-2.392-1.98H336c1.032 0 2.103.887 2.393 1.98l7.675 29.04c.289 1.094-.313 1.98-1.346 1.98h1.86c1.032 0 1.635-.886 1.345-1.98z" fill="#3C79A6"/><path d="M345.853 131.136c-.912.528-1.063 1.737-.593 2.613.47.876 16.329 4.306 20.15 4.25 1.163-.017 2.499-.116 3.183-.955.611-.749.437-1.792.11-2.672-.55-1.477-1.511-3.143-2.866-4.165-.934-.705-19.4.591-19.984.929z" fill="#F7B690"/><path d="M340.493 128.088c-.348-.484-.7-1.151-.345-1.631.236-.317.703-.382 1.08-.262.377.12.687.383.994.634.414.337.867.671 1.396.746.529.076 1.146-.2 1.271-.72.137-.568-.307-1.285.112-1.693.219-.214.588-.2.857-.051.268.149.459.403.642.649.97 1.309 1.962 2.665 2.352 4.248.39 1.582.027 3.467-1.295 4.419-1.183.851-2.928.725-4.067-.184-.972-.776-1.344-1.887-1.472-3.079-.139-1.306-.732-1.972-1.525-3.076zm-18.831-1.904c.073-.18.193-3.054.369-3.174.322-.219 1.525 3.162 1.276 3.441l2.003-.179c.634-.056 1.463-.013 1.655.497.153.406-.235.797-.505 1.159-.479.643.226 4.399-.148 4.718-1.385 1.178-4.42-.865-4.925-2.016-.701-1.597-.352-2.911.275-4.446z" fill="#F7B690"/><path fill-rule="evenodd" clip-rule="evenodd" d="M139.919 67.437a.617.617 0 0 1-.063-1.233 36.968 36.968 0 0 1 3.341-.2 40.058 40.058 0 0 1 1.659.01.62.62 0 0 1 .6.635.61.61 0 0 1-.632.602 38.547 38.547 0 0 0-1.61-.01c-1.071.014-2.157.08-3.23.193a.785.785 0 0 1-.065.003zm12.26.617a.621.621 0 0 1-.115-.01 46.616 46.616 0 0 0-4.815-.662.617.617 0 0 1-.563-.667.613.613 0 0 1 .665-.565c1.616.134 3.279.362 4.942.678a.618.618 0 0 1-.114 1.226zm-20.069.469a.617.617 0 0 0 .774.401 35.355 35.355 0 0 1 4.701-1.155.62.62 0 0 0-.211-1.219 36.69 36.69 0 0 0-4.865 1.196.62.62 0 0 0-.399.777zm27.213 1.405a.613.613 0 0 1-.192-.032 58.068 58.068 0 0 0-4.687-1.34.619.619 0 0 1 .286-1.203 58.83 58.83 0 0 1 4.787 1.369.619.619 0 0 1-.194 1.206zm-33.896 1.727a.614.614 0 0 0 .843.219 31.903 31.903 0 0 1 4.337-2.13.617.617 0 1 0-.457-1.148 33.112 33.112 0 0 0-4.505 2.212.62.62 0 0 0-.218.847zm40.776.973a.61.61 0 0 1-.252-.054 74.562 74.562 0 0 0-4.518-1.866.619.619 0 0 1 .429-1.159 75.568 75.568 0 0 1 4.594 1.897.62.62 0 0 1 .31.817.617.617 0 0 1-.563.365zm6.314 3.241a.614.614 0 0 0 .836-.245.62.62 0 0 0-.245-.84 99.296 99.296 0 0 0-4.404-2.284.619.619 0 0 0-.537 1.113 97.885 97.885 0 0 1 4.35 2.256zm-52.386.617a.621.621 0 0 1-.439-1.053 28.458 28.458 0 0 1 3.842-3.258.618.618 0 0 1 .71 1.01 27.224 27.224 0 0 0-3.675 3.117.611.611 0 0 1-.438.184zm58.739 3.11a.614.614 0 0 0 .847-.202.62.62 0 0 0-.202-.851A159.225 159.225 0 0 0 175.268 76a.615.615 0 0 0-.842.229.62.62 0 0 0 .228.843c1.334.769 2.713 1.594 4.216 2.522zm-72.201.133a.618.618 0 0 1-.116-1.225 20.21 20.21 0 0 1 5.058-.323c.34.02.599.314.578.655a.615.615 0 0 1-.653.579 18.975 18.975 0 0 0-4.749.303.637.637 0 0 1-.118.011zm8.84 2.656a.612.612 0 0 0 .828-.27c.227-.45.472-.893.731-1.32l.14-.23c.433.152.863.317 1.287.496a.619.619 0 0 0 .476-1.14 23.068 23.068 0 0 0-1.063-.418c.334-.48.688-.95 1.056-1.406a.62.62 0 0 0-.089-.87.614.614 0 0 0-.866.09 26.14 26.14 0 0 0-1.319 1.78 22.687 22.687 0 0 0-2.564-.615.613.613 0 0 0-.714.5.617.617 0 0 0 .498.717c.7.125 1.397.287 2.087.483-.268.445-.523.906-.758 1.372a.62.62 0 0 0 .27.831zm-15.66.078a.62.62 0 0 1-.328-1.142 21.24 21.24 0 0 1 4.574-2.17.619.619 0 0 1 .388 1.174 20.02 20.02 0 0 0-4.309 2.044.613.613 0 0 1-.326.094zm85.25 1.1a.613.613 0 0 0 .851-.184.619.619 0 0 0-.182-.855 418.093 418.093 0 0 0-4.156-2.67.614.614 0 0 0-.849.193.62.62 0 0 0 .192.854 410.22 410.22 0 0 1 4.144 2.661zm-60.135 1.476a.612.612 0 0 1-.41-.157 21.576 21.576 0 0 0-3.903-2.772.617.617 0 1 1 .597-1.082 22.768 22.768 0 0 1 4.126 2.931.62.62 0 0 1-.41 1.08zm166.179.668a.616.616 0 0 0 .681.545 53.764 53.764 0 0 1 1.953-.185c.919-.07 1.891-.09 2.875-.06a.618.618 0 1 0 .038-1.236 28.45 28.45 0 0 0-3.005.064c-.669.05-1.335.113-1.999.188a.618.618 0 0 0-.543.684zm12.839 1.314a.606.606 0 0 1-.144-.017 37.227 37.227 0 0 0-4.774-.832.618.618 0 0 1 .129-1.23c1.613.17 3.273.46 4.932.86a.619.619 0 0 1-.143 1.22zm-210.05.183a.615.615 0 0 0 .867-.081 23.158 23.158 0 0 1 3.42-3.368.62.62 0 0 0 .1-.869.614.614 0 0 0-.865-.1 24.391 24.391 0 0 0-3.603 3.548.62.62 0 0 0 .081.87zm190.548.33a.618.618 0 0 1-.139-1.22 67.395 67.395 0 0 1 4.878-.958.619.619 0 0 1 .191 1.222 65.948 65.948 0 0 0-4.79.94.643.643 0 0 1-.14.016zm-93.172.06a.615.615 0 0 0 .85-.187.619.619 0 0 0-.187-.855 766.477 766.477 0 0 1-4.135-2.682.615.615 0 0 0-.852.182.62.62 0 0 0 .182.855 665.93 665.93 0 0 0 4.142 2.686zm119.673 1.782a.616.616 0 0 1-.245-.052 42.301 42.301 0 0 0-4.557-1.681.619.619 0 0 1 .358-1.184 43.645 43.645 0 0 1 4.69 1.73.62.62 0 0 1-.246 1.187zm-197.462.123a.617.617 0 0 0 .695-.526 22.56 22.56 0 0 1 1.165-4.659.616.616 0 0 0-1.154-.43 23.728 23.728 0 0 0-1.23 4.917.618.618 0 0 0 .524.698zm163.845.032a.62.62 0 0 1-.187-1.207 97.71 97.71 0 0 1 4.755-1.406.62.62 0 0 1 .317 1.195 96.206 96.206 0 0 0-4.697 1.388.616.616 0 0 1-.188.03zm-148.45.996a.615.615 0 0 0 .826.275.62.62 0 0 0 .274-.83 19.768 19.768 0 0 0-2.85-4.21.614.614 0 0 0-.869-.054.62.62 0 0 0-.055.873 18.556 18.556 0 0 1 2.674 3.946zm69.004 1.076a.617.617 0 0 1-.315-.086 199 199 0 0 1-4.212-2.595.62.62 0 0 1-.193-.853.614.614 0 0 1 .849-.194c1.519.96 2.888 1.803 4.187 2.579a.619.619 0 0 1-.316 1.15zm71.893-.026a.615.615 0 0 0 .792.363 179.73 179.73 0 0 1 4.622-1.664.62.62 0 0 0-.399-1.17c-1.43.491-2.952 1.04-4.653 1.676a.62.62 0 0 0-.362.795zm47.655 1.343a.613.613 0 0 1-.343-.105 39.4 39.4 0 0 0-4.189-2.456.619.619 0 0 1 .556-1.103 40.629 40.629 0 0 1 4.32 2.533.62.62 0 0 1-.344 1.131zm-227.194.704a.616.616 0 0 0 .806-.33 24.835 24.835 0 0 1 2.282-4.24.62.62 0 0 0-.166-.859.613.613 0 0 0-.855.167 26.036 26.036 0 0 0-2.396 4.452.62.62 0 0 0 .329.81zm173.215 1.013a.618.618 0 0 1-.222-1.194l.641-.251a830.77 830.77 0 0 1 3.957-1.534.618.618 0 0 1 .44 1.155c-1.272.488-2.542.983-3.809 1.477l-.142.055-.642.25a.616.616 0 0 1-.223.042zm-59.398.511a.616.616 0 0 0 .83-.266.62.62 0 0 0-.265-.833 112.322 112.322 0 0 1-4.304-2.353.614.614 0 0 0-.84.23.62.62 0 0 0 .229.843c1.482.852 2.945 1.652 4.35 2.38zm-90.36 1.745a.617.617 0 0 1-.606-.51 24.122 24.122 0 0 1-.349-5.055.621.621 0 0 1 .637-.596c.34.012.606.298.594.64a22.819 22.819 0 0 0 .331 4.795.618.618 0 0 1-.607.726zm142.268-.035a.617.617 0 0 0 .789.37 256.929 256.929 0 0 0 4.625-1.74.619.619 0 0 0-.442-1.155 252.467 252.467 0 0 1-4.604 1.733.619.619 0 0 0-.368.792zm67.121.82a.609.609 0 0 1-.447-.194 31.334 31.334 0 0 0-3.584-3.247.62.62 0 0 1-.11-.867.614.614 0 0 1 .864-.11 32.496 32.496 0 0 1 3.725 3.375.62.62 0 0 1-.448 1.043zm-192.431-.284a.618.618 0 0 0 .615.598h.022a.616.616 0 0 0 .594-.64 17.5 17.5 0 0 0-.517-3.64 18.237 18.237 0 0 0-.405-1.383.616.616 0 1 0-1.167.396 16.655 16.655 0 0 1 .858 4.669zm80.386.948a.617.617 0 0 1-.234-.047c-1.475-.608-3-1.292-4.531-2.035a.62.62 0 0 1-.287-.826.614.614 0 0 1 .823-.287 81.51 81.51 0 0 0 4.463 2.004.62.62 0 0 1-.234 1.19zm37.906.84a.616.616 0 0 0 .767.413c1.495-.453 3.036-.956 4.709-1.537a.619.619 0 0 0-.403-1.169 119.955 119.955 0 0 1-4.662 1.522.619.619 0 0 0-.411.771zm-30.929 1.598a.648.648 0 0 1-.168-.023 63.172 63.172 0 0 1-4.728-1.555.62.62 0 0 1-.364-.794.616.616 0 0 1 .792-.365 61.714 61.714 0 0 0 4.635 1.524.618.618 0 0 1-.167 1.213zm-129.398.055l.057.003a.617.617 0 0 0 .613-.562c.145-1.578.46-3.165.936-4.716a.618.618 0 0 0-.407-.773.614.614 0 0 0-.77.408 24.64 24.64 0 0 0-.986 4.968c-.03.34.218.64.557.672zm153.761.634a.615.615 0 0 1-.602-.493.617.617 0 0 1 .477-.73 77.462 77.462 0 0 0 4.75-1.154.619.619 0 0 1 .326 1.192c-1.654.455-3.278.85-4.826 1.173a.662.662 0 0 1-.125.012zm83.445.17a.615.615 0 0 0 .847.206.62.62 0 0 0 .205-.85 25.215 25.215 0 0 0-1.698-2.447.618.618 0 0 0-.968.764 24.03 24.03 0 0 1 1.614 2.327zm-100.582.663a.576.576 0 0 1-.082-.006 50.578 50.578 0 0 1-4.902-.912.618.618 0 0 1 .283-1.203c1.606.38 3.215.68 4.782.89a.618.618 0 0 1-.081 1.231zm9.217-.329a.617.617 0 0 0 .613.569c.017 0 .033 0 .05-.002a56.943 56.943 0 0 0 4.94-.622.617.617 0 0 0 .505-.712.616.616 0 0 0-.71-.507 56.425 56.425 0 0 1-4.833.608.618.618 0 0 0-.565.666zm-3.263.727a45.442 45.442 0 0 1-3.554-.139.619.619 0 0 1 .097-1.233 45.057 45.057 0 0 0 4.855.114c.35-.03.625.258.635.599a.616.616 0 0 1-.596.637c-.479.015-.958.022-1.437.022zm-115.521.824a.611.611 0 0 0 .843.22.62.62 0 0 0 .218-.847 19.662 19.662 0 0 1-1.886-4.391.615.615 0 1 0-1.181.35 20.838 20.838 0 0 0 2.006 4.668zm13.832 1.558a.62.62 0 0 1-.517-.953c.091-.142.178-.286.261-.432.656-1.168 1.089-2.493 1.287-3.94a.615.615 0 1 1 1.22.167c-.22 1.604-.702 3.077-1.435 4.38-.094.168-.194.332-.297.495a.614.614 0 0 1-.519.283zm-40.916 2.643a.617.617 0 1 0 1.201-.274 24.922 24.922 0 0 1-.507-3.184 21.317 21.317 0 0 1-.087-1.589.624.624 0 0 0-.626-.607.617.617 0 0 0-.606.628c.01.561.04 1.127.093 1.683a26.13 26.13 0 0 0 .532 3.343zm35.01 1.487a.619.619 0 0 1-.116-1.225c1.428-.277 2.856-1.021 4.021-2.094a.615.615 0 0 1 .871.037.621.621 0 0 1-.038.874c-1.35 1.244-2.948 2.072-4.62 2.397a.682.682 0 0 1-.118.011zm-2.799-.064a.615.615 0 0 0 .858-.152.62.62 0 0 0-.151-.861 16.282 16.282 0 0 1-3.432-3.267.617.617 0 0 0-.966.766 17.472 17.472 0 0 0 3.691 3.514zm-29.051 5.996a.614.614 0 0 1-.548-.334 31.109 31.109 0 0 1-1.943-4.648.616.616 0 1 1 1.171-.382 29.873 29.873 0 0 0 1.867 4.462.62.62 0 0 1-.547.902zm3.575 5.96a.613.613 0 0 0 .866.092.62.62 0 0 0 .092-.869 37.635 37.635 0 0 1-2.798-3.97.614.614 0 0 0-.847-.204.62.62 0 0 0-.204.85 38.985 38.985 0 0 0 2.89 4.101zm5.592 5.575a.61.61 0 0 1-.408-.157 45.617 45.617 0 0 1-3.557-3.514.62.62 0 0 1 .041-.874.615.615 0 0 1 .87.042 44.032 44.032 0 0 0 2.261 2.315c.395.376.796.745 1.202 1.107a.62.62 0 0 1-.409 1.081zm5.46 4.461a.618.618 0 0 0 .858-.151.62.62 0 0 0-.151-.862 66.848 66.848 0 0 1-3.901-2.946.614.614 0 0 0-.866.09.62.62 0 0 0 .089.87 68.464 68.464 0 0 0 3.971 2.999zm6.564 4.131a.608.608 0 0 1-.318-.089 121.792 121.792 0 0 1-4.193-2.643.62.62 0 0 1-.176-.857.616.616 0 0 1 .854-.176c1.258.833 2.617 1.69 4.152 2.618a.62.62 0 0 1-.319 1.147zm6.084 3.648a.617.617 0 1 0 .611-1.074 469.454 469.454 0 0 1-4.264-2.464.615.615 0 0 0-.843.221.62.62 0 0 0 .22.846c1.403.824 2.814 1.633 4.222 2.44l.054.031zM417.5.756c-.307.908-.616 1.812-.928 2.709l-.535 1.54a.607.607 0 0 1-.58.388.658.658 0 0 1-.185-.026c-.32-.093-.498-.406-.396-.699l.535-1.539a340.5 340.5 0 0 0 .925-2.7c.099-.294.44-.46.761-.368.321.09.501.401.403.695zm-3.848 6.81a516.51 516.51 0 0 0-1.457 4.25c-.099.294.082.605.405.695.06.016.12.025.179.025.262 0 .504-.154.585-.394.479-1.42.966-2.833 1.455-4.24.101-.293-.077-.605-.399-.698-.323-.092-.665.07-.768.363zm-5.444 53.518c.348-.065.694.121.772.419.249.95.536 1.9.855 2.822.158.46.329.917.512 1.373.115.288-.065.602-.403.7a.756.756 0 0 1-.209.03c-.269 0-.52-.144-.612-.373a32.876 32.876 0 0 1-.528-1.417 39.804 39.804 0 0 1-.877-2.894c-.078-.297.141-.593.49-.66zm3.763 12.587c.165.3.523.4.801.224a.658.658 0 0 0 .209-.862c-.154-.28-.304-.565-.451-.852.116-.201.233-.4.351-.595a.66.66 0 0 0-.174-.871.56.56 0 0 0-.804.179 38.786 38.786 0 0 1-.973-2.292c-.124-.32-.466-.474-.765-.339-.298.134-.439.503-.315.824a40.043 40.043 0 0 0 1.331 3.053 49.582 49.582 0 0 0-1.63 3.198c-.145.31-.028.69.261.845a.547.547 0 0 0 .261.067.582.582 0 0 0 .524-.348c.397-.851.811-1.68 1.24-2.479l.134.248zm-3.966 7.47c.188-1.05.5-2.063.925-3.012.164-.365.332-.73.506-1.092.136-.282-.001-.613-.305-.738-.304-.127-.66 0-.795.283a47.28 47.28 0 0 0-.518 1.118 14 14 0 0 0-1.001 3.257c-.054.304.168.592.496.642a.59.59 0 0 0 .099.008c.289 0 .545-.194.593-.467zm3.812-66.424c.1-.292.456-.46.79-.372.336.087.528.395.427.688-.518 1.513-.978 2.9-1.404 4.24-.078.245-.334.406-.612.406a.716.716 0 0 1-.17-.02c-.338-.082-.537-.387-.443-.68a192.8 192.8 0 0 1 1.412-4.262zm-2.763 11.678c.387-1.357.827-2.785 1.305-4.242.096-.294-.122-.593-.488-.67-.368-.078-.74.098-.836.39a114.18 114.18 0 0 0-1.315 4.278c-.085.295.145.589.514.656a.81.81 0 0 0 .154.014c.312 0 .594-.172.666-.426zm17.429 113.049a69.828 69.828 0 0 1 1.299 4.232c.07.256.354.431.669.431a.908.908 0 0 0 .146-.012c.37-.065.605-.356.525-.653a70.458 70.458 0 0 0-1.317-4.287c-.1-.293-.476-.465-.842-.385-.365.08-.581.381-.48.674zm3.738 20.735h-.019c-.39 0-.711-.27-.722-.61a64.991 64.991 0 0 0-.339-4.956c-.037-.345.254-.65.651-.682.407-.032.749.221.786.566.18 1.681.296 3.376.345 5.04.011.345-.304.633-.702.642zm-.195-9.537a70.115 70.115 0 0 0-.688-4.308.55.55 0 0 0-.644-.432.543.543 0 0 0-.44.632c.271 1.418.499 2.845.678 4.243a.547.547 0 0 0 .615.469.543.543 0 0 0 .479-.604zM409.077 28.619c.279.06.459.349.401.642a96.1 96.1 0 0 0-.749 4.247.526.526 0 0 1-.592.45.54.54 0 0 1-.428-.623 101.7 101.7 0 0 1 .757-4.296.519.519 0 0 1 .611-.42zm15.628 103.728a98.442 98.442 0 0 1 1.471 4.22.596.596 0 0 0 .574.397.638.638 0 0 0 .173-.023c.318-.089.498-.399.403-.694a97.372 97.372 0 0 0-1.487-4.265c-.109-.291-.452-.444-.764-.344-.313.101-.479.419-.37.709zm-11.522-64.302a34.917 34.917 0 0 1 3.291-4.103.588.588 0 0 1 .874.006.702.702 0 0 1-.005.941 33.498 33.498 0 0 0-3.167 3.95.605.605 0 0 1-.497.268.585.585 0 0 1-.368-.13.7.7 0 0 1-.128-.932zm-6.006-26.627a81.98 81.98 0 0 1 .52-4.957.63.63 0 0 0-.542-.706.636.636 0 0 0-.71.539 82.903 82.903 0 0 0-.527 5.032.63.63 0 0 0 .584.673h.002l.044.001a.63.63 0 0 0 .629-.582zm16.765 89.296c-.297 0-.575-.141-.684-.371a121.273 121.273 0 0 0-2.105-4.205c-.152-.29.028-.621.401-.739.375-.118.799.022.951.312a121.5 121.5 0 0 1 2.122 4.241c.139.293-.054.619-.432.727a.919.919 0 0 1-.253.035zm-16.67-46.675c.01-.347-.283-.635-.655-.645-.377-.017-.682.263-.692.61a20.32 20.32 0 0 0-.009.605c0 1.41.151 2.93.449 4.514.058.305.341.52.663.52a.733.733 0 0 0 .117-.01c.367-.06.611-.384.547-.726-.284-1.514-.428-2.96-.428-4.298 0-.19.002-.38.008-.57zm-.395-41.146c.474.013.843.303.825.648a48.446 48.446 0 0 0-.069 2.571c0 .796.021 1.598.062 2.382.018.344-.351.635-.825.648h-.034c-.458 0-.839-.264-.856-.6-.043-.8-.064-1.617-.064-2.43 0-.86.023-1.74.07-2.619.018-.344.399-.61.891-.6zm.228 10.64c-.026-.297-.314-.523-.641-.495-.328.024-.572.284-.546.58.13 1.467.333 2.922.602 4.327.05.263.302.448.586.448a.594.594 0 0 0 .102-.008c.324-.05.542-.33.485-.623a43.127 43.127 0 0 1-.588-4.23zm1.068 37.912c.329-.073.667.108.75.406a42.072 42.072 0 0 0 1.424 4.195c.113.29-.057.606-.38.709a.69.69 0 0 1-.205.03c-.255 0-.494-.142-.584-.37a43.206 43.206 0 0 1-1.457-4.297c-.083-.298.12-.599.452-.673zm20.967 75.202c-.033.344.281.646.7.673l.06.001c.394 0 .727-.248.759-.576.158-1.668.248-3.364.265-5.043.003-.345-.335-.627-.756-.631h-.006c-.417 0-.758.278-.762.621a58.925 58.925 0 0 1-.26 4.955zm-.436 7.809a.543.543 0 0 1-.45-.631c.269-1.402.491-2.828.657-4.238a.556.556 0 0 1 .621-.476c.309.033.53.301.495.598a61.077 61.077 0 0 1-.669 4.313.557.557 0 0 1-.552.442.712.712 0 0 1-.102-.008zm-2.828 8.432a61.51 61.51 0 0 1-2.044 4.199c-.154.289.036.616.424.73a.95.95 0 0 0 .279.04c.301 0 .585-.134.703-.355a62.708 62.708 0 0 0 2.075-4.264c.13-.295-.087-.612-.483-.709-.395-.099-.824.064-.954.359zm.609-1.985c.5-1.398.945-2.818 1.324-4.221.08-.297.442-.485.801-.419.362.066.591.359.511.655a56.632 56.632 0 0 1-1.345 4.293c-.086.24-.354.396-.645.396a.878.878 0 0 1-.189-.022c-.356-.085-.561-.391-.457-.682zm-13.038-75.741c-.152-.291-.548-.421-.885-.289-.337.13-.487.473-.335.764a386.735 386.735 0 0 0 2.237 4.207c.114.212.356.335.608.335.094 0 .19-.018.281-.054.335-.135.481-.478.325-.767a368.054 368.054 0 0 1-2.231-4.196zm4.486 13.102c.345-.129.752 0 .908.29a192.91 192.91 0 0 1 2.203 4.22c.149.292-.015.628-.364.752a.802.802 0 0 1-.268.045c-.268 0-.522-.131-.633-.35a195.449 195.449 0 0 0-2.192-4.198c-.155-.289 0-.629.346-.759zm-.921-5.966c-.155-.29-.553-.414-.886-.28-.334.135-.479.479-.323.768a622.865 622.865 0 0 1 2.237 4.197c.112.212.354.338.606.338a.743.743 0 0 0 .277-.052c.335-.133.483-.476.329-.766a562.763 562.763 0 0 0-2.24-4.205zm6.386 77.695c.145-.295.535-.429.872-.303.337.127.493.468.347.762a78.914 78.914 0 0 1-2.259 4.228c-.116.203-.351.32-.595.32a.742.742 0 0 1-.297-.061c-.327-.143-.461-.491-.297-.777a78.231 78.231 0 0 0 2.229-4.169zm-12.546-91.058c-.141-.293-.551-.439-.913-.325-.364.114-.543.445-.402.738a99.396 99.396 0 0 0 2.172 4.238c.116.214.375.343.647.343.094 0 .19-.016.282-.048.357-.126.52-.463.364-.751a98.97 98.97 0 0 1-2.15-4.195z" fill="#14B4C3"/><path fill-rule="evenodd" clip-rule="evenodd" d="M265 107c7.732 0 14-6.268 14-14s-6.268-14-14-14-14 6.268-14 14 6.268 14 14 14z" fill="#fff"/><path d="M272.929 93.563a1.434 1.434 0 0 0-1.807-.917l-11.277 3.657a1.43 1.43 0 0 0-.919 1.803 1.433 1.433 0 0 0 1.806.917l11.278-3.657a1.431 1.431 0 0 0 .919-1.803z" fill="#CE1E5B"/><path d="M271.048 87.888l-.006-.016a1.434 1.434 0 0 0-1.807-.918l-11.245 3.65a1.43 1.43 0 0 0-.919 1.804l.006.016a1.435 1.435 0 0 0 1.807.917l11.245-3.647a1.437 1.437 0 0 0 .919-1.806z" fill="#72C5CD"/><path d="M271.052 97.243l-3.668-11.255a1.434 1.434 0 0 0-2.726.886l3.665 11.254a1.433 1.433 0 0 0 1.806.918 1.43 1.43 0 0 0 .923-1.803z" fill="#DFA22F"/><path d="M265.355 99.091L261.7 87.868a1.434 1.434 0 0 0-1.806-.917l-.016.006a1.43 1.43 0 0 0-.92 1.803l3.655 11.223a1.433 1.433 0 0 0 1.806.917l.017-.006a1.43 1.43 0 0 0 .919-1.803z" fill="#3CB187"/><path d="M263.042 91.99l-2.743.892-.889-2.738 2.742-.891.89 2.737z" fill="#248C73"/><path d="M261.267 95.844l2.742-.892.884 2.719-2.743.891-.883-2.718z" fill="#392538"/><path d="M266.979 93.99l2.724-.886.884 2.719-2.724.885-.884-2.718z" fill="#BB242A"/><path fill-rule="evenodd" clip-rule="evenodd" d="M408 77c7.732 0 14-6.268 14-14s-6.268-14-14-14-14 6.268-14 14 6.268 14 14 14z" fill="#fff"/><path d="M414.261 59.16l-.894 8.68h-10.734l-.72-8.511L408 62.625l6.261-3.464z" fill="#F2F2F2"/><path d="M413.958 57.526L408 62.938l-5.958-5.412h11.916z" fill="#F2F2F2"/><path d="M402.633 60.025v7.814h-.973a.65.65 0 0 1-.66-.638v-8.327l1.066.028.567 1.123z" fill="#F14336"/><path d="M415 58.874v8.327a.65.65 0 0 1-.66.638h-.973v-7.814l.539-1.23 1.094.08z" fill="#D32E2A"/><path d="M415 58.164v.71l-1.633 1.151L408 63.808l-5.367-3.783-1.633-1.15v-.71a.65.65 0 0 1 .66-.639h.382l5.958 4.2 5.958-4.2h.382a.65.65 0 0 1 .66.638z" fill="#F14336"/><path d="M402.633 60.025L401 59.78v-.906l1.633 1.151z" fill="#D32E2A"/><path fill-rule="evenodd" clip-rule="evenodd" d="M122 161c7.732 0 14-6.268 14-14s-6.268-14-14-14-14 6.268-14 14 6.268 14 14 14z" fill="#fff"/><path d="M128.777 142.396a5.431 5.431 0 0 1-.965.335c.365-.357.64-.804.795-1.303.044-.143-.106-.266-.231-.19a5.507 5.507 0 0 1-1.476.629.387.387 0 0 1-.351-.09 2.965 2.965 0 0 0-1.997-.777c-.318 0-.64.051-.956.152-.979.313-1.734 1.145-1.971 2.171-.089.385-.113.77-.071 1.145a.115.115 0 0 1-.111.127l-.01-.001c-2.143-.205-4.075-1.269-5.44-2.995a.156.156 0 0 0-.259.021 3.187 3.187 0 0 0-.408 1.564c0 .843.328 1.638.899 2.217a2.655 2.655 0 0 1-.688-.275c-.105-.06-.233.017-.235.14-.015 1.253.697 2.367 1.763 2.869l-.064.001c-.169 0-.34-.017-.509-.05-.117-.023-.216.092-.18.21.346 1.113 1.277 1.933 2.39 2.12-.924.639-2 .976-3.12.976h-.349a.233.233 0 0 0-.226.179.249.249 0 0 0 .115.272 8.095 8.095 0 0 0 4.163 1.157c1.279 0 2.476-.262 3.557-.778a7.884 7.884 0 0 0 2.603-2.009 8.878 8.878 0 0 0 1.593-2.751 8.913 8.913 0 0 0 .542-3.01v-.048c0-.159.07-.309.192-.412a6.083 6.083 0 0 0 1.201-1.357c.087-.135-.051-.305-.196-.239z" fill="#14B4C3"/></svg>