<svg width="20" height="16" viewBox="0 0 20 16" fill="none" xmlns="http://www.w3.org/2000/svg"><path d="M18.944 2.453l-1.276 12.821H2.333L1.304 2.702 10 7.57l8.944-5.117z" fill="#F2F2F2"/><path d="M18.511.038L10 8.034 1.489.038H18.51z" fill="#F2F2F2"/><path d="M2.333 3.73v11.544H.943A.943.943 0 0 1 0 14.331V2.03l1.523.041.81 1.66z" fill="#F14336"/><path d="M20 2.03v12.301c0 .52-.422.943-.944.943h-1.389V3.73l.77-1.817L20 2.03z" fill="#D32E2A"/><path d="M20 .981V2.03l-2.332 1.7L10 9.32 2.332 3.73 0 2.03V.981C0 .461.422.038.943.038h.546L10 6.242 18.511.038h.546c.52 0 .943.423.943.943z" fill="#F14336"/><path d="M2.333 3.73L0 3.37V2.03l2.333 1.7z" fill="#D32E2A"/></svg>