<svg xmlns="http://www.w3.org/2000/svg" viewBox="0 0 24 24"><defs><style>.cls-1{fill:#fff;stroke:#666;stroke-miterlimit:10}</style></defs><title>invite_icon_link</title><g id="Layer_2" data-name="Layer 2"><path class="cls-1" d="M3.21 6.59a1.3 1.3 0 0 0 .39 1l2.93 2.93a1.3 1.3 0 0 0 1 .39 1.34 1.34 0 0 0 1-.45l-.27-.26-.3-.3-.21-.27a1.13 1.13 0 0 1-.18-.36 1.43 1.43 0 0 1 0-.39 1.35 1.35 0 0 1 1.27-1.39 1.43 1.43 0 0 1 .39 0 1.13 1.13 0 0 1 .36.18l.27.21.3.3.26.27a1.37 1.37 0 0 0 .47-1 1.3 1.3 0 0 0-.39-1L7.59 3.6a1.3 1.3 0 0 0-1-.38 1.36 1.36 0 0 0-1 .37L3.6 5.64a1.29 1.29 0 0 0-.39.95zm9.91 9.94a1.3 1.3 0 0 0 .39 1l2.9 2.92a1.3 1.3 0 0 0 1 .39 1.36 1.36 0 0 0 1-.38l2.07-2.06a1.29 1.29 0 0 0 .39-.94 1.3 1.3 0 0 0-.39-1l-2.93-2.93a1.3 1.3 0 0 0-1-.38 1.36 1.36 0 0 0-1 .44l.27.26.3.3.21.27a1.13 1.13 0 0 1 .18.36 1.43 1.43 0 0 1 0 .39 1.35 1.35 0 0 1-1.35 1.35 1.43 1.43 0 0 1-.39 0 1.13 1.13 0 0 1-.36-.18l-.27-.21-.3-.3-.26-.27a1.37 1.37 0 0 0-.47.96zM.5 6.59a3.85 3.85 0 0 1 1.2-2.86l2.07-2.06A3.89 3.89 0 0 1 6.63.5a3.86 3.86 0 0 1 2.88 1.2l2.9 2.92a3.89 3.89 0 0 1 1.17 2.86 4 4 0 0 1-1.24 2.95l1.24 1.24a4.08 4.08 0 0 1 5.81-.06l2.93 2.93a3.91 3.91 0 0 1 1.18 2.88 3.85 3.85 0 0 1-1.2 2.86l-2.07 2.06a4.07 4.07 0 0 1-5.74 0l-2.9-2.92a3.89 3.89 0 0 1-1.17-2.86 4 4 0 0 1 1.24-2.95l-1.24-1.24a4 4 0 0 1-2.93 1.24 3.91 3.91 0 0 1-2.87-1.18L1.68 9.46A3.91 3.91 0 0 1 .5 6.59z" id="Layer_1-2" data-name="Layer 1"/></g></svg>