<svg width="24" height="24" viewBox="0 0 24 24" fill="none" xmlns="http://www.w3.org/2000/svg"><path fill-rule="evenodd" clip-rule="evenodd" d="M15.166 11.355a2.527 2.527 0 0 0 2.521-2.521V2.52A2.527 2.527 0 0 0 15.166 0a2.527 2.527 0 0 0-2.521 2.521v6.313a2.527 2.527 0 0 0 2.521 2.52zM8.834 5.042a2.527 2.527 0 0 1-2.521-2.52A2.527 2.527 0 0 1 8.833 0a2.527 2.527 0 0 1 2.522 2.521v2.521H8.834zM2.52 17.687a2.527 2.527 0 0 0 2.521-2.521v-2.521h-2.52a2.527 2.527 0 0 0-2.52 2.521 2.527 2.527 0 0 0 2.52 2.521zm6.313-5.042a2.527 2.527 0 0 0-2.521 2.521v6.313a2.527 2.527 0 0 0 2.52 2.52 2.527 2.527 0 0 0 2.522-2.52v-6.313a2.527 2.527 0 0 0-2.521-2.521zm2.52-3.811a2.527 2.527 0 0 0-2.52-2.521H2.52A2.527 2.527 0 0 0 0 8.833a2.527 2.527 0 0 0 2.521 2.522h6.313a2.527 2.527 0 0 0 2.52-2.521zm7.604 0a2.527 2.527 0 0 1 2.52-2.521A2.527 2.527 0 0 1 24 8.833a2.527 2.527 0 0 1-2.521 2.522h-2.521V8.834zm-3.792 10.124a2.527 2.527 0 0 1 2.521 2.52A2.527 2.527 0 0 1 15.166 24a2.527 2.527 0 0 1-2.521-2.521v-2.521h2.521zm-2.521-3.792a2.527 2.527 0 0 0 2.521 2.521h6.313a2.527 2.527 0 0 0 2.52-2.521 2.527 2.527 0 0 0-2.52-2.521h-6.313a2.527 2.527 0 0 0-2.521 2.521z" fill="#fff"/></svg>