<svg xmlns="http://www.w3.org/2000/svg" viewBox="0 0 420.84 152.57"><defs><style>.cls-1{fill:#0a3063}.cls-2{fill:url(#linear-gradient)}.cls-3{fill:url(#linear-gradient-2)}.cls-4{fill:#597ba8}.cls-5{fill:#dd0602}</style><linearGradient id="linear-gradient" x1="46.13" y1="152.57" x2="46.13" y2="63.47" gradientUnits="userSpaceOnUse"><stop offset="0" stop-color="#ed1c24"/><stop offset="1" stop-color="#f15a24"/></linearGradient><linearGradient id="linear-gradient-2" x1="362.65" y1="151.22" x2="362.65" y2="63.34" gradientUnits="userSpaceOnUse"><stop offset="0" stop-color="#fbb03b"/><stop offset="1" stop-color="#d9e021"/></linearGradient></defs><title>invite_spaceinvaders</title><g id="Layer_2" data-name="Layer 2"><g id="Layer_1-2" data-name="Layer 1"><path class="cls-1" d="M198.36 64.53l-13.83 26.03 30.16 25.75 9.93-38.4-26.26-13.38z"/><path class="cls-1" d="M187.69 30.7l-23.88 42.17 18.32 15.64 15.28-26.99 28 13.34 6.03-23.31-43.75-20.85z"/><path class="cls-2" d="M35.92 63.47c6.83.12 13.66.09 20.48 0 0 3.31-.06 6.62 0 9.93h12.74v10.13h9.64V95.9h10.23v20.47H69.38c0 4.37 0 8.73.06 13.09 3.24 0 6.47.07 9.7 0v9.34c4.34 0 8.67.07 13 0 .36 4.47.12 9 .16 13.45H79v-13.09h-9.63v13.31q-6.75-.06-13.5 0c.06-4.43 0-8.86 0-13.29-6.51 0-13-.06-19.51 0v13H23.23v-13h-9.44c0 4.42 0 8.84.06 13.26H-.01v-13.76h13.32v-9.51H23c.15-4.28.07-8.57.1-12.86H3.73V95.82h10.23V83.43h9.44V73.38c4.23-.07 8.46 0 12.69 0-.01-3.26-.09-6.59-.17-9.91zm-12.66 29.3v13.75h13c.12-4.58.07-9.16 0-13.74zm32.92 0v13.75h13V92.79c-4.31-.01-8.65 0-13-.02zm-19.83 23.69c0 4.29 0 8.59.06 12.88h19.56c.13-4.3.07-8.6.09-12.9-6.57-.01-13.14-.07-19.71.02zm-13 13.13v9.3c4.33.07 8.65.06 13 0v-9.36c-4.35.01-8.66-.01-12.99.06zm32.75 0v9.21c4.32.06 8.63 0 12.94 0v-9.26c-4.31-.02-8.63-.02-12.93.05z"/><path class="cls-3" d="M326.74 63.35h10.3c-.05 3.27 0 6.54 0 9.81h9.91v13h31.4v-13h9.86v-9.77h10.32c0 3.39-.05 6.77 0 10.15h-9.74c-.55 4.19-.21 8.42-.3 12.63h9.76v10h12.69V73.66h9.95v42h-9.49v12.5h-12.5c0 4.29 0 8.58.11 12.87h9.91v10.18h-10.45v-9.83h-10c.14-4.37.36-8.74.26-13.12-17.31-.12-34.63-.08-51.94 0v13.17h-9.9v9.82h-10.45v-10.17h10c.09-4.27.07-8.54 0-12.82-4.17-.07-8.33 0-12.5 0v-12.53h-9.45v-42h9.85c.06 7.49 0 15 0 22.49h12.68c0-3.33.08-6.66 0-10h9.63c-.06-4.21.19-8.43-.26-12.63h-9.7c.1-3.46.09-6.85.05-10.24zm10 41.95h9.6c0-3.22 0-6.44-.07-9.66h-9.33c-.27 3.22-.27 6.44-.23 9.66zm42.16-9.76v9.91h10v-9.84z"/><path class="cls-4" d="M156.8 95.51h32.43v48.52c-10.83.12-21.67 0-32.51 0 .08-16.14-.03-32.33.08-48.52zm56.61 0h32.42c.05 16.19 0 32.39 0 48.58h-32.48c.08-16.21 0-32.39.06-48.58z"/><path d="M149.3 87.87c34.75 0 69.48-.14 104.23 0 0 21.41.11 42.82 0 64.23-34.72 0-69.44.06-104.16 0-.13-21.44-.05-42.84-.07-64.23zm8 7.88c-.17 16 0 32.06-.08 48.09 10.73 0 21.47.14 32.19-.06-.06-16 0-32 0-48-10.68-.08-21.41-.01-32.06-.03zm56.07 0c-.11 16 0 32-.06 48 10.72.12 21.45.09 32.17 0-.05-16 .06-32-.06-48.06l-32 .08zm-16 .19c-.08 16-.05 31.92 0 47.88 2.7.1 5.4.1 8.1 0V96.07a28.47 28.47 0 0 0-8.07-.07zm-72.51-74.16l14.81-6.18 3.14 7.27-14.6 6.15 5.93 14.68-5.15 2.4-2.86.01-5.65-13.84 7.41-3.18-3.03-7.31zm36.92-15.49L176.67 0l3.16 7.26 7.25-3.03 6.25 14.62-7.42 3.08-6.38-14.5-14.48 6.09 6.04 14.67-7.32 2.6-3.14-6.8-7.38 3.08 2.96 7.4-7.27 3.1-6.13-14.7 22.01-9.27-3.04-7.31z"/><path class="cls-5" d="M128.21 29.02l14.6-6.15 6.13 14.7-14.8 6.13-5.93-14.68zm36.84-15.5l14.48-6.09 6.38 14.5-14.82 6.26-6.04-14.67zm-11.8 13.55l7.38-3.08 3.14 6.8-7.56 3.68-2.96-7.4zM197.4 96a28.47 28.47 0 0 1 8.08.09v47.75c-2.7.14-5.4.14-8.1 0-.03-15.96-.06-31.92.02-47.84z"/></g></g></svg>