<svg xmlns="http://www.w3.org/2000/svg" viewBox="0 0 26.23 21.31"><defs><style>.cls-1{fill:#fff}</style></defs><title>invite_icon_twitter</title><g id="Layer_2" data-name="Layer 2"><path class="cls-1" d="M26.23 2.52a10.71 10.71 0 0 1-3.09.85 5.39 5.39 0 0 0 2.37-3 10.77 10.77 0 0 1-3.42 1.33 5.39 5.39 0 0 0-9.17 4.91A15.28 15.28 0 0 1 1.83 1a5.39 5.39 0 0 0 1.66 7.17 5.37 5.37 0 0 1-2.44-.67v.07a5.39 5.39 0 0 0 4.32 5.28A5.41 5.41 0 0 1 4 13a5.33 5.33 0 0 1-1-.1 5.39 5.39 0 0 0 5 3.74A10.79 10.79 0 0 1 1.28 19 10.88 10.88 0 0 1 0 18.9a15.23 15.23 0 0 0 8.25 2.42A15.2 15.2 0 0 0 23.56 6v-.7a10.9 10.9 0 0 0 2.67-2.78z" id="Layer_1-2" data-name="Layer 1"/></g></svg>