<svg width="26" height="28" viewBox="0 0 26 28" fill="none" xmlns="http://www.w3.org/2000/svg"><path fill-rule="evenodd" clip-rule="evenodd" d="M12 5.948c.882-.209 1.19.115.886.167-.31.053-.313-.243-.886-.167zm2.169-.723c.238.059.467.4.517.767.005.034.31-.052.314-.133.019-.592-.593-.87-.753-.859-.368.028-.264.18-.078.225zm-3.29.053c.064-.017.155.115.127.301-.04.258-.022.42.125.421.024 0 .05-.005.06-.073.07-.514-.15-.891-.24-.92-.207-.064-.182.3-.072.27zM12 5.843c-1.092-.037-1.167.322-.805.316.369-.006.142-.284.805-.316zm2.176-4.319c-.053.176-.268.323-.131.446.137.124.215-.172.49-.283.071-.028.402.013.463-.165.026-.077-.17-.165-.288-.291-.118-.126-.233-.239-.343-.23-.285.02-.145.367-.191.523zM8.608 23.798c.42.605 1.9 3.154-.694 3.485-.868.11-2.265-.462-3.619-.765-1.216-.273-2.45-.434-3.142-.612-.416-.107-.59-.244-.626-.403-.096-.424.506-1.017.536-1.518.03-.5-.2-.76-.388-1.17-.189-.41-.238-.716-.087-.892.118-.136.356-.193.744-.159.493.045 1.087-.048 1.406-.226.538-.3.79-.916.549-1.658 0 .726-.26 1.001-.912 1.333-.614.313-1.562.06-1.997.406-.524.416.187 1.492.129 2.281-.045.607-.736 1.29-.428 1.899.31.612 1.756.678 3.264.967 2.143.41 3.393 1.125 4.383 1.159 1.445.049 1.666-1.31 3.935-1.328a56.43 56.43 0 0 1 1.954-.058 65.747 65.747 0 0 1 2.216.014c1.51.033.99.755 1.97 1.216.826.388 2.311.235 2.667-.076.48-.42 1.772-1.43 2.761-1.887 1.234-.569 4.13-1.548 2.027-2.743-.49-.278-1.648-.573-1.746-2.61-.438.358-.388 2.255.837 2.632 1.367.42 2.221 1.124-.32 1.92-1.684.528-1.97.69-3.302 1.706-1.348 1.027-3.349.619-3-1.545.183-1.127.287-2.058-.019-3.038-.15-.479-.224-1.093-.122-1.523.2-.838.694-1.09 1.18-.286.304.505.41 1.095 1.5 1.143 1.713.075 2.052-1.516 2.6-1.588.365-.048.73-.995.452-2.525-.298-1.64-1.351-4.226-2.701-5.539-1.123-1.09-1.83-2.046-2.275-3.41-.373-1.147-.582-2.263-.505-3.33.1-1.383-.738-3.306-2.07-4.211-.835-.567-2.143-.87-3.327-.859-.664.007-1.29.096-1.77.334-1.976.983-2.252 2.387-2.223 3.989.028 1.505.084 3.222.27 4.855-.22.75-1.371 2.172-2.108 3.038-.99.896-1.491 2.628-2.133 4.142-.341.806-.917 1.17-.966 2.208-.013.29-.003 1.04.3.826 1.16-.82 2.61 1.248 4.8 4.406zm.014.502a.979.979 0 0 0 .938-1.017.99.99 0 0 0-.267-.645c-.394-.39-2.567-2.016-3.134-2.655-.263-.297-.62-.443-.77-.776-.348-.768-.592-1.863-.151-2.65.08-.142.13-.078.07.218-.346 1.678.737 3.05.976 2.346.165-.485.012-1.354.1-2.044.156-1.222 1.258-3.566 1.742-3.7-.747-1.395.876-2.487.856-3.71-.013-.797.693.978 1.403 1.354.793.42 1.664-.791 2.901-1.406.35-.174.799-.374.769-.523-.146-.715-1.625.883-2.946.937-.603.025-.827-.119-1.06-.346-.704-.686.072-.114 1.119-.305.465-.085.621-.163 1.115-.364.494-.201 1.058-.5 1.617-.652.389-.107.356-.402.205-.49-.087-.051-.216-.046-.318.132-.24.418-1.367.66-1.719.768-.452.14-.951.27-1.615.242-1.009-.04-.773-.507-1.495-.924-.212-.122-.155-.444.127-.727.147-.149.55-.233.75-.57.029-.048.287-.32.489-.46.07-.05.076-1.291-.556-1.317-.537-.022-.69.398-.667.816.023.418.242.763.389.761.281-.003.017.31-.137.361-.234.077-.556-.93-.519-1.414.039-.504.299-1.396.932-1.379.569.016.982.736.96 1.978-.003.21.924-.1 1.234.23.22.235-.758-2.201 1.422-2.369.575.111 1.126.304 1.356 1.635-.085.139.143 1.068-.212 1.178-.433.135-.7-.02-.45-.435.171-.417.004-1.479-.871-1.415-.876.064-.76 1.63-.52 1.662.24.03.845.463 1.267.546 1.386.272.368 1.073.547 2.043.204 1.095.919.805 1.562 3.705.134.176.666.343 1.185 2.57.467 2.005-.194 3.462.928 3.343.253-.027.622-.099.783-.666.42-1.484-.21-3.253-.847-4.447-.37-.695-.72-1.17-.904-1.332.73.435 1.662 1.823 1.877 2.854.282 1.354.484 1.927.056 3.358.247.125.861.388.861.683-.64-.53-2.597-.624-2.648.644-.334.006-.586.034-.801.291-.787.942-.056 2.834-.136 3.848-.07.893-.316 1.777-.454 2.674-.469-.018-.423-.364-.273-.85.133-.427.347-.964.36-1.478.014-.466-.037-.757-.153-.829-.117-.072-.3.074-.551.483-.538.873-1.702 1.258-2.79 1.395-1.087.137-2.098.028-2.633-.576-.183-.207-.487.056-.523.11-.048.074.177.217.347.532.248.459.484 1.156-.104 1.474.007-1.617-.5-1.712-1.02-2.7z" fill="#000"/></svg>