<svg data-name="Layer 1" xmlns="http://www.w3.org/2000/svg" viewBox="0 0 32 32"><title>icon-settings</title><path fill="#fff" d="M32 15a1.24 1.24 0 0 0-.75-1l-3-1.07a1.72 1.72 0 0 1-.92-.93l-.47-1.15a1.73 1.73 0 0 1 0-1.31l1.36-2.87a1.19 1.19 0 0 0-.22-1.2L26.53 4a1.19 1.19 0 0 0-1.2-.17l-2.86 1.36a1.73 1.73 0 0 1-1.31 0L20 4.71a1.73 1.73 0 0 1-.93-.92L18 .79A1.24 1.24 0 0 0 17 0h-2a1.24 1.24 0 0 0-1 .75l-1.07 3a1.72 1.72 0 0 1-.93.92l-1.15.47a1.73 1.73 0 0 1-1.31 0L6.66 3.83a1.19 1.19 0 0 0-1.2.17L4 5.47a1.19 1.19 0 0 0-.17 1.2l1.36 2.86a1.73 1.73 0 0 1 0 1.31L4.71 12a1.73 1.73 0 0 1-.92.93L.79 14A1.24 1.24 0 0 0 0 15v2a1.24 1.24 0 0 0 .75 1l3 1.07a1.72 1.72 0 0 1 .92.93l.47 1.15a1.73 1.73 0 0 1 0 1.31l-1.31 2.88A1.19 1.19 0 0 0 4 26.53L5.47 28a1.19 1.19 0 0 0 1.2.17l2.87-1.36a1.73 1.73 0 0 1 1.31 0l1.15.47a1.73 1.73 0 0 1 .93.92l1.07 3a1.23 1.23 0 0 0 1 .8h2a1.24 1.24 0 0 0 1-.75l1.07-3a1.72 1.72 0 0 1 .93-.92l1.15-.47a1.73 1.73 0 0 1 1.31 0l2.87 1.36a1.19 1.19 0 0 0 1.2-.17L28 26.53a1.19 1.19 0 0 0 .17-1.2l-1.36-2.87a1.73 1.73 0 0 1 0-1.31l.48-1.15a1.73 1.73 0 0 1 .92-.93l3-1.07a1.23 1.23 0 0 0 .79-1v-2zm-16 8.27A7.27 7.27 0 1 1 23.27 16 7.27 7.27 0 0 1 16 23.27z" data-name="Layer 1"/></svg>