<svg data-name="Layer 1" xmlns="http://www.w3.org/2000/svg" viewBox="0 0 30.99 30.58"><title>icon-nav-documentation</title><path fill="#0a2e64" d="M0 1.58v27.45a1.45 1.45 0 0 0 1.43 1.45H5.8a1.43 1.43 0 0 0 1.43-1.45V1.58A1.45 1.45 0 0 0 5.8.09H1.43A1.43 1.43 0 0 0 0 1.58zm8.68 0v27.45a1.45 1.45 0 0 0 1.43 1.45h4.38a1.43 1.43 0 0 0 1.43-1.45V1.58A1.45 1.45 0 0 0 14.49.09h-4.37a1.43 1.43 0 0 0-1.44 1.49zm8.14 1.4l7.12 26.56a1.45 1.45 0 0 0 1.76 1l4.22-1.13a1.43 1.43 0 0 0 1-1.77l-7.1-26.57a1.45 1.45 0 0 0-1.76-1l-4.22 1.1a1.43 1.43 0 0 0-1.01 1.78z"/></svg>