<svg width="45" height="26" viewBox="0 0 45 26" fill="none" xmlns="http://www.w3.org/2000/svg">
<path d="M38.4107 12.343C37.7193 12.343 37.054 12.4505 36.4283 12.6481C36.4206 8.95493 33.4262 5.96391 29.7325 5.96391C28.477 5.96391 27.3066 6.31545 26.3028 6.91637C24.6662 2.87119 20.7033 0.0162354 16.0713 0.0162354C10.3589 0.0162354 5.66101 4.35581 5.09351 9.91805C2.10975 11.1092 0 14.0233 0 17.4322C0 21.7703 3.4152 25.3104 7.70297 25.5119C7.73541 25.5143 7.76689 25.5215 7.8003 25.5215H38.2718C38.2877 25.5215 38.3023 25.5177 38.3183 25.5167C38.3492 25.5172 38.3797 25.5215 38.4107 25.5215C42.0501 25.5215 45 22.5717 45 18.9323C45.0005 15.2929 42.0501 12.343 38.4107 12.343Z" fill="white"/>
<path d="M20.506 8.16775C20.1292 8.20991 20.1393 8.49941 20.1531 9.03707C20.1674 9.57287 20.0624 10.0554 19.6093 10.321C19.5231 10.3653 19.4375 10.4093 19.3537 10.4578C19.3487 10.4602 19.3457 10.46 19.3402 10.4623C18.8711 10.7068 18.4063 10.5382 17.9593 10.2378C17.5126 9.93794 17.2726 9.77409 17.0356 10.0705C16.8006 10.3642 16.9603 10.1649 16.5787 10.6408C16.575 10.6458 16.5726 10.6487 16.5681 10.6543C16.1863 11.1312 16.3467 10.9321 16.1118 11.2248C15.8745 11.5215 16.0874 11.7198 16.4774 12.0899C16.864 12.4557 17.1284 12.8685 17.0032 13.3715C16.9719 13.4643 16.9452 13.5586 16.92 13.6538C16.9178 13.6615 16.9133 13.6636 16.9104 13.6724C16.7519 14.1766 16.3027 14.3853 15.7753 14.4895C15.2472 14.5931 14.9622 14.6467 15.004 15.0242C15.0454 15.3975 15.0168 15.1438 15.0844 15.7504C15.0852 15.7564 15.0854 15.7602 15.0868 15.7678C15.1541 16.3742 15.1255 16.1202 15.1668 16.4935C15.2087 16.8707 15.4991 16.8601 16.0368 16.8466C16.5713 16.832 17.0531 16.937 17.3195 17.389C17.3633 17.4749 17.4084 17.5619 17.4574 17.6451C17.4593 17.6515 17.4585 17.6547 17.4619 17.6602C17.7053 18.1282 17.5362 18.5943 17.2371 19.0397C16.9377 19.4872 16.7741 19.7266 17.0687 19.9641C17.3643 20.1985 17.1642 20.0391 17.6396 20.4212C17.6433 20.4236 17.6449 20.4257 17.6486 20.4283C17.6502 20.4294 17.6512 20.4305 17.6525 20.432C18.1293 20.8128 17.9302 20.6524 18.225 20.8875C18.5209 21.124 18.72 20.9127 19.0894 20.5222C19.4555 20.1341 19.871 19.8681 20.3758 19.998C20.4662 20.0272 20.558 20.054 20.6505 20.0781C20.6601 20.0818 20.6627 20.0869 20.6725 20.0898C21.1755 20.2481 21.3855 20.6974 21.4884 21.2245C21.5939 21.7521 21.6474 22.0365 22.0242 21.9962C22.3983 21.9535 22.144 21.9824 22.751 21.9162C22.7552 21.9162 22.7568 21.9156 22.761 21.9151C22.7634 21.9151 22.7647 21.9151 22.7677 21.9146C23.3743 21.8462 23.1195 21.8732 23.4941 21.8324C23.8704 21.79 23.8622 21.4999 23.8468 20.9628C23.8317 20.4251 23.9375 19.941 24.394 19.6765C24.4786 19.6332 24.5619 19.5903 24.643 19.5428C24.6491 19.5399 24.6531 19.5413 24.6594 19.5373C25.1285 19.2942 25.5938 19.4633 26.04 19.7626C26.4876 20.0617 26.7268 20.225 26.9638 19.9304C27.1982 19.6359 27.0391 19.8355 27.4206 19.3594C27.4241 19.3559 27.4249 19.3541 27.4283 19.3509C27.4296 19.349 27.4296 19.3477 27.4318 19.3464C27.8128 18.8694 27.6524 19.068 27.8883 18.7748C28.1241 18.4789 27.9127 18.2806 27.5227 17.91C27.1335 17.5423 26.8662 17.1268 26.9988 16.6197C27.0272 16.5311 27.0531 16.4415 27.077 16.3511C27.0807 16.3413 27.086 16.3386 27.0892 16.3267C27.248 15.8241 27.6972 15.6146 28.224 15.511C28.7514 15.406 29.0372 15.3524 28.9961 14.9762C28.9539 14.6021 28.9818 14.8558 28.916 14.2493C28.915 14.2453 28.9155 14.2429 28.915 14.2387C28.915 14.236 28.9144 14.2347 28.9139 14.2323C28.846 13.6252 28.8736 13.8802 28.832 13.5056C28.7904 13.1289 28.5006 13.1387 27.9623 13.1533C27.4243 13.1681 26.9405 13.0623 26.6758 12.6053C26.6753 12.605 26.6753 12.605 26.6753 12.6045C26.6316 12.521 26.5897 12.438 26.5427 12.3571C26.5401 12.351 26.5406 12.3468 26.5369 12.3402C26.294 11.8714 26.4621 11.4062 26.7623 10.9594C27.0608 10.5124 27.2252 10.273 26.9299 10.0355C26.6355 9.80087 26.8349 9.96047 26.3595 9.57923C26.3545 9.57552 26.3526 9.5734 26.3479 9.57048C26.3479 9.56916 26.3468 9.56969 26.346 9.56836C25.8698 9.18713 26.0681 9.34726 25.7741 9.11263C25.4782 8.87561 25.2804 9.08744 24.9092 9.47769C24.5425 9.86688 24.127 10.1323 23.6209 10.0008C23.5313 9.97267 23.4403 9.94642 23.3499 9.92229C23.3404 9.91858 23.3375 9.91355 23.3271 9.91063C22.8231 9.75156 22.6136 9.30298 22.5102 8.77514C22.4065 8.24729 22.3522 7.96282 21.9757 8.00391C21.5979 8.0458 21.8643 8.01637 21.2328 8.08663C20.6261 8.15423 20.8801 8.12666 20.506 8.16775ZM24.6069 14.7106C24.7666 16.1504 23.7283 17.4474 22.2888 17.6072C20.8488 17.7671 19.5512 16.7292 19.3916 15.2898C19.232 13.8487 20.2698 12.5522 21.7095 12.3926C23.15 12.2323 24.4465 13.2697 24.6069 14.7106Z" fill="#292885"/>
</svg>
