<svg width="48" height="47" viewBox="0 0 48 47" fill="none" xmlns="http://www.w3.org/2000/svg">
<path d="M47.8744 17.4423C47.5584 16.4669 46.6963 15.7763 45.6804 15.684L31.8242 14.4216L26.3482 1.55536C25.9439 0.610088 25.024 0 24 0C22.9761 0 22.0558 0.610088 21.654 1.55536L16.178 14.4216L2.31964 15.684C1.30376 15.7781 0.443517 16.4687 0.125641 17.4423C-0.190404 18.4177 0.101471 19.4875 0.869793 20.1638L11.344 29.3809L8.25565 43.0314C8.02969 44.0351 8.41788 45.073 9.24773 45.675C9.69378 46.0002 10.2178 46.1627 10.7437 46.1627C11.1956 46.1627 11.6479 46.0421 12.0518 45.7996L24 38.6299L35.946 45.7996C36.8224 46.3251 37.9243 46.277 38.7523 45.675C39.5822 45.073 39.9704 44.0351 39.7444 43.0314L36.6561 29.3809L47.1303 20.1638C47.8982 19.4875 48.1905 18.4199 47.8744 17.4423Z" fill="white"/>
</svg>
