<svg width="160" height="160" viewBox="0 0 160 160" fill="none" xmlns="http://www.w3.org/2000/svg">
<path d="M120 0H8C3.58172 0 0 3.58172 0 8V120C0 124.418 3.58172 128 8 128H120C124.418 128 128 124.418 128 120V8C128 3.58172 124.418 0 120 0Z" fill="#154CA0"/>
<path d="M160 152L160 40C160 35.5817 156.418 32 152 32L144 32C139.582 32 136 35.5817 136 40L136 128C136 132.418 132.418 136 128 136L40 136C35.582 136 32 139.582 32 144V152C32 156.418 35.582 160 40 160L152 160C156.418 160 160 156.418 160 152Z" fill="#154CA0"/>
</svg>
