<?xml version="1.0" encoding="utf-8"?>
<!-- Generator: Adobe Illustrator 21.1.0, SVG Export Plug-In . SVG Version: 6.00 Build 0)  -->
<svg version="1.1" id="Layer_1" xmlns="http://www.w3.org/2000/svg" xmlns:xlink="http://www.w3.org/1999/xlink" x="0px" y="0px"
	 viewBox="0 0 32 32" style="enable-background:new 0 0 32 32;" xml:space="preserve">
<style type="text/css">
	.st0{fill:#154CA0;}
</style>
<title>icon-settings</title>
<path class="st0" d="M30.5,20.1L27.7,18c0,0,0-0.1,0-0.1c0,0,0,0,0-0.1c0-0.2,0.1-0.4,0.1-0.5c0,0,0,0,0,0c0-0.2,0-0.4,0-0.6
	c0,0,0,0,0,0c0-0.2,0-0.4,0-0.6c0,0,0,0,0,0c0,0,0,0,0,0c0,0,0-0.1,0-0.1c0,0,0,0,0,0c0-0.1,0-0.2,0-0.2c0-0.1,0-0.1,0-0.2
	c0-0.1,0-0.2,0-0.3c0,0,0,0,0,0c0,0,0-0.1,0-0.1c0-0.1,0-0.1,0-0.2c0,0,0,0,0,0c0,0,0,0,0,0c0,0,0-0.1,0-0.1c0,0,0-0.1,0-0.1
	c0,0,0,0,0-0.1c0,0,0,0,0-0.1c0-0.1,0-0.3-0.1-0.4c0,0,0,0,0,0l2.8-2.1c0.7-0.4,0.9-1.2,0.5-1.9L28.7,6c-0.4-0.7-1.2-0.9-1.9-0.5
	l-3.2,1.4c0,0,0,0-0.1,0c0,0,0,0,0,0c0,0-0.1-0.1-0.1-0.1c0,0-0.1-0.1-0.1-0.1c0,0-0.1-0.1-0.1-0.1c0,0,0,0-0.1,0c0,0-0.1,0-0.1-0.1
	c0,0,0,0-0.1,0c0,0-0.1-0.1-0.1-0.1c0,0,0,0,0,0c0,0,0,0-0.1,0c-0.1,0-0.1-0.1-0.2-0.1c0,0,0,0,0,0c-0.1-0.1-0.2-0.1-0.3-0.2
	c0,0-0.1,0-0.1,0c-0.2-0.1-0.5-0.3-0.7-0.4c0,0,0,0,0,0c-0.3-0.2-0.6-0.3-1-0.4c0,0,0,0,0,0c0,0-0.1,0-0.1-0.1l-0.4-3.5
	c0-0.8-0.6-1.4-1.4-1.4h-4.7c-0.8,0-1.4,0.6-1.4,1.4l-0.4,3.5c0,0,0,0-0.1,0c0,0,0,0-0.1,0c-0.1,0.1-0.3,0.1-0.4,0.2c0,0,0,0-0.1,0
	c-0.1,0.1-0.2,0.1-0.3,0.2c0,0,0,0,0,0c0,0,0,0,0,0c0,0-0.1,0-0.1,0.1c-0.1,0-0.2,0.1-0.3,0.1c-0.1,0-0.1,0.1-0.2,0.1
	c0,0-0.1,0-0.1,0.1c0,0,0,0,0,0c0,0,0,0,0,0c0,0,0,0,0,0C9.9,5.9,9.7,6,9.6,6c0,0,0,0-0.1,0c0,0,0,0-0.1,0c0,0,0,0,0,0
	C9.3,6.2,9.2,6.3,9.1,6.4c0,0,0,0-0.1,0C8.9,6.5,8.8,6.6,8.6,6.7c0,0,0,0-0.1,0.1c0,0-0.1,0-0.1,0.1L5.2,5.5C4.6,5.1,3.7,5.3,3.3,6
	L1,10c-0.4,0.7-0.2,1.5,0.5,1.9L4.3,14c0,0,0,0.1,0,0.1c0,0,0,0.1,0,0.1c0,0.2,0,0.3-0.1,0.5c0,0,0,0.1,0,0.1c0,0.1,0,0.3,0,0.4
	c0,0,0,0,0,0c0,0,0,0,0,0c0,0,0,0.1,0,0.1c0,0.2,0,0.3,0,0.5c0,0,0,0,0,0.1c0,0,0,0.1,0,0.1c0,0,0,0,0,0.1c0,0,0,0,0,0.1
	c0,0.1,0,0.1,0,0.2c0,0.1,0,0.2,0,0.3c0,0.1,0,0.1,0,0.2c0,0,0,0,0,0c0,0,0,0.1,0,0.1c0,0,0,0.1,0,0.1c0,0.1,0,0.2,0,0.3
	c0,0,0,0,0,0c0,0.2,0,0.3,0.1,0.5c0,0,0,0,0,0l-2.8,2.1C0.8,20.4,0.6,21.3,1,22L3.3,26c0.4,0.7,1.2,0.9,1.9,0.5l3.2-1.4
	c0,0,0,0,0.1,0.1c0,0,0,0,0,0l0,0c0,0,0.1,0.1,0.1,0.1c0.1,0,0.1,0.1,0.2,0.1c0,0,0.1,0,0.1,0.1c0,0,0.1,0.1,0.1,0.1c0,0,0,0,0,0
	c0,0,0,0,0.1,0c0.1,0,0.1,0.1,0.2,0.1c0,0,0,0,0,0c0,0,0,0,0.1,0c0.2,0.1,0.4,0.2,0.5,0.3c0,0,0.1,0,0.1,0.1
	c0.2,0.1,0.5,0.3,0.7,0.4c0,0,0,0,0,0c0.4,0.2,0.7,0.3,1.1,0.5l0.4,3.5c0,0.8,0.6,1.4,1.4,1.4l4.7,0c0.8,0,1.4-0.6,1.4-1.4l0.4-3.5
	c0,0,0,0,0.1,0c0,0,0,0,0.1,0c0.1-0.1,0.3-0.1,0.4-0.2c0,0,0.1,0,0.1,0c0.1-0.1,0.2-0.1,0.3-0.2c0,0,0,0,0,0l0,0c0,0,0,0,0,0
	c0,0,0.1,0,0.1-0.1c0.1,0,0.2-0.1,0.3-0.1c0.1,0,0.1-0.1,0.2-0.1c0,0,0.1,0,0.1-0.1c0,0,0,0,0,0c0,0,0,0,0,0c0,0,0,0,0,0
	c0.2-0.1,0.3-0.2,0.5-0.3c0,0,0,0,0,0c0,0,0,0,0.1,0c0.1-0.1,0.3-0.2,0.4-0.3c0,0,0,0,0,0c0.1-0.1,0.3-0.2,0.4-0.3c0,0,0,0,0.1,0
	c0,0,0.1-0.1,0.1-0.1l3.2,1.4c0.7,0.4,1.5,0.2,1.9-0.5L31,22C31.4,21.3,31.2,20.4,30.5,20.1z M16,20.9c-2.7,0-4.9-2.2-4.9-4.9
	s2.2-4.9,4.9-4.9s4.9,2.2,4.9,4.9S18.7,20.9,16,20.9z"/>
</svg>
