<svg xmlns="http://www.w3.org/2000/svg" viewBox="0 0 20 11.42"><defs><style>.cls-1{fill:#154ca0;}.cls-2{fill:#15d8a0;}</style></defs><title>icon-auto-search</title><g id="Layer_2" data-name="Layer 2"><g id="Layer_1-2" data-name="Layer 1"><g id="Layer_2-2" data-name="Layer 2"><g id="Layer_1-2-2" data-name="Layer 1-2"><path class="cls-1" d="M10,0C6.34,0,3.5,2.18,0,5.71c3,3,5.54,5.71,10,5.71S17.74,8,20,5.78C17.69,3.15,14.41,0,10,0Zm0,9.79a4,4,0,0,1-4-4s0-.05,0-.08a4,4,0,0,1,8,0,4,4,0,0,1-3.92,4.08Z"/><path class="cls-2" d="M10,4.29a1.43,1.43,0,0,1,.34-.92H10A2.38,2.38,0,1,0,12.33,5.8V5.44A1.43,1.43,0,0,1,10,4.29Z"/></g></g></g></g></svg>