<svg width="31" height="48" viewBox="0 0 31 48" fill="none" xmlns="http://www.w3.org/2000/svg">
<path d="M21.3613 43C21.3613 45.76 18.8466 48 15.7303 48C12.6253 48 10.0993 45.76 10.0993 43C10.0993 40.24 12.6253 38 15.7303 38C18.8466 38 21.3613 40.238 21.3613 43ZM15.9083 0C6.82976 0 0 5.386 0 16H8.91181C8.91181 11.392 10.9533 7.622 15.7258 7.622C18.5357 7.622 21.5168 9.278 21.7737 12.444C22.0508 15.776 20.0454 17.466 17.5104 19.608C10.9218 25.168 11.1651 27.706 11.1651 34H20.0499C20.0499 31.096 19.6961 28.984 24.1915 24.682C27.1906 21.81 30.9198 18.238 30.9987 12.796C31.1046 4.87 24.7998 0 15.9083 0V0Z" fill="white"/>
</svg>
