<svg xmlns="http://www.w3.org/2000/svg" viewBox="0 0 112.2 112.18"><defs><style>.cls-1{fill:#fff;}</style></defs><title>icon-logo-sync</title><g id="Layer_2" data-name="Layer 2"><g id="Layer_1-2" data-name="Layer 1"><path class="cls-1" d="M95.75,50.46A39.12,39.12,0,0,1,84.53,84.15a40.62,40.62,0,0,1-50.6,5L44.87,78.53,4.67,72.93l5.61,39.26,12.27-11.76c22,16.25,53.31,14.72,73.34-5A54.8,54.8,0,0,0,112.14,53.7ZM27.68,28.05a40.59,40.59,0,0,1,50.59-5l-11,10.66,40.2,5.61L101.9,0,89.64,11.79a56.69,56.69,0,0,0-73.34,5A54.79,54.79,0,0,0,.05,58.5l16.4,3.23A39.12,39.12,0,0,1,27.68,28.05Z"/><polygon class="cls-1" points="55.93 52.76 47.56 68.51 65.69 84 71.7 60.8 55.93 52.76"/><polygon class="cls-1" points="48.62 29.85 33.52 56.52 44.03 65.5 54.26 47.44 72.86 56.31 76.29 43.03 48.62 29.85"/></g></g></svg>