<svg xmlns="http://www.w3.org/2000/svg" viewBox="0 0 158 31.66"><defs><style>.cls-1{fill:#fff;}</style></defs><title>kite-logo-enterprise-no-kite@vector</title><g id="Layer_2" data-name="Layer 2"><g id="Layer_1-2" data-name="Layer 1"><polygon class="cls-1" points="12.78 12.51 7.66 22.14 18.82 31.66 22.49 17.46 12.78 12.51"/><polygon class="cls-1" points="8.83 0 0 15.6 6.77 21.38 12.43 11.4 22.78 16.33 25.01 7.71 8.83 0"/><path class="cls-1" d="M51.47,9.83v2h-6.8v3.37h6.11v1.92H44.67v3.41h7v2H42.52V9.83Z"/><path class="cls-1" d="M64,9.83h2.15V22.57H63.81l-7.22-9.3v9.3H54.44V9.83h2.15L64,19.35Z"/><path class="cls-1" d="M74.5,11.8V22.57H72.35V11.8H68.48v-2h9.88v2Z"/><path class="cls-1" d="M89.65,9.83v2h-6.8v3.37H89v1.92H82.85v3.41h7v2H80.7V9.83Z"/><path class="cls-1" d="M102.8,14a3.7,3.7,0,0,1-2.75,4l3.34,4.63h-2.74l-3-4.29H94.78v4.29H92.63V9.83h4.74a6.87,6.87,0,0,1,4.18,1A3.76,3.76,0,0,1,102.8,14Zm-2.86,1.81a2.27,2.27,0,0,0,.66-1.81,1.94,1.94,0,0,0-.67-1.71,4.49,4.49,0,0,0-2.41-.46H94.78v4.56h2.68A3.94,3.94,0,0,0,99.94,15.77Z"/><path class="cls-1" d="M114.51,10.94a4.22,4.22,0,0,1,1.33,3.43,4.07,4.07,0,0,1-1.36,3.39,6.66,6.66,0,0,1-4.17,1.08h-2.26v3.74H105.9V9.83h4.38A6.56,6.56,0,0,1,114.51,10.94ZM113,16.2a2.81,2.81,0,0,0,.65-2,2.08,2.08,0,0,0-.82-1.87,4.73,4.73,0,0,0-2.57-.55h-2.19v5.11h2.5A3.33,3.33,0,0,0,113,16.2Z"/><path class="cls-1" d="M128.55,14a3.7,3.7,0,0,1-2.75,4l3.34,4.63H126.4l-3-4.29h-2.83v4.29h-2.15V9.83h4.74a6.87,6.87,0,0,1,4.18,1A3.76,3.76,0,0,1,128.55,14Zm-2.86,1.81a2.27,2.27,0,0,0,.66-1.81,1.94,1.94,0,0,0-.67-1.71,4.49,4.49,0,0,0-2.41-.46h-2.74v4.56h2.68A3.94,3.94,0,0,0,125.69,15.77Z"/><path class="cls-1" d="M131.65,9.83h2.15V22.57h-2.15Z"/><path class="cls-1" d="M141.19,11.51a2.83,2.83,0,0,0-1.54.38,1.28,1.28,0,0,0-.6,1.16,1.35,1.35,0,0,0,.6,1.19,9.12,9.12,0,0,0,2.56.88,7.05,7.05,0,0,1,3,1.33,3.15,3.15,0,0,1,1,2.53,3.34,3.34,0,0,1-1.26,2.71,5,5,0,0,1-3.3,1,7.75,7.75,0,0,1-5.31-2.06L137.65,19a6.07,6.07,0,0,0,4,1.68,2.74,2.74,0,0,0,1.65-.45,1.4,1.4,0,0,0,.61-1.19,1.33,1.33,0,0,0-.57-1.15,6.06,6.06,0,0,0-2-.75,17.71,17.71,0,0,1-2.13-.62,4.81,4.81,0,0,1-1.29-.74,3.08,3.08,0,0,1-1.13-2.63,3.19,3.19,0,0,1,1.29-2.73,5.18,5.18,0,0,1,3.18-1,7.63,7.63,0,0,1,2.43.4A6.34,6.34,0,0,1,145.78,11l-1.15,1.62a4.33,4.33,0,0,0-1.53-.84A5.9,5.9,0,0,0,141.19,11.51Z"/><path class="cls-1" d="M157.78,9.83v2H151v3.37h6.11v1.92H151v3.41h7v2h-9.17V9.83Z"/></g></g></svg>
