<svg width="128" height="128" viewBox="0 0 128 128" fill="none" xmlns="http://www.w3.org/2000/svg">
<path d="M112.28 65.24C111.82 64.45 111.23 63.71 110.38 63.03C103.73 57.7 91.7 57.44 83.37 58.32C76.15 59.08 69.96 62.35 64.72 67.32C62.83 69.12 61.26 71.12 59.36 72.94C58.05 74.19 56.72 76.31 55.08 77.13C52.34 78.49 51.87 76.89 51.87 74.41C51.9 68.81 52.78 63.67 53.47 58.2C53.82 55.37 54.24 52.6 54.56 49.78C54.85 47.13 55.7 46.64 58.3 46.57C63.09 46.44 67.97 45.98 72.36 44.56C76.74 43.15 81.48 41.21 86.15 41.21C88.7 41.21 90.66 42.61 93.11 42.82C95.45 43.02 97.74 42.9 99.93 42.15C102.14 41.39 106.45 39.81 107.5 37.46C108.3 35.66 107.2 33.18 107.01 31.6C106.74 29.27 104.85 28.89 103.92 26.72C103.08 24.78 103.75 22.57 102.61 20.89C101.5 19.24 101.25 16.84 100.49 14.99C99.75 13.14 99.08 11.14 98.08 9.50002C96.75 7.32002 96.09 6.13002 93.62 5.33002C92.04 4.82002 90.52 3.90002 88.84 3.71002C84.45 3.22002 79.88 4.27002 75.97 5.74002C70.3 7.88002 64.25 9.88002 59.22 13.36C55.63 15.84 52.19 18.31 48.65 20.99C46.66 22.5 44.47 23.81 42.73 25.56C42.5 25.79 42.27 26.07 42.04 26.36C38.17 27.72 33.5 39.41 31.73 42.23C27.63 48.77 23.11 55.04 19.76 62.02C14.19 73.67 10.37 89.81 15.03 102.41C16.81 107.23 21.43 112.43 26.79 113.01C32.65 113.65 38.24 114.09 43.96 116.06C47.85 117.4 51.68 119 55.73 119.83C60.66 120.83 65.72 120.48 70.73 120.48C75.84 120.48 75.68 121.04 81.53 121.25C82.68 121.29 85.45 121.56 86.6 121.48L88.8 121.56L119.33 122.63V68.52L112.28 65.24ZM39.55 28.88L40.87 27.78C40.48 28.23 40.06 28.64 39.55 28.88Z" fill="#FCC21B"/>
<path d="M105.05 26.57C103.56 20.49 104.23 21.64 100.55 12.31C97.7899 5.29999 92.9599 3.67999 87.6699 3.60999C89.2999 3.80999 90.8799 4.03999 92.2899 5.08999C93.7099 6.12999 94.7599 10.47 95.6499 12.07C96.1199 12.92 96.6099 14.17 97.0499 15.35C97.6599 17.05 98.1299 18.61 98.1299 18.61C99.2099 21.51 100.24 25.34 100.39 25.84C100.46 26.05 100.47 26.24 100.46 26.42C100.45 26.65 100.39 26.85 100.3 27.03C100.07 27.46 99.6699 27.77 99.2199 27.96C98.4299 28.29 97.0699 28.39 96.3999 27.42C95.7399 26.46 94.4699 23.39 94.2099 22.46L91.7799 16.25C91.7799 16.25 91.2599 15.27 90.4199 15.06C89.7499 14.89 88.6599 15.2 88.2799 15.8C87.7899 16.57 88.1799 17.73 88.1799 17.73C88.1799 17.73 92.4099 28.47 92.6099 29.05C92.9899 30.16 92.2799 30.82 91.5099 31.18C90.7199 31.52 89.3799 31.64 88.7099 30.7C88.0499 29.8 83.9999 20.13 83.6999 19.42L83.6699 19.34C83.6699 19.34 83.1499 18.36 82.3099 18.16C81.6399 17.99 80.5399 18.29 80.1699 18.9C79.5799 19.87 80.0199 20.86 80.0199 20.86C80.8999 22.81 84.9099 31.68 85.0999 32.2C85.5099 33.27 84.8399 33.95 84.0899 34.32C83.3399 34.68 82.0199 34.85 81.3199 33.95C80.6199 33.05 75.4299 22.73 75.4299 22.73C75.4299 22.73 74.8199 21.81 73.9599 21.69C73.2799 21.59 72.1699 21.98 71.9099 22.64C71.5999 23.44 71.9999 24.58 71.9999 24.58C71.9999 24.58 77.1999 35.02 77.4799 35.58C77.9999 36.65 77.3799 37.4 76.6399 37.85C75.8999 38.29 74.5699 38.58 73.7599 37.72C73.1199 37.03 68.9399 29.8 67.2299 26.84C63.9699 29.35 65.8899 32.65 66.4999 34.6C66.8699 35.76 66.9499 39.71 65.0299 41.45C63.7299 42.63 62.2099 42.9 61.0199 42.89C60.4499 42.84 59.8699 42.76 59.2999 42.67C59.1599 42.64 59.0599 42.6 59.0599 42.6C59.0599 42.6 59.0999 42.63 59.1199 42.64C57.9799 42.48 56.8399 42.28 55.6599 42C54.7099 41.77 53.7299 41.98 52.9499 42.54C52.1599 43.1 51.6599 43.98 51.5699 44.94L48.3099 80.6C48.2299 81.49 49.2999 84.07 49.8699 84.75C51.9799 80.92 52.3599 80.13 55.6099 76.81C55.5899 76.84 56.0399 69.14 56.0399 69.14L57.8599 49.21C69.9799 51.06 79.9899 47.59 84.2699 45.73C87.0999 47.64 92.9099 49.35 103.74 44.83C103.88 44.77 104 44.7 104.13 44.64C107.67 43.02 109.1 40.5 109.65 38.63C111.08 33.7 106.15 28.35 105.05 26.57ZM103.89 34.78C103.81 35.3 103.61 35.75 103.33 36.16C102.71 37.06 101.74 37.7 100.91 38.05C98.0899 39.23 95.6599 40.23 95.0599 40.38C92.8099 40.96 91.6499 40.39 91.0899 39.38C90.5299 38.37 90.2499 36.6 91.5499 35.62C92.5999 34.83 99.1799 31.78 101.7 30.62C102.3 30.34 102.68 30.17 102.68 30.17C102.68 30.17 104.25 32.18 103.89 34.78Z" fill="#E48C15"/>
<path d="M119.35 120.28C73.4199 119.89 33.1199 112.82 26.1799 110.88C21.7799 109.65 14.5499 101.25 13.9399 98.75C16.7499 109.12 24.5299 115.39 28.6199 117.62C32.7099 119.85 75.2099 126.57 119.34 126.94V120.28H119.35Z" fill="#E48C15"/>
<path d="M108.47 90.17C101.72 94.97 91.8599 95.99 84.7799 95.99C78.1599 95.99 73.0699 95.12 73.0199 95.11C72.2699 94.98 71.5199 95.38 71.2099 96.07C70.8999 96.77 71.1099 97.59 71.7099 98.06C72.0999 98.36 81.3699 105.44 93.6699 105.44C95.6299 105.44 97.5799 105.26 99.4799 104.89C108.82 103.1 111.16 95.35 111.1 91.5C111.09 90.88 110.74 90.32 110.19 90.04C109.63 89.76 108.97 89.81 108.47 90.17Z" fill="#E48C15"/>
</svg>
