<?xml version="1.0" encoding="utf-8"?>
<!-- Generator: Adobe Illustrator 21.1.0, SVG Export Plug-In . SVG Version: 6.00 Build 0)  -->
<svg version="1.1" id="Layer_1" xmlns="http://www.w3.org/2000/svg" xmlns:xlink="http://www.w3.org/1999/xlink" x="0px" y="0px"
	 viewBox="0 0 20 11.4" style="enable-background:new 0 0 20 11.4;" xml:space="preserve">
<style type="text/css">
	.st0{fill:#154CA0;}
	.st1{fill:#15D8A0;}
	.st2{fill:#F38C35;}
</style>
<title>icon-auto-search</title>
<g id="Layer_2">
	<g id="Layer_1-2">
		<path class="st0" d="M10-20.5c-3.7,0-6.5,2.2-10,5.7c3,3,5.5,5.7,10,5.7s7.7-3.4,10-5.6C17.7-17.4,14.4-20.5,10-20.5z M10-10.7
			c-2.2,0-4-1.8-4-4c0,0,0-0.1,0-0.1c0-2.2,1.8-4,4-4s4,1.8,4,4C14-12.6,12.3-10.8,10-10.7C10.1-10.7,10-10.7,10-10.7z"/>
		<path class="st1" d="M10-16.2c0-0.3,0.1-0.7,0.3-0.9H10c-1.3,0-2.4,1-2.4,2.3c0,1.3,1,2.4,2.3,2.4c1.3,0,2.4-1,2.4-2.3
			c0,0,0,0,0,0c0-0.1,0-0.2,0-0.3c-0.6,0.5-1.5,0.4-2-0.2C10.1-15.6,10-15.9,10-16.2z"/>
	</g>
</g>
<g id="Layer_2_1_">
	<g id="Layer_1-2_1_">
		<path class="st0" d="M10,0C6.3,0,3.5,2.2,0,5.7c3,3,5.5,5.7,10,5.7S17.7,8,20,5.8C17.7,3.2,14.4,0,10,0z M10,9.8c-2.2,0-4-1.8-4-4
			c0,0,0-0.1,0-0.1c0-2.2,1.8-4,4-4s4,1.8,4,4C14,7.9,12.3,9.7,10,9.8C10.1,9.8,10,9.8,10,9.8z"/>
		<rect x="5.2" y="0.3" class="st2" width="4" height="10.9"/>
		<rect x="10.7" y="0.3" class="st2" width="4" height="10.9"/>
	</g>
</g>
</svg>
