<svg xmlns="http://www.w3.org/2000/svg" viewBox="0 0 16 16" width="32" height="32">
  <style>.icon-canvas-transparent{opacity:0;fill:#f6f6f6}.icon-vs-out{fill:#f6f6f6}.icon-vs-bg{fill:#1c7bcf}</style>
  <path class="icon-canvas-transparent" d="M16 16H0V0h16v16z" id="canvas"/>
  <path class="icon-vs-bg" d="M15 5.5a4.5 4.5 0 0 1-4.5 4.5c-.693 0-1.342-.17-1.929-.45l-5.01 5.01c-.293.294-.677.44-1.061.44s-.768-.146-1.061-.439a1.5 1.5 0 0 1 0-2.121l5.01-5.01A4.483 4.483 0 0 1 6 5.5 4.5 4.5 0 0 1 10.5 1c.693 0 1.342.17 1.929.45L9.636 4.243l2.121 2.121 2.793-2.793c.28.587.45 1.236.45 1.929z" id="iconBg"/>
</svg>