<svg xmlns="http://www.w3.org/2000/svg" viewBox="0 0 16 16" width="32" height="32">
  <style>.icon-canvas-transparent{opacity:0;fill:#f6f6f6}.icon-vs-out{fill:#f6f6f6}.icon-vs-fg{fill:#f0eff1}.icon-vs-action-orange{fill:#c27d1a}</style>
  <path class="icon-canvas-transparent" d="M16 16H0V0h16v16z" id="canvas"/>
  <path class="icon-vs-action-orange" d="M3 11h4.001v1H3v-1zm0-1h4.001V9H3v1zm6-2v5l-1 1H2l-1-1V8l1-1h6l1 1zM8 8H2v5h6V8zm1-2l1 1h3V6H9zm0-1h4V4H9v1zm5-3H8L7 3v3h1V3h6v5h-4v1h4l1-1V3l-1-1z" id="iconBg"/>
</svg>