<svg preserveAspectRatio="xMidYMin" width="278" height="111" viewBox="0 0 278 111" fill="none" xmlns="http://www.w3.org/2000/svg">
<path d="M238.966 50.8995L223.289 80.3954L257.249 109.393L268.489 65.9506L238.966 50.8995Z" fill="#11182F"/>
<path d="M225.281 8L197 57.9439L216.686 74.7542L235.829 40.9508L270.662 57.5493L277.092 32.6919L225.281 8Z" fill="#11182F"/>
<path d="M143.686 60.6992H159.585V54.292H143.686V37.6016H137.278V54.292H121.379V60.6992H137.278V77.3896H143.686V60.6992Z" fill="black"/>
<g clip-path="url(#clip0)">
<path fill-rule="evenodd" clip-rule="evenodd" d="M2.11635 59.6182C2.2684 62.7432 5.3999 61.2973 6.81828 60.3203C8.16462 59.3928 8.55827 60.1638 8.67648 58.3333C8.7539 57.1302 8.89301 55.9271 8.82455 54.7193C6.78863 54.5353 4.57419 55.0187 2.90505 56.2275C2.04531 56.8503 0.433286 58.8381 2.11635 59.6182Z" fill="#F6D2A2" stroke="black" stroke-width="3" stroke-linecap="round"/>
<path fill-rule="evenodd" clip-rule="evenodd" d="M2.11633 59.6182C2.57208 59.4492 3.05509 59.3292 3.36435 58.9183L2.11633 59.6182Z" fill="#C6B198"/>
<path d="M2.11633 59.6182C2.57208 59.4492 3.05509 59.3292 3.36435 58.9183" stroke="black" stroke-width="3" stroke-linecap="round"/>
<path fill-rule="evenodd" clip-rule="evenodd" d="M9.35307 22.3902C-2.64694 19.0261 6.2761 3.80715 15.9124 10.0669L9.35307 22.3902Z" fill="#6AD7E5" stroke="black" stroke-width="3" stroke-linecap="round"/>
<path fill-rule="evenodd" clip-rule="evenodd" d="M62.6688 8.92487C72.1671 2.27386 80.7504 17.2798 69.7115 21.0553L62.6688 8.92487Z" fill="#6AD7E5" stroke="black" stroke-width="3" stroke-linecap="round"/>
<path fill-rule="evenodd" clip-rule="evenodd" d="M64.7119 98.0783C67.1245 99.5665 71.5345 104.066 67.9152 106.248C64.4376 109.423 62.4913 102.764 59.439 101.842C60.7535 100.062 62.4196 98.4394 64.7119 98.0783Z" fill="#F6D2A2" stroke="black" stroke-width="3" stroke-linecap="round"/>
<path d="M67.9152 106.248C67.3787 105.185 67.1986 103.943 66.3028 103.086" stroke="black" stroke-width="3" stroke-linecap="round"/>
<path fill-rule="evenodd" clip-rule="evenodd" d="M21.6088 103.164C18.777 103.601 17.1831 106.147 14.8224 107.441C12.5978 108.763 11.7468 107.017 11.5464 106.663C11.1978 106.505 11.227 106.811 10.6889 106.27C8.62669 103.026 12.8376 100.654 15.0304 99.0423C18.0845 98.4269 19.9984 101.066 21.6088 103.164Z" fill="#F6D2A2" stroke="black" stroke-width="3" stroke-linecap="round"/>
<path d="M11.5466 106.663C11.6545 105.426 12.638 104.598 13.1065 103.553" stroke="black" stroke-width="3" stroke-linecap="round"/>
<path fill-rule="evenodd" clip-rule="evenodd" d="M9.85384 18.1868C8.27068 17.352 7.10922 16.2181 8.07763 14.3926C8.97419 12.7026 10.6397 12.8862 12.2231 13.721L9.85384 18.1868Z" fill="black"/>
<path fill-rule="evenodd" clip-rule="evenodd" d="M67.2105 16.5996C68.7937 15.7647 69.9551 14.6309 68.9867 12.8054C68.0902 11.1154 66.4246 11.2989 64.8412 12.1338L67.2105 16.5996Z" fill="black"/>
<path fill-rule="evenodd" clip-rule="evenodd" d="M78.1084 59.2214C77.9563 62.3464 74.8248 60.9005 73.4064 59.9235C72.0601 58.996 71.6664 59.767 71.5482 57.9366C71.4708 56.7335 71.3317 55.5303 71.4002 54.3225C73.4361 54.1386 75.6505 54.6219 77.3197 55.8307C78.1792 56.4535 79.7914 58.4413 78.1084 59.2214Z" fill="#F6D2A2" stroke="black" stroke-width="3" stroke-linecap="round"/>
<path fill-rule="evenodd" clip-rule="evenodd" d="M78.1084 59.2215C77.6526 59.0524 77.1696 58.9324 76.8604 58.5215L78.1084 59.2215Z" fill="#C6B198"/>
<path d="M78.1084 59.2215C77.6526 59.0524 77.1696 58.9324 76.8604 58.5215" stroke="black" stroke-width="3" stroke-linecap="round"/>
<path fill-rule="evenodd" clip-rule="evenodd" d="M38.9098 2.60382C50.9233 2.60382 62.1852 4.31662 68.0559 15.8231C73.3254 28.7204 71.4515 42.6279 72.2551 56.2585C72.9453 67.9626 74.4755 81.4842 69.0291 92.3302C63.2995 103.741 48.9823 106.612 37.1867 106.191C27.9216 105.861 16.7292 102.847 11.5001 94.4083C5.36525 84.5081 8.26967 69.7871 8.71527 58.771C9.24305 45.722 5.16982 32.6333 9.46993 19.8643C13.9308 6.61847 25.9617 3.62499 38.9098 2.60382Z" fill="#6AD7E5" stroke="black" stroke-width="3" stroke-linecap="round"/>
<path fill-rule="evenodd" clip-rule="evenodd" d="M41.0307 18.6815C43.1876 31.1814 63.683 27.8764 60.7392 15.2696C58.0994 3.96465 40.3139 7.09384 41.0307 18.6815Z" fill="white" stroke="black" stroke-width="2.9081" stroke-linecap="round"/>
<path fill-rule="evenodd" clip-rule="evenodd" d="M16.5387 20.7032C19.3343 31.5855 36.8112 28.7993 36.1525 17.8833C35.3632 4.80962 13.866 7.3323 16.5387 20.7032Z" fill="white" stroke="black" stroke-width="2.8214" stroke-linecap="round"/>
<path fill-rule="evenodd" clip-rule="evenodd" d="M43.5034 33.681C43.5126 35.3061 43.8738 37.1306 43.5655 38.8595C43.1494 39.6435 42.333 39.7265 41.6293 40.0433C40.6561 39.8911 39.8378 39.2541 39.4475 38.3466C39.1977 36.3733 39.5406 34.4627 39.6037 32.4886L43.5034 33.681Z" fill="white" stroke="black" stroke-width="3" stroke-linecap="round"/>
<path d="M21.3591 22.115C22.989 22.115 24.3103 20.6883 24.3103 18.9283C24.3103 17.1683 22.989 15.7416 21.3591 15.7416C19.7292 15.7416 18.4079 17.1683 18.4079 18.9283C18.4079 20.6883 19.7292 22.115 21.3591 22.115Z" fill="black"/>
<path d="M22.7014 20.4574C23.0857 20.4574 23.3972 20.0948 23.3972 19.6475C23.3972 19.2002 23.0857 18.8376 22.7014 18.8376C22.3172 18.8376 22.0057 19.2002 22.0057 19.6475C22.0057 20.0948 22.3172 20.4574 22.7014 20.4574Z" fill="white"/>
<path d="M46.0861 21.3214C47.6888 21.3214 48.9881 19.8947 48.9881 18.1347C48.9881 16.3747 47.6888 14.948 46.0861 14.948C44.4833 14.948 43.184 16.3747 43.184 18.1347C43.184 19.8947 44.4833 21.3214 46.0861 21.3214Z" fill="black"/>
<path d="M47.4061 19.6638C47.784 19.6638 48.0903 19.3012 48.0903 18.8539C48.0903 18.4067 47.784 18.0441 47.4061 18.0441C47.0283 18.0441 46.7219 18.4067 46.7219 18.8539C46.7219 19.3012 47.0283 19.6638 47.4061 19.6638Z" fill="white"/>
<path fill-rule="evenodd" clip-rule="evenodd" d="M35.0698 33.504C33.7821 36.615 35.7878 42.8358 39.2815 38.2474C39.0318 36.2741 39.3747 34.3635 39.4378 32.3894L35.0698 33.504Z" fill="white" stroke="black" stroke-width="3" stroke-linecap="round"/>
<path fill-rule="evenodd" clip-rule="evenodd" d="M35.5104 27.5129C33.1105 27.7169 31.1488 30.5616 32.3967 32.812C34.0491 35.7928 37.7374 32.5484 40.0346 32.8523C42.6786 32.9063 44.8448 35.6393 46.9683 33.3463C49.33 30.7961 45.9516 28.3123 43.311 27.2018L35.5104 27.5129Z" fill="#F6D2A2" stroke="#231F20" stroke-width="3" stroke-linecap="round"/>
<path fill-rule="evenodd" clip-rule="evenodd" d="M35.2083 27.3883C35.0306 23.2435 42.9576 22.7253 43.8937 26.1947C44.8275 29.656 35.5986 30.4599 35.2083 27.3883C34.8969 24.9355 35.2083 27.3883 35.2083 27.3883Z" fill="black"/>
</g>
<defs>
<clipPath id="clip0">
<rect width="80" height="111" fill="white"/>
</clipPath>
</defs>
</svg>
