<svg width="16" height="16" viewBox="0 0 16 16" fill="none" xmlns="http://www.w3.org/2000/svg">
    <path d="M15.6985 7.28729L8.7127 0.301807C8.31047 -0.100602 7.65801 -0.100602 7.25543 0.301807L5.80494 1.75264L7.64495 3.59265C8.07261 3.44812 8.56295 3.54511 8.90372 3.88605C9.24658 4.22909 9.3427 4.72361 9.19452 5.15284L10.9682 6.92633C11.3974 6.77832 11.8923 6.87409 12.235 7.2173C12.7138 7.69615 12.7138 8.47206 12.235 8.95126C11.7558 9.43029 10.9798 9.43029 10.5005 8.95126C10.1404 8.59082 10.0512 8.06147 10.2339 7.61779L8.57967 5.96375V10.3164C8.69634 10.3742 8.80656 10.4512 8.90372 10.5484C9.38257 11.0272 9.38257 11.8031 8.90372 12.2825C8.42487 12.7612 7.64843 12.7612 7.16993 12.2825C6.69108 11.803 6.69108 11.027 7.16993 10.5484C7.28834 10.4301 7.42538 10.3406 7.57164 10.2807V5.88748C7.42538 5.82758 7.28869 5.73895 7.16993 5.61985C6.80722 5.25731 6.71999 4.72483 6.90595 4.27941L5.09206 2.46517L0.301807 7.25491C-0.100602 7.65766 -0.100602 8.31012 0.301807 8.71253L7.28799 15.6982C7.69023 16.1006 8.34251 16.1006 8.74527 15.6982L15.6985 8.74492C16.1009 8.34251 16.1009 7.6897 15.6985 7.28729Z" fill="black"/>
</svg>