<svg xmlns="http://www.w3.org/2000/svg" viewBox="0 0 30.01 20"><defs><style>.cls-1{fill:#154ca0;}</style></defs><title>icon-dashboard</title><g id="Layer_2" data-name="Layer 2"><g id="Layer_1-2" data-name="Layer 1"><path class="cls-1" d="M29.93,16.41v0h0a.71.71,0,0,1-.71.71l-6.36,0a.71.71,0,1,1,0-1.43h5.68c0-.24,0-.47,0-.71A13.57,13.57,0,0,0,1.43,15c0,.24,0,.48,0,.71H7.14a.71.71,0,1,1,0,1.43l-6.36,0a.71.71,0,0,1-.71-.71h0v0C0,15.95,0,15.48,0,15a15,15,0,0,1,30,0C30,15.48,30,15.95,29.93,16.41ZM10.38,8a.75.75,0,0,1,.85.1l0-.06c6.27,4.59,7.56,6.7,7.58,6.74a3.43,3.43,0,0,1-1.36,4.81,3.81,3.81,0,0,1-5.06-1.29S11,16.09,10,8.64l0,.06A.68.68,0,0,1,10.38,8Zm3.26,9.59a2.26,2.26,0,0,0,1.93,1.06,2.31,2.31,0,0,0,1.11-.28,2.11,2.11,0,0,0,1-1.28,2,2,0,0,0-.22-1.59s-1.12-1.7-5.76-5.25C12.65,15.77,13.63,17.52,13.64,17.54Z"/></g></g></svg>