<svg width="16" height="16" viewBox="0 0 16 16" fill="none" xmlns="http://www.w3.org/2000/svg">
    <path d="M8 0C3.58 0 0 3.67299 0 8.20301C0 11.828 2.292 14.902 5.47 15.9858C5.87 16.0631 6.01667 15.8092 6.01667 15.5914C6.01667 15.3966 6.01 14.8805 6.00667 14.1967C3.78133 14.6913 3.312 13.0962 3.312 13.0962C2.948 12.1494 2.422 11.8962 2.422 11.8962C1.69733 11.3877 2.478 11.3981 2.478 11.3981C3.28133 11.4551 3.70333 12.2433 3.70333 12.2433C4.41667 13.4975 5.576 13.1351 6.03333 12.9257C6.10533 12.3949 6.31133 12.0339 6.54 11.8287C4.76333 11.6235 2.896 10.9181 2.896 7.77519C2.896 6.8799 3.206 6.14808 3.71933 5.57418C3.62933 5.36688 3.35933 4.5328 3.78933 3.40308C3.78933 3.40308 4.45933 3.18326 5.98933 4.24411C6.62933 4.06185 7.30933 3.97142 7.98933 3.96725C8.66933 3.97142 9.34933 4.06185 9.98933 4.24411C11.5093 3.18326 12.1793 3.40308 12.1793 3.40308C12.6093 4.5328 12.3393 5.36688 12.2593 5.57418C12.7693 6.14808 13.0793 6.8799 13.0793 7.77519C13.0793 10.9264 11.2093 11.62 9.42933 11.8217C9.70933 12.068 9.96933 12.5709 9.96933 13.3396C9.96933 14.4374 9.95933 15.3194 9.95933 15.5859C9.95933 15.8008 10.0993 16.0575 10.5093 15.9754C13.71 14.8986 16 11.8224 16 8.20301C16 3.67299 12.418 0 8 0Z" fill="black"/>
</svg>
