<svg width="28" height="40" viewBox="0 0 28 40" fill="none" xmlns="http://www.w3.org/2000/svg">
    <path d="M20.1366 2.14064V8.01388C20.1366 8.341 20.3789 8.60625 20.6778 8.60625H26.0442C26.5264 8.60625 26.7678 7.96821 26.4269 7.5951L21.0605 1.72178C20.7196 1.34867 20.1366 1.6129 20.1366 2.14064Z" fill="#0F3671"/>
    <path d="M27.2521 11.0325H19.0282C18.4161 11.0325 17.9198 10.4893 17.9198 9.81936V0.8186C17.9198 0.366529 17.585 0 17.1719 0H1.10845C0.496288 0 0 0.543174 0 1.21309V38.7869C0 39.4569 0.496288 40 1.10838 40H26.8916C27.5038 40 28 39.4568 28 38.7869V11.8511C28.0001 11.399 27.6652 11.0325 27.2521 11.0325ZM9.60863 24.2147C10.309 24.9812 9.80331 26.2857 8.8249 26.2857C8.54126 26.2857 8.25754 26.1672 8.04117 25.9303L5.22055 22.8433C4.78789 22.3699 4.78774 21.6015 5.22055 21.1278L8.04117 18.0407C8.47398 17.5668 9.1759 17.5668 9.60863 18.0407C10.0415 18.5145 10.0415 19.2825 9.60863 19.7562L7.5718 21.9856L9.60863 24.2147ZM16.7148 17.3246L13.3705 27.4697C13.2076 27.964 12.7817 28.2714 12.3278 28.2714C11.5638 28.2714 11.024 27.439 11.2853 26.6462L14.6296 16.5012C14.8373 15.871 15.4723 15.5444 16.0484 15.7717C16.6241 15.9991 16.9225 16.6943 16.7148 17.3246ZM22.7795 22.8432L19.9589 25.9304C19.7425 26.1673 19.4588 26.2857 19.1752 26.2857C18.1967 26.2857 17.6911 24.9813 18.3914 24.2148L20.4283 21.9855L18.3914 19.7561C17.9586 19.2824 17.9586 18.5143 18.3914 18.0406C18.8242 17.5668 19.5262 17.5668 19.9589 18.0406L22.7795 21.1277C23.2124 21.6015 23.2124 22.3696 22.7795 22.8432Z" fill="#0F3671"/>
</svg>
