<?xml version="1.0" encoding="UTF-8" standalone="no"?>
<svg xmlns:svg="http://www.w3.org/2000/svg" xmlns="http://www.w3.org/2000/svg" id="svg4" version="1.1" viewBox="0 0 128 128">
  <defs id="defs8">
    <linearGradient gradientTransform="matrix(3.08228,-10.3064,8.72379,3.56577,19.8394,42.498)" gradientUnits="userSpaceOnUse" y2="0" x2="1" y1="0" x1="0" id="_Linear1">
      <stop id="stop36" style="stop-color:#ff9700;stop-opacity:1" offset="0"/>
      <stop id="stop38" style="stop-color:#f48e00;stop-opacity:1" offset="0.53"/>
      <stop id="stop40" style="stop-color:#ce6e00;stop-opacity:1" offset="1"/>
    </linearGradient>
  </defs>
  <g id="g32" style="clip-rule:evenodd;fill-rule:evenodd;stroke-linejoin:round;stroke-miterlimit:1.41420996" transform="matrix(2.6452818,0,0,2.6452818,16.384928,-5.9322548)">
    <path id="path26" style="fill:url(#_Linear1)" d="m 35.995,26.563 c 0,-0.548 -0.405,-0.864 -0.902,-0.707 L 0.902,36.698 C 0.404,36.856 0,37.429 0,37.976 v 11.081 c 0,0.548 0.404,0.865 0.902,0.707 L 35.093,38.923 c 0.497,-0.158 0.902,-0.731 0.902,-1.279 z"/>
    <path id="path28" style="fill:#ff9800" d="m 0,26.21 c 0,0.548 0.404,1.121 0.902,1.279 L 35.098,38.332 C 35.596,38.49 36,38.173 36,37.626 V 26.544 c 0,-0.547 -0.404,-1.12 -0.902,-1.278 L 0.902,14.423 C 0.404,14.265 0,14.581 0,15.129 Z"/>
    <path id="path30" style="fill:#ff9800" d="m 35.995,3.793 c 0,-0.548 -0.405,-0.865 -0.902,-0.707 L 0.902,13.927 C 0.404,14.085 0,14.658 0,15.206 v 11.081 c 0,0.548 0.404,0.864 0.902,0.707 L 35.093,16.152 c 0.497,-0.158 0.902,-0.731 0.902,-1.278 z"/>
  </g>
</svg>