<svg xmlns="http://www.w3.org/2000/svg" viewBox="0 0 17.22 17"><defs><style>.cls-1{fill:#154ca0;}</style></defs><title>icon-docs</title><g id="Layer_2" data-name="Layer 2"><g id="Layer_1-2" data-name="Layer 1"><path id="editor-books-library-collection-glyph" class="cls-1" d="M0,5.9V16.39c0,.31.36.55.8.55H3.23c.44,0,.8-.24.8-.55V5.9c0-.31-.36-.55-.8-.55H.8C.36,5.35,0,5.59,0,5.9Zm4.83-5V16.14a.81.81,0,0,0,.8.81H8.05a.8.8,0,0,0,.8-.81V.86a.81.81,0,0,0-.8-.81H5.62A.8.8,0,0,0,4.83.86Zm4.53.78,4,14.76a.81.81,0,0,0,1,.57l2.35-.63a.8.8,0,0,0,.56-1L13.24.6a.81.81,0,0,0-1-.57L9.91.66A.8.8,0,0,0,9.35,1.64Z"/></g></g></svg>