<svg xmlns="http://www.w3.org/2000/svg" viewBox="0 0 43.62 39.09"><defs><style>.cls-1{fill:#154ca0;}.cls-2{fill:#df2c2c;}.cls-3{fill:#f37a10;}.cls-4{fill:#059bbf;}.cls-5{fill:#fa5655;}.cls-6{fill:#12b2a0;}</style></defs><title>icon-kite-welcome</title><g id="Layer_2" data-name="Layer 2"><g id="Layer_1-2" data-name="Layer 1"><polygon class="cls-1" points="7.53 16.88 4.7 22.16 10.78 27.37 12.81 19.59 7.53 16.88"/><polygon class="cls-1" points="5.09 9.18 0 18.12 3.52 21.14 6.97 15.09 13.21 18.09 14.37 13.63 5.09 9.18"/><circle class="cls-2" cx="20.18" cy="5.34" r="1.32" transform="translate(2.84 16.95) rotate(-48.64)"/><circle class="cls-3" cx="26.34" cy="14.27" r="1.32" transform="translate(-1.77 24.61) rotate(-48.64)"/><circle class="cls-4" cx="32.24" cy="26.47" r="1.32" transform="translate(-8.94 33.18) rotate(-48.64)"/><circle class="cls-5" cx="23.17" cy="37.77" r="1.32" transform="translate(-20.49 30.2) rotate(-48.64)"/><circle class="cls-6" cx="30.94" cy="6.05" r="1.32" transform="translate(5.95 25.28) rotate(-48.64)"/><polygon class="cls-5" points="37.94 11.91 35.12 11.19 34.93 8.28 33.37 10.74 30.54 10.02 32.41 12.26 30.84 14.73 33.56 13.65 35.42 15.9 35.23 12.99 37.94 11.91"/><polygon class="cls-3" points="23.03 28.01 21.29 29.04 19.77 27.7 20.28 29.6 18.57 30.6 20.6 30.77 21.05 32.74 21.8 30.95 23.75 31.21 22.23 29.87 23.03 28.01"/><path class="cls-2" d="M23.91,20c4.92,4.33,8.7,2.11,11.75.33,2.53-1.48,4.53-2.65,6.88-.58a.66.66,0,0,0,.87-1c-3.06-2.7-5.78-1.1-8.41.44C31.9,21,29,22.73,24.78,19a.66.66,0,0,0-.87,1Z"/><path class="cls-4" d="M20,11.13c5.9.28,6.3-2.66,6.69-5.5a8.09,8.09,0,0,1,1.6-4.54.66.66,0,1,0-1-.87,9.25,9.25,0,0,0-1.92,5.23C25,8.21,24.76,10,20.07,9.82A.66.66,0,1,0,20,11.13Z"/><path class="cls-6" d="M29.06,35.07a.66.66,0,0,0,.87-1c-1.41-1.24-1.88-3-2.33-4.67-.73-2.72-1.48-5.54-6.23-5.23a.66.66,0,0,0,.08,1.31c3.67-.23,4.15,1.55,4.87,4.26C26.81,31.53,27.35,33.56,29.06,35.07Z"/></g></g></svg>