<svg width="36" height="36" viewBox="0 0 36 36" fill="none" xmlns="http://www.w3.org/2000/svg">
    <g>
        <path d="M23.6481 19.4532L27.2483 20.1678C27.2856 21.9337 28.7474 23.335 30.5133 23.2977C32.2792 23.2604 33.6806 21.7986 33.6433 20.0327C33.606 18.2668 32.1441 16.8654 30.3782 16.9027C29.1381 16.9289 28.0248 17.6699 27.5221 18.8039L23.8285 18.0708C23.8246 16.7192 23.2985 15.4213 22.3603 14.4484L27.141 7.69488C29.1575 8.65369 31.5693 7.79626 32.5281 5.77979C33.4869 3.76332 32.6295 1.35144 30.6131 0.392636C28.5966 -0.566171 26.1847 0.29126 25.2259 2.30773C24.494 3.84705 24.806 5.67998 26.0062 6.89031L21.2716 13.5786C19.0942 12.2709 16.2929 12.7104 14.6205 14.6219L8.40488 9.79473C9.22075 8.22428 8.60911 6.28971 7.03866 5.47384C5.46821 4.65797 3.53365 5.26961 2.71777 6.84006C1.9019 8.41051 2.51355 10.3451 4.08399 11.1609C5.18747 11.7342 6.523 11.6174 7.51007 10.8612L13.8456 15.7814C12.7929 17.9321 13.3294 20.5226 15.1497 22.0783L11.2995 27.522C9.2611 26.285 6.60577 26.9347 5.36875 28.9731C4.13173 31.0115 4.78136 33.6668 6.81983 34.9038C8.8582 36.1409 11.5135 35.4912 12.7505 33.4528C13.7119 31.8686 13.5551 29.8476 12.3609 28.4307L16.315 22.8385C17.6679 23.4817 19.2309 23.5168 20.6112 22.9349L25.3029 29.8657C23.9231 31.3246 23.9871 33.6259 25.446 35.0057C26.9049 36.3856 29.2062 36.3215 30.5861 34.8626C31.966 33.4037 31.9019 31.1024 30.443 29.7226C29.3672 28.7051 27.7819 28.4415 26.4349 29.0564L21.8109 22.2255C22.7063 21.5238 23.3509 20.5514 23.6481 19.4532Z" fill="#DE4721"/>
    </g>
</svg>