<svg xmlns="http://www.w3.org/2000/svg" viewBox="0 0 22.96 17.23"><defs><style>.cls-1{fill:#154ca0;}</style></defs><title>icon-examples</title><g id="Layer_2" data-name="Layer 2"><g id="Layer_1-2" data-name="Layer 1"><path class="cls-1" d="M7.18,14.12l-.63.63a.39.39,0,0,1-.58,0L.13,8.9a.39.39,0,0,1,0-.58L6,2.48a.39.39,0,0,1,.58,0l.63.63a.39.39,0,0,1,0,.58L2.25,8.62l4.93,4.93a.39.39,0,0,1,0,.58ZM14.59.73,9.91,16.93a.41.41,0,0,1-.19.24.35.35,0,0,1-.29,0L8.65,17a.41.41,0,0,1-.24-.19.38.38,0,0,1,0-.31L13.05.3a.41.41,0,0,1,.19-.24.35.35,0,0,1,.29,0l.78.21a.41.41,0,0,1,.24.19A.38.38,0,0,1,14.59.73ZM22.84,8.9,17,14.75a.39.39,0,0,1-.58,0l-.63-.63a.39.39,0,0,1,0-.58l4.93-4.93L15.79,3.68a.39.39,0,0,1,0-.58l.63-.63a.39.39,0,0,1,.58,0l5.85,5.85a.39.39,0,0,1,0,.58Z"/></g></g></svg>