<svg id="Capa_1" enable-background="new 0 0 512 512" height="512" viewBox="0 0 512 512" width="512" xmlns="http://www.w3.org/2000/svg"><path d="m512 46c0-24.853-20.147-45-45-45h-422c-24.853 0-45 20.147-45 45v90l10 10h492c3.905-3.905 6.095-6.095 10-10z" fill="#0052c2"/><path d="m512 46v90c-3.91 3.91-6.09 6.09-10 10h-246v-145h211c24.85 0 45 20.15 45 45z" fill="#003481"/><path d="m436 61h-90c-8.284 0-15 6.716-15 15s6.716 15 15 15h90c8.284 0 15-6.716 15-15s-6.716-15-15-15z" fill="#0052c2"/><circle cx="196" cy="76" fill="#f03800" r="15"/><circle cx="136" cy="76" fill="#fdbf00" r="15"/><circle cx="76" cy="76" fill="#37d742" r="15"/><path d="m0 136v330c0 24.813 20.187 45 45 45h422c24.813 0 45-20.187 45-45v-330z" fill="#e0f4ff"/><path d="m512 136v330c0 24.81-20.19 45-45 45h-211v-375z" fill="#b8e0f5"/><path d="m306.909 197.213c-7.614-3.263-16.433.264-19.696 7.878l-90 210c-3.264 7.614.264 16.433 7.878 19.696 7.617 3.264 16.434-.266 19.696-7.878l90-210c3.264-7.615-.264-16.433-7.878-19.696z" fill="#ff641a"/><path d="m314.79 216.91-58.79 137.18v-76.18l31.21-72.82c3.27-7.61 12.08-11.14 19.7-7.88 7.61 3.27 11.14 12.08 7.88 19.7z" fill="#f03800"/><path d="m175.37 364.287-60.358-48.287 60.358-48.287c6.47-5.175 7.518-14.614 2.343-21.083-5.176-6.469-14.617-7.517-21.083-2.342l-75 60c-7.499 5.997-7.504 17.424 0 23.426l75 60c6.469 5.176 15.91 4.126 21.083-2.342 5.175-6.471 4.127-15.91-2.343-21.085z" fill="#ff641a"/><path d="m430.37 304.287-75-60c-6.469-5.176-15.909-4.127-21.083 2.342-5.175 6.469-4.127 15.909 2.343 21.083l60.358 48.288-60.358 48.287c-6.47 5.175-7.518 14.614-2.343 21.083 5.182 6.476 14.623 7.512 21.083 2.342l75-60c7.499-5.997 7.504-17.423 0-23.425z" fill="#f03800"/></svg>